<svg fill="none" height="48" viewBox="0 0 48 48" width="48" xmlns="http://www.w3.org/2000/svg" xmlns:xlink="http://www.w3.org/1999/xlink"><clipPath id="a"><path d="m0 0h48v48h-48z"/></clipPath><g clip-path="url(#a)"><path d="m17.686 25.3022c-2.784 0-5.042 2.258-5.042 5.042v12.6121c0 2.784 2.258 5.042 5.042 5.042s5.042-2.258 5.042-5.042v-12.6121c-.002-2.784-2.26-5.042-5.042-5.042z" fill="#e91e63"/><path d="m.0380859 30.3443c0 2.786 2.2600041 5.046 5.0460041 5.046s5.04601-2.26 5.04601-5.046v-5.046h-5.04201c-.002 0-.002 0-.004 0-2.786 0-5.0460041 2.26-5.0460041 5.046z" fill="#e91e63"/><path d="m17.6919-.00097656c-.002 0-.004 0-.006 0-2.786 0-5.046 2.25999656-5.046 5.04599656s2.26 5.04598 5.046 5.04598h5.042v-5.04598c0-.002 0-.006 0-.01-.002-2.782-2.256-5.03599656-5.036-5.03599656z" fill="#00bcd4"/><path d="m5.05003 22.74h12.63597c2.786 0 5.046-2.26 5.046-5.046s-2.26-5.0461-5.046-5.0461h-12.63597c-2.786 0-5.04600168 2.2601-5.04600168 5.0461s2.26000168 5.046 5.04600168 5.046z" fill="#00bcd4"/><path d="m42.9139 12.646c-2.782 0-5.036 2.254-5.036 5.036v.01 5.046h5.042c2.786 0 5.046-2.26 5.046-5.046s-2.26-5.046-5.046-5.046c-.002 0-.004 0-.006 0z" fill="#4caf50"/><path d="m25.282 5.04298v12.65002c0 2.784 2.258 5.042 5.042 5.042s5.042-2.258 5.042-5.042v-12.65002c0-2.784-2.258-5.04200344-5.042-5.04200344s-5.042 2.25800344-5.042 5.04200344z" fill="#4caf50"/><g fill="#ff9800"><path d="m35.364 42.9522c0-2.784-2.258-5.042-5.042-5.042h-5.042v5.046c.002 2.782 2.258 5.038 5.042 5.038s5.042-2.258 5.042-5.042z"/><path d="m42.9582 25.2983h-12.6361c-2.786 0-5.046 2.26-5.046 5.046s2.26 5.046 5.046 5.046h12.6361c2.786 0 5.046-2.26 5.046-5.046s-2.26-5.046-5.046-5.046z"/></g></g></svg>