<svg fill="none" height="388" viewBox="0 0 995 388" width="995" xmlns="http://www.w3.org/2000/svg" xmlns:xlink="http://www.w3.org/1999/xlink"><clipPath id="a"><path d="m886 195h18v18h-18z"/></clipPath><path d="m0 17c0-4.4183 3.58172-8 8-8h129c4.418 0 8 3.5817 8 8v26c0 4.4183-3.582 8-8 8h-129c-4.41827 0-8-3.5817-8-8z" fill="#0d2132"/><path d="m40.3118 35h-1.9688l3.5846-10.1818h2.2769l3.5895 10.1818h-1.9687l-.8452-2.5107h-3.8281zm1.3373-3.9922h2.8339l-1.3772-4.1016h-.0795zm7.4065 6.8558v-10.5h1.7699v1.2628h.1044c.4507-.9081 1.1782-1.3622 2.1825-1.3622.4441 0 .8568.0862 1.2379.2585.3812.1724.7143.421.9993.7458s.5088.7391.6712 1.2429c.1624.5004.2436 1.0606.2436 1.6804 0 .6164-.0796 1.1749-.2387 1.6754-.159.5005-.3795.9148-.6612 1.2429s-.6148.5817-.9993.7606c-.3811.1757-.7971.2635-1.2478.2635-1.0043 0-1.7335-.4458-2.1875-1.3373h-.0746v4.0667zm2.2322-8.4666c-.3115.4375-.4673 1.0325-.4673 1.7848 0 .7524.1574 1.3539.4723 1.8047.3149.4474.7557.6712 1.3224.6712.5767 0 1.0225-.2271 1.3374-.6811.3182-.4574.4773-1.0557.4773-1.7948 0-.4806-.068-.9015-.2039-1.2628-.1325-.3645-.3364-.6512-.6115-.8601-.2751-.2121-.6082-.3181-.9993-.3181-.57 0-1.0125.2187-1.3274.6562zm6.5178 8.4666v-10.5h1.7699v1.2628h.1044c.4507-.9081 1.1782-1.3622 2.1825-1.3622.4441 0 .8568.0862 1.2379.2585.3812.1724.7143.421.9993.7458s.5088.7391.6712 1.2429c.1624.5004.2436 1.0606.2436 1.6804 0 .6164-.0796 1.1749-.2387 1.6754-.159.5005-.3795.9148-.6612 1.2429s-.6148.5817-.9993.7606c-.3811.1757-.7971.2635-1.2478.2635-1.0043 0-1.7335-.4458-2.1875-1.3373h-.0746v4.0667zm2.2322-8.4666c-.3115.4375-.4673 1.0325-.4673 1.7848 0 .7524.1574 1.3539.4723 1.8047.3149.4474.7557.6712 1.3224.6712.5767 0 1.0225-.2271 1.3374-.6811.3182-.4574.4773-1.0557.4773-1.7948 0-.4806-.068-.9015-.2039-1.2628-.1325-.3645-.3364-.6512-.6115-.8601-.2751-.2121-.6082-.3181-.9993-.3181-.57 0-1.0125.2187-1.3274.6562zm12.5533-.0149-1.6406.179c-.0763-.2751-.2337-.5022-.4723-.6811-.2354-.1823-.5469-.2735-.9347-.2735-.3778 0-.6927.0829-.9446.2486-.2519.1624-.3762.3712-.3729.6264-.0033.2221.0796.4044.2486.5469.169.1392.4458.2519.8303.3381l1.3025.2784c.7226.1558 1.2595.4043 1.6108.7457.3547.3381.5336.7789.5369 1.3225-.0033.7225-.3082 1.3092-.9147 1.7599-.6066.4508-1.3888.6761-2.3466.6761-.9314 0-1.6821-.1955-2.2521-.5866-.5701-.3911-.9115-.9396-1.0242-1.6456l1.755-.169c.0762.3414.2436.6015.5021.7805.2618.1757.5999.2635 1.0142.2635.4209 0 .7623-.0862 1.0242-.2585.2651-.1724.3977-.3911.3977-.6563 0-.4275-.3431-.7175-1.0291-.87l-1.3026-.2734c-1.4384-.2983-2.1543-1.0159-2.1477-2.1527 0-.464.1276-.8717.3828-1.223.2585-.3514.6214-.6215 1.0888-.8104.4673-.1889 1.0059-.2834 1.6157-.2834.875 0 1.5744.1873 2.0981.5618.5236.3745.8484.8932.9744 1.5561zm1.7276 5.6179v-10.1818h6.5227v1.5461h-4.6782v2.7643h4.2308v1.5461h-4.2308v4.3253zm9.9233-10.1818v10.1818h-1.7997v-10.1818zm2.9693 13.0305c-.4806 0-.8717-.0646-1.1733-.1939l.4176-1.397c.2652.0729.4988.1094.701.1094s.3812-.0646.5369-.1939c.1591-.126.295-.3265.4077-.6016l.1541-.4126-2.7691-7.7955h1.909l1.76 5.7671h.0795l1.7649-5.7671 1.9241.01-3.0675 8.5511c-.464 1.2827-1.3457 1.924-2.6449 1.924zm10.0824-2.6996c-1.1468 0-2.0516-.3529-2.7145-1.0589s-.9943-1.6605-.9943-2.8636c0-.7789.1475-1.4683.4424-2.0682.2983-.5999.7209-1.0656 1.2678-1.397.5502-.3315 1.1849-.4972 1.9041-.4972.4806 0 .9264.0779 1.3374.2337.4143.1524.7838.3811 1.1086.686.3249.305.5798.7093.7658 1.2131.185.5005.278 1.0755.278 1.7252v.5518h-5.3193c.0066.6463.1856 1.1534.5369 1.5213.3546.3679.8253.5519 1.4119.5519.3944 0 .7325-.0846 1.0142-.2536.2818-.169.4823-.4126.6016-.7308l1.6807.1889c-.163.6728-.537 1.2081-1.1239 1.6058-.5866.3944-1.3191.5916-2.1974.5916zm-1.9191-4.6882h3.5895c-.0066-.5236-.1707-.9529-.4922-1.2876-.3181-.3381-.7341-.5071-1.2478-.5071-.5237 0-.9562.174-1.2976.522-.3381.3447-.522.7689-.5519 1.2727zm6.8374 4.5391v-7.6364h1.745v1.2728h.079c.136-.4375.373-.7773.711-1.0192.338-.242.73-.3629 1.174-.3629.248 0 .464.0165.646.0497v1.6555c-.215-.0696-.494-.1044-.835-.1044-.497 0-.908.1558-1.233.4673-.325.3083-.487.7044-.487 1.1883v4.4893z" fill="#fff"/><path d="m0 99c0-4.4183 3.58172-8 8-8h129c4.418 0 8 3.5817 8 8v26c0 4.418-3.582 8-8 8h-129c-4.41827 0-8-3.582-8-8z" fill="#0d2132"/><path d="m53.3118 117h-1.9688l3.5846-10.182h2.2769l3.5895 10.182h-1.9687l-.8452-2.511h-3.8281zm1.3373-3.992h2.8339l-1.3772-4.102h-.0795zm10.0079 4.126c-.4508 0-.8684-.088-1.2529-.263-.3811-.179-.7126-.433-.9943-.761s-.5021-.742-.6612-1.243c-.1591-.5-.2387-1.059-.2387-1.675 0-.62.0812-1.18.2437-1.681.1624-.503.3861-.918.6711-1.243.2851-.324.6182-.573.9993-.745.3812-.173.7938-.259 1.2379-.259 1.0043 0 1.7318.454 2.1826 1.362h.0745v-3.808h1.8047v10.182h-1.7699v-1.203h-.1093c-.4541.891-1.1833 1.337-2.1875 1.337zm.5021-1.476c.5668 0 1.0076-.224 1.3224-.671.3149-.451.4723-1.053.4723-1.805 0-.753-.1574-1.347-.4723-1.785-.3115-.437-.7523-.656-1.3224-.656-.3911 0-.7242.106-.9993.318-.2751.209-.4806.495-.6165.86-.1326.361-.1988.782-.1988 1.263 0 .739.1574 1.337.4723 1.795.3181.454.7656.681 1.3423.681zm5.4824-6.294h1.7997v8.059c0 .815-.2303 1.426-.691 1.834-.4607.411-1.1236.608-1.9887.592-.0232 0-.0729-.002-.1491-.005-.0796 0-.1442-.002-.1939-.005v-1.467c.1326.007.2188.01.2585.01.3381 0 .5834-.083.7358-.248.1525-.163.2287-.408.2287-.736zm.8949-1.084c-.2884 0-.5353-.095-.7408-.284-.2021-.192-.3032-.422-.3032-.691 0-.271.1011-.502.3032-.691.2055-.192.4524-.288.7408-.288.285 0 .5286.096.7308.288.2055.189.3083.42.3083.691 0 .269-.1028.499-.3083.691-.2022.189-.4458.284-.7308.284zm7.6227 5.508v-4.424h1.7997v7.636h-1.745v-1.357h-.0796c-.1789.444-.469.799-.87 1.064-.3977.262-.8733.392-1.4268.392-.7657 0-1.3821-.253-1.8495-.76-.464-.507-.696-1.212-.696-2.113v-4.862h1.7997v4.583c0 .484.1309.869.3928 1.154.2651.285.6148.427 1.049.427.2022 0 .3977-.036.5866-.109.1923-.076.3663-.184.522-.323.1558-.139.2801-.322.3729-.547.0961-.229.1442-.482.1442-.761zm9.6859-2.406-1.6406.179c-.0763-.275-.2337-.502-.4723-.681-.2354-.182-.5469-.273-.9347-.273-.3778 0-.6927.082-.9446.248-.2519.163-.3762.371-.3729.627-.0033.222.0796.404.2486.546.169.14.4458.252.8303.338l1.3025.279c.7226.156 1.2595.404 1.6108.746.3547.338.5336.779.537 1.322-.0034.723-.3083 1.309-.9148 1.76-.6066.451-1.3887.676-2.3466.676-.9314 0-1.6821-.195-2.2521-.587-.5701-.391-.9115-.939-1.0242-1.645l1.755-.169c.0762.341.2436.601.5021.78.2619.176.5999.264 1.0142.264.4209 0 .7623-.086 1.0242-.259.2651-.172.3977-.391.3977-.656 0-.427-.343-.717-1.0291-.87l-1.3026-.273c-1.4384-.299-2.1543-1.016-2.1477-2.153 0-.464.1276-.872.3828-1.223.2585-.351.6215-.621 1.0888-.81s1.0059-.284 1.6157-.284c.875 0 1.5744.187 2.0981.562.5236.375.8484.893.9744 1.556zm5.4613-2.018v1.392h-1.5064v3.947c0 .335.0713.567.2138.696.1458.126.3463.189.6015.189.1658 0 .3414-.023.527-.07l.3033 1.407c-.3248.11-.6778.169-1.059.179-.7059.02-1.281-.152-1.7251-.517-.4441-.364-.6645-.893-.6612-1.586v-4.245h-1.0838v-1.392h1.0838v-1.83h1.7997v1.83z" fill="#fff"/><path d="m0 181c0-4.418 3.58172-8 8-8h129c4.418 0 8 3.582 8 8v26c0 4.418-3.582 8-8 8h-129c-4.41827 0-8-3.582-8-8z" fill="#0d2132"/><path d="m44.0043 199v-10.182h6.5227v1.546h-4.6783v2.765h4.2308v1.546h-4.2308v4.325zm8.1235 0v-7.636h1.7998v7.636zm.9049-8.72c-.2884 0-.5353-.095-.7408-.284-.2022-.192-.3033-.422-.3033-.691 0-.271.1011-.502.3033-.691.2055-.192.4524-.288.7408-.288.285 0 .5286.096.7308.288.2055.189.3082.42.3082.691 0 .269-.1027.499-.3082.691-.2022.189-.4458.284-.7308.284zm2.7455 8.72v-7.636h1.7451v1.272h.0795c.1359-.437.3729-.777.7109-1.019.3381-.242.7292-.363 1.1733-.363.2486 0 .4641.017.6463.05v1.656c-.2154-.07-.4938-.105-.8352-.105-.4971 0-.9081.156-1.2329.467-.3248.309-.4873.705-.4873 1.189v4.489zm8.617.149c-1.1467 0-2.0516-.353-2.7144-1.059-.6629-.706-.9944-1.66-.9944-2.863 0-.779.1475-1.469.4425-2.069.2983-.6.7209-1.065 1.2678-1.397.5502-.331 1.1849-.497 1.9041-.497.4806 0 .9264.078 1.3373.234.4143.152.7839.381 1.1087.686s.58.709.7656 1.213c.1856.5.2784 1.076.2784 1.725v.552h-5.3196c.0067.646.1856 1.153.537 1.521.3546.368.8253.552 1.4119.552.3944 0 .7325-.084 1.0142-.253s.4822-.413.6016-.731l1.6804.189c-.1624.673-.537 1.208-1.1236 1.606-.5867.394-1.3191.591-2.1975.591zm-1.919-4.688h3.5895c-.0066-.524-.1707-.953-.4922-1.288-.3182-.338-.7341-.507-1.2479-.507-.5236 0-.9562.174-1.2975.522-.3381.345-.5221.769-.5519 1.273zm6.9167 4.539v-10.182h1.7997v3.808h.0746c.4508-.908 1.1783-1.362 2.1826-1.362.4441 0 .8567.086 1.2379.259.3811.172.7142.421.9993.745.285.325.5087.74.6711 1.243.1624.501.2436 1.061.2436 1.681 0 .616-.0795 1.175-.2386 1.675-.1591.501-.3795.915-.6612 1.243s-.6148.582-.9993.761c-.3812.175-.7971.263-1.2479.263-1.0042 0-1.7334-.446-2.1875-1.337h-.1044v1.203zm2.2323-5.603c-.3116.438-.4674 1.032-.4674 1.785 0 .752.1575 1.354.4723 1.805.3149.447.7557.671 1.3225.671.5767 0 1.0225-.227 1.3374-.681.3181-.458.4772-1.056.4772-1.795 0-.481-.0679-.902-.2038-1.263-.1326-.365-.3364-.651-.6115-.86-.2751-.212-.6082-.318-.9993-.318-.5701 0-1.0126.219-1.3274.656zm8.704 5.757c-.4939 0-.9314-.084-1.3125-.253-.3779-.173-.6795-.435-.9048-.786-.2254-.351-.3381-.771-.3381-1.258 0-.331.0547-.626.1641-.885.1093-.258.2502-.469.4225-.631.1757-.162.3945-.3.6563-.413.2618-.116.522-.2.7805-.253.2586-.057.5502-.103.875-.139.7358-.08 1.1882-.14 1.3573-.179.2817-.067.4507-.178.5071-.334.0165-.049.0248-.107.0248-.174v-.029c0-.378-.111-.668-.3331-.87-.222-.206-.5419-.309-.9595-.309-.4143 0-.7557.091-1.0241.274-.2652.182-.4458.414-.5419.696l-1.6804-.239c.1955-.683.5783-1.205 1.1484-1.566.5734-.361 1.2694-.542 2.0881-.542.3082 0 .6032.027.8849.08.2817.049.5602.139.8352.268.2751.126.5121.287.711.482.2022.193.3646.443.4872.751s.184.656.184 1.044v5.111h-1.7302v-1.049h-.0596c-.179.351-.4574.64-.8352.865-.3779.225-.8469.338-1.407.338zm.4673-1.322c.527 0 .9529-.153 1.2777-.458.3281-.305.4922-.676.4922-1.113v-.9c-.1458.119-.696.243-1.6506.373-.9379.132-1.4069.497-1.4069 1.093 0 .322.1176.57.353.746.2353.173.5468.259.9346.259zm11.4098-4.45-1.6406.179c-.0762-.275-.2337-.502-.4723-.681-.2353-.182-.5469-.273-.9347-.273-.3778 0-.6927.082-.9446.248-.2519.163-.3762.371-.3728.627-.0034.222.0795.404.2485.546.1691.14.4458.252.8303.338l1.3026.279c.7225.156 1.2594.404 1.6108.746.3546.338.5336.779.5369 1.322-.0033.723-.3083 1.309-.9148 1.76s-1.3887.676-2.3466.676c-.9313 0-1.682-.195-2.2521-.587-.5701-.391-.9115-.939-1.0242-1.645l1.755-.169c.0762.341.2436.601.5021.78.2619.176.5999.264 1.0142.264.421 0 .7624-.086 1.0242-.259.2651-.172.3977-.391.3977-.656 0-.427-.343-.717-1.0291-.87l-1.3026-.273c-1.4384-.299-2.1543-1.016-2.1477-2.153 0-.464.1276-.872.3828-1.223.2586-.351.6215-.621 1.0888-.81s1.0059-.284 1.6158-.284c.875 0 1.5743.187 2.098.562s.8485.893.9744 1.556zm5.0288 5.767c-1.1468 0-2.0516-.353-2.7145-1.059s-.9943-1.66-.9943-2.863c0-.779.1475-1.469.4425-2.069.2982-.6.7208-1.065 1.2677-1.397.5502-.331 1.1849-.497 1.9041-.497.4806 0 .9264.078 1.3374.234.4143.152.7838.381 1.1086.686.3249.305.5804.709.7654 1.213.186.5.279 1.076.279 1.725v.552h-5.3199c.0066.646.1856 1.153.5369 1.521.3547.368.8253.552 1.4119.552.3945 0 .7325-.084 1.0142-.253.2818-.169.4823-.413.6016-.731l1.6803.189c-.162.673-.537 1.208-1.1235 1.606-.5866.394-1.3191.591-2.1974.591zm-1.919-4.688h3.5894c-.0066-.524-.1707-.953-.4921-1.288-.3182-.338-.7342-.507-1.2479-.507-.5237 0-.9562.174-1.2976.522-.3381.345-.522.769-.5518 1.273z" fill="#fff"/><path d="m0 263c0-4.418 3.58172-8 8-8h129c4.418 0 8 3.582 8 8v26c0 4.418-3.582 8-8 8h-129c-4.41827 0-8-3.582-8-8z" fill="#0d2132"/><path d="m20.3082 270.818h2.0831l2.4908 4.504h.0994l2.4908-4.504h2.0831l-3.7038 6.384v3.798h-1.8395v-3.798zm11.3589 10.336c-.4939 0-.9314-.084-1.3125-.253-.3779-.173-.6795-.435-.9048-.786-.2254-.351-.3381-.771-.3381-1.258 0-.331.0547-.626.164-.885.1094-.258.2503-.469.4226-.631.1757-.162.3944-.3.6563-.413.2618-.116.522-.2.7805-.253.2585-.057.5502-.103.875-.139.7358-.08 1.1882-.14 1.3573-.179.2817-.067.4507-.178.5071-.334.0165-.049.0248-.107.0248-.174v-.029c0-.378-.111-.668-.3331-.87-.222-.206-.5419-.309-.9595-.309-.4143 0-.7557.091-1.0241.274-.2652.182-.4458.414-.5419.696l-1.6804-.239c.1955-.683.5783-1.205 1.1484-1.566.5734-.361 1.2694-.542 2.0881-.542.3082 0 .6032.027.8849.08.2817.049.5601.139.8352.268.2751.126.5121.287.711.482.2022.193.3646.443.4872.751s.1839.656.1839 1.044v5.111h-1.7301v-1.049h-.0596c-.179.351-.4574.64-.8353.865-.3778.225-.8468.338-1.4069.338zm.4673-1.322c.527 0 .9529-.153 1.2777-.458.3281-.305.4922-.676.4922-1.113v-.9c-.1458.119-.696.243-1.6506.373-.9379.132-1.4069.497-1.4069 1.093 0 .322.1176.57.353.746.2353.173.5468.259.9346.259zm7.174-3.306v4.474h-1.7997v-7.636h1.7202v1.297h.0895c.1789-.437.4623-.779.8501-1.024.3911-.249.8667-.373 1.4268-.373.7988 0 1.4352.254 1.9091.761.474.507.7093 1.211.706 2.113v4.862h-1.7997v-4.584c0-.51-.1326-.91-.3977-1.198-.2619-.288-.6248-.432-1.0888-.432-.4839 0-.875.154-1.1733.462-.295.308-.4425.734-.4425 1.278zm9.5654 4.608c-.4508 0-.8684-.088-1.2529-.263-.3811-.179-.7126-.433-.9943-.761s-.5021-.742-.6612-1.243c-.1591-.5-.2387-1.059-.2387-1.675 0-.62.0812-1.18.2436-1.681.1625-.503.3862-.918.6712-1.243.2851-.324.6181-.573.9993-.745.3812-.173.7938-.259 1.2379-.259 1.0043 0 1.7318.454 2.1826 1.362h.0745v-3.808h1.8047v10.182h-1.7699v-1.203h-.1093c-.4541.891-1.1833 1.337-2.1875 1.337zm.5021-1.476c.5667 0 1.0076-.224 1.3224-.671.3149-.451.4723-1.053.4723-1.805 0-.753-.1574-1.347-.4723-1.785-.3115-.437-.7523-.656-1.3224-.656-.3911 0-.7242.106-.9993.318-.2751.209-.4806.495-.6165.86-.1326.361-.1988.782-.1988 1.263 0 .739.1574 1.337.4723 1.795.3181.454.7656.681 1.3423.681zm8.8631 1.491c-1.1468 0-2.0516-.353-2.7145-1.059s-.9943-1.66-.9943-2.863c0-.779.1475-1.469.4425-2.069.2983-.6.7208-1.065 1.2677-1.397.5502-.331 1.1849-.497 1.9041-.497.4806 0 .9264.078 1.3374.234.4143.152.7838.381 1.1087.686.3248.305.58.709.7656 1.213.1856.5.2784 1.076.2784 1.725v.552h-5.3196c.0066.646.1856 1.153.5369 1.521.3547.368.8253.552 1.4119.552.3945 0 .7325-.084 1.0143-.253.2817-.169.4822-.413.6015-.731l1.6804.189c-.1624.673-.5369 1.208-1.1236 1.606-.5866.394-1.3191.591-2.1974.591zm-1.919-4.688h3.5894c-.0066-.524-.1706-.953-.4921-1.288-.3182-.338-.7342-.507-1.2479-.507-.5237 0-.9562.174-1.2976.522-.3381.345-.522.769-.5518 1.273zm8.1583-3.097 1.5412 2.819 1.5661-2.819h1.9041l-2.3018 3.818 2.3416 3.818h-1.8942l-1.6158-2.749-1.6008 2.749h-1.9091l2.3267-3.818-2.2671-3.818zm7.5121 7.745c-.3049 0-.5651-.106-.7805-.318-.2121-.215-.3166-.474-.3132-.775-.0034-.299.1011-.554.3132-.766.2154-.212.4756-.318.7805-.318.295 0 .5502.106.7656.318.2155.212.3248.467.3282.766-.0034.301-.1127.56-.3282.775-.2154.212-.4706.318-.7656.318zm3.0314-10.291h2.2571l3.0228 7.378h.1193l3.0227-7.378h2.2571v10.182h-1.7699v-6.995h-.0944l-2.814 6.965h-1.3224l-2.8139-6.98h-.0945v7.01h-1.7699zm15.9887 10.331c-1.1468 0-2.0516-.353-2.7145-1.059s-.9943-1.66-.9943-2.863c0-.779.1475-1.469.4424-2.069.2983-.6.7209-1.065 1.2678-1.397.5502-.331 1.1849-.497 1.9041-.497.4806 0 .9264.078 1.3374.234.4143.152.7838.381 1.1086.686s.5801.709.7657 1.213c.1856.5.2784 1.076.2784 1.725v.552h-5.3196c.0066.646.1856 1.153.5369 1.521.3546.368.8253.552 1.4119.552.3944 0 .7325-.084 1.0142-.253.2818-.169.4823-.413.6016-.731l1.6804.189c-.1624.673-.5369 1.208-1.1236 1.606-.5866.394-1.3191.591-2.1974.591zm-1.9191-4.688h3.5895c-.0066-.524-.1707-.953-.4922-1.288-.3181-.338-.7341-.507-1.2478-.507-.5237 0-.9562.174-1.2976.522-.3381.345-.522.769-.5519 1.273zm10.6504-3.097v1.392h-1.5064v3.947c0 .335.0713.567.2138.696.1459.126.3464.189.6016.189.1657 0 .3414-.023.527-.07l.3032 1.407c-.3248.11-.6778.169-1.0589.179-.706.02-1.281-.152-1.7252-.517-.4441-.364-.6645-.893-.6612-1.586v-4.245h-1.0838v-1.392h1.0838v-1.83h1.7997v1.83zm1.5052 7.636v-7.636h1.745v1.272h.08c.135-.437.372-.777.71-1.019.339-.242.73-.363 1.174-.363.248 0 .464.017.646.05v1.656c-.215-.07-.494-.105-.835-.105-.497 0-.908.156-1.233.467-.325.309-.487.705-.487 1.189v4.489zm5.551 0v-7.636h1.799v7.636zm.905-8.72c-.289 0-.536-.095-.741-.284-.202-.192-.303-.422-.303-.691 0-.271.101-.502.303-.691.205-.192.452-.288.741-.288.285 0 .528.096.73.288.206.189.309.42.309.691 0 .269-.103.499-.309.691-.202.189-.445.284-.73.284zm6.076 8.869c-.746 0-1.397-.167-1.954-.502s-.981-.799-1.272-1.392c-.289-.593-.433-1.274-.433-2.043 0-.773.148-1.457.442-2.054.295-.596.72-1.06 1.273-1.392.554-.334 1.198-.502 1.934-.502.932 0 1.695.25 2.292.751.597.5.926 1.165.989 1.994h-1.72c-.073-.385-.243-.697-.512-.935-.265-.239-.606-.358-1.024-.358-.56 0-1.009.22-1.347.661-.335.441-.502 1.043-.502 1.805 0 .775.165 1.387.497 1.834.335.444.785.667 1.352.667.398 0 .734-.113 1.009-.339.275-.228.451-.546.527-.954h1.72c-.066.825-.392 1.491-.979 1.998-.583.508-1.347.761-2.292.761zm6.947.005c-.494 0-.932-.084-1.313-.253-.378-.173-.679-.435-.905-.786-.225-.351-.338-.771-.338-1.258 0-.331.055-.626.164-.885.11-.258.251-.469.423-.631.176-.162.394-.3.656-.413.262-.116.522-.2.781-.253.258-.057.55-.103.875-.139.736-.08 1.188-.14 1.357-.179.282-.067.451-.178.507-.334.017-.049.025-.107.025-.174v-.029c0-.378-.111-.668-.333-.87-.222-.206-.542-.309-.96-.309-.414 0-.755.091-1.024.274-.265.182-.446.414-.542.696l-1.68-.239c.195-.683.578-1.205 1.148-1.566.574-.361 1.27-.542 2.088-.542.309 0 .604.027.885.08.282.049.56.139.836.268.275.126.512.287.71.482.203.193.365.443.488.751.122.308.184.656.184 1.044v5.111h-1.73v-1.049h-.06c-.179.351-.458.64-.835.865-.378.225-.847.338-1.407.338zm.467-1.322c.527 0 .953-.153 1.278-.458.328-.305.492-.676.492-1.113v-.9c-.146.119-.696.243-1.651.373-.938.132-1.407.497-1.407 1.093 0 .322.118.57.353.746.236.173.547.259.935.259z" fill="#fff"/><path d="m0 345c0-4.418 3.58172-8 8-8h129c4.418 0 8 3.582 8 8v26c0 4.418-3.582 8-8 8h-129c-4.41827 0-8-3.582-8-8z" fill="#0d2132"/><path d="m22.8253 356.07c-.1657-.547-.4541-.973-.8651-1.278s-.9197-.457-1.5263-.457c-.4109 0-.7904.079-1.1384.238-.3447.159-.643.388-.8949.686-.2519.295-.4491.668-.5917 1.119-.1392.451-.2088.958-.2088 1.521 0 1.134.2602 2.015.7806 2.645.5237.626 1.2213.94 2.093.94.7656 0 1.3738-.214 1.8246-.642.4541-.427.6894-1.004.706-1.73h-2.3466v-1.442h4.1314v1.223c0 .859-.1856 1.611-.5569 2.258-.3712.646-.8832 1.14-1.5362 1.481-.6496.338-1.3937.507-2.2322.507-.9314 0-1.7533-.209-2.4659-.626-.7093-.421-1.2628-1.028-1.6605-1.82-.3945-.792-.5917-1.717-.5917-2.774 0-.646.0763-1.248.2287-1.805.1525-.556.3679-1.044.6463-1.461.2784-.418.6099-.774.9944-1.069.3844-.298.8136-.524 1.2876-.676.474-.153.9761-.229 1.5064-.229.7424 0 1.4219.144 2.0383.433.6165.285 1.1203.684 1.5114 1.198.3944.513.643 1.1.7457 1.76zm8.9327 6.592c-.5535.325-1.1982.487-1.934.487s-1.3821-.162-1.9389-.487c-.5535-.328-.9794-.789-1.2777-1.382-.295-.597-.4424-1.286-.4424-2.068 0-.783.1474-1.472.4424-2.069.2983-.596.7242-1.058 1.2777-1.387.5568-.328 1.2031-.492 1.9389-.492s1.3805.164 1.934.492c.5568.329.9827.791 1.2777 1.387.2983.597.4474 1.286.4474 2.069 0 .782-.1491 1.471-.4474 2.068-.295.593-.7209 1.054-1.2777 1.382zm-1.924-.955c.3944 0 .7308-.112 1.0092-.338.2784-.225.4839-.522.6165-.89.1326-.371.1989-.795.1989-1.272 0-.478-.0663-.902-.1989-1.273-.1293-.371-.3348-.671-.6165-.9-.2784-.229-.6148-.343-1.0092-.343-.3016 0-.5717.066-.8104.199-.2353.129-.4275.308-.5767.537-.1491.229-.2635.494-.343.795-.0763.302-.1144.63-.1144.985 0 .477.0663.901.1989 1.272.1326.368.3397.665.6214.89.2818.226.6231.338 1.0242.338zm10.4416.955c-.5535.325-1.1982.487-1.934.487s-1.3821-.162-1.9389-.487c-.5535-.328-.9794-.789-1.2777-1.382-.295-.597-.4425-1.286-.4425-2.068 0-.783.1475-1.472.4425-2.069.2983-.596.7242-1.058 1.2777-1.387.5568-.328 1.2031-.492 1.9389-.492s1.3805.164 1.934.492c.5568.329.9827.791 1.2777 1.387.2983.597.4474 1.286.4474 2.069 0 .782-.1491 1.471-.4474 2.068-.295.593-.7209 1.054-1.2777 1.382zm-1.924-.955c.3944 0 .7308-.112 1.0092-.338.2784-.225.4839-.522.6165-.89.1325-.371.1988-.795.1988-1.272 0-.478-.0663-.902-.1988-1.273-.1293-.371-.3348-.671-.6165-.9-.2784-.229-.6148-.343-1.0092-.343-.3016 0-.5718.066-.8104.199-.2353.129-.4276.308-.5767.537-.1492.229-.2635.494-.3431.795-.0762.302-.1143.63-.1143.985 0 .477.0663.901.1989 1.272.1325.368.3397.665.6214.89.2817.226.6231.338 1.0242.338zm8.4977 4.286c-.9214 0-1.6705-.177-2.2472-.532-.5734-.355-.9479-.81-1.1236-1.367l1.6208-.393c.3248.62.918.93 1.7798.93.5402 0 .9694-.13 1.2876-.388.3215-.255.4823-.645.4823-1.168v-1.447h-.0895c-.0796.159-.174.306-.2834.442-.1094.133-.2502.265-.4226.398-.1723.129-.3861.232-.6413.308-.2552.077-.5386.115-.8502.115-.4441 0-.8567-.078-1.2379-.234-.3778-.159-.7093-.389-.9943-.691-.285-.305-.5088-.698-.6712-1.178-.1624-.481-.2436-1.025-.2436-1.631 0-.613.0812-1.167.2436-1.661.1624-.497.3862-.906.6712-1.228.285-.324.6181-.573.9993-.745.3811-.173.7938-.259 1.2379-.259 1.0109 0 1.7417.454 2.1925 1.362h.0994v-1.262h1.7749v7.76c0 .471-.0895.89-.2685 1.258s-.4292.668-.7507.9-.6993.408-1.1335.527c-.4342.123-.9115.184-1.4318.184zm.0149-4.514c.57 0 1.0109-.206 1.3224-.617.3149-.411.4723-.983.4723-1.715 0-.736-.1574-1.321-.4723-1.755-.3115-.434-.7524-.651-1.3224-.651-.58 0-1.0275.222-1.3424.666-.3148.441-.4723 1.021-.4723 1.74s.1558 1.288.4674 1.705c.3148.418.7639.627 1.3473.627zm7.2137-8.661v10.182h-1.7997v-10.182zm5.2314 10.331c-1.1468 0-2.0516-.353-2.7145-1.059s-.9943-1.66-.9943-2.863c0-.779.1475-1.469.4425-2.069.2983-.6.7208-1.065 1.2677-1.397.5502-.331 1.1849-.497 1.9041-.497.4806 0 .9264.078 1.3374.234.4143.152.7839.381 1.1087.686s.58.709.7656 1.213c.1856.5.2784 1.076.2784 1.725v.552h-5.3196c.0066.646.1856 1.153.5369 1.521.3547.368.8253.552 1.412.552.3944 0 .7324-.084 1.0142-.253.2817-.169.4822-.413.6015-.731l1.6804.189c-.1624.673-.5369 1.208-1.1236 1.606-.5866.394-1.3191.591-2.1974.591zm-1.919-4.688h3.5895c-.0067-.524-.1707-.953-.4922-1.288-.3182-.338-.7342-.507-1.2479-.507-.5237 0-.9562.174-1.2976.522-.3381.345-.522.769-.5518 1.273zm11.6969 4.539h-1.9688l3.5845-10.182h2.277l3.5895 10.182h-1.9687l-.8452-2.511h-3.8281zm1.3373-3.992h2.8338l-1.3771-4.102h-.0795zm9.2062-.482v4.474h-1.7997v-7.636h1.7201v1.297h.0895c.179-.437.4624-.779.8502-1.024.3911-.249.8667-.373 1.4268-.373.7988 0 1.4351.254 1.9091.761s.7093 1.211.706 2.113v4.862h-1.7997v-4.584c0-.51-.1326-.91-.3978-1.198-.2618-.288-.6247-.432-1.0888-.432-.4839 0-.875.154-1.1732.462-.295.308-.4425.734-.4425 1.278zm8.929 4.628c-.4939 0-.9314-.084-1.3125-.253-.3779-.173-.6795-.435-.9049-.786-.2253-.351-.338-.771-.338-1.258 0-.331.0546-.626.164-.885.1094-.258.2503-.469.4226-.631.1757-.162.3944-.3.6563-.413.2618-.116.522-.2.7805-.253.2585-.057.5502-.103.875-.139.7358-.08 1.1882-.14 1.3572-.179.2818-.067.4508-.178.5071-.334.0166-.049.0249-.107.0249-.174v-.029c0-.378-.111-.668-.3331-.87-.2221-.206-.5419-.309-.9595-.309-.4143 0-.7557.091-1.0242.274-.2651.182-.4457.414-.5419.696l-1.6804-.239c.1956-.683.5784-1.205 1.1485-1.566.5734-.361 1.2694-.542 2.088-.542.3083 0 .6033.027.885.08.2817.049.5601.139.8352.268.2751.126.5121.287.711.482.2021.193.3645.443.4872.751.1226.308.1839.656.1839 1.044v5.111h-1.7301v-1.049h-.0597c-.1789.351-.4573.64-.8352.865-.3778.225-.8468.338-1.4069.338zm.4673-1.322c.527 0 .9529-.153 1.2777-.458.3281-.305.4922-.676.4922-1.113v-.9c-.1459.119-.696.243-1.6506.373-.938.132-1.407.497-1.407 1.093 0 .322.1177.57.353.746.2354.173.5469.259.9347.259zm7.174-9.014v10.182h-1.7997v-10.182zm2.9693 13.031c-.4806 0-.8717-.065-1.1733-.194l.4176-1.397c.2651.073.4988.109.701.109s.3811-.064.5369-.194c.1591-.126.295-.326.4075-.601l.154-.413-2.7689-7.795h1.9091l1.7598 5.767h.08l1.765-5.767 1.924.01-3.068 8.551c-.464 1.282-1.345 1.924-2.6447 1.924zm10.7747-10.485v1.392h-1.506v3.947c0 .335.071.567.213.696.146.126.347.189.602.189.166 0 .341-.023.527-.07l.303 1.407c-.325.11-.678.169-1.059.179-.706.02-1.281-.152-1.725-.517-.444-.364-.664-.893-.661-1.586v-4.245h-1.084v-1.392h1.084v-1.83h1.8v1.83zm1.505 7.636v-7.636h1.8v7.636zm.905-8.72c-.288 0-.535-.095-.741-.284-.202-.192-.303-.422-.303-.691 0-.271.101-.502.303-.691.206-.192.453-.288.741-.288.285 0 .529.096.731.288.205.189.308.42.308.691 0 .269-.103.499-.308.691-.202.189-.446.284-.731.284zm6.076 8.869c-.745 0-1.397-.167-1.953-.502-.557-.335-.981-.799-1.273-1.392-.288-.593-.433-1.274-.433-2.043 0-.773.148-1.457.443-2.054.295-.596.719-1.06 1.273-1.392.553-.334 1.198-.502 1.934-.502.931 0 1.695.25 2.291.751.597.5.927 1.165.99 1.994h-1.72c-.073-.385-.244-.697-.512-.935-.266-.239-.607-.358-1.025-.358-.56 0-1.009.22-1.347.661-.335.441-.502 1.043-.502 1.805 0 .775.166 1.387.497 1.834.335.444.786.667 1.352.667.398 0 .735-.113 1.01-.339.275-.228.45-.546.527-.954h1.72c-.067.825-.393 1.491-.98 1.998-.583.508-1.347.761-2.292.761zm10.785-5.767-1.641.179c-.076-.275-.233-.502-.472-.681-.235-.182-.547-.273-.934-.273-.378 0-.693.082-.945.248-.252.163-.376.371-.373.627-.003.222.08.404.249.546.169.14.445.252.83.338l1.302.279c.723.156 1.26.404 1.611.746.355.338.534.779.537 1.322-.003.723-.308 1.309-.915 1.76-.606.451-1.388.676-2.346.676-.932 0-1.682-.195-2.252-.587-.57-.391-.912-.939-1.024-1.645l1.754-.169c.077.341.244.601.503.78.261.176.6.264 1.014.264.421 0 .762-.086 1.024-.259.265-.172.398-.391.398-.656 0-.427-.343-.717-1.029-.87l-1.303-.273c-1.438-.299-2.154-1.016-2.148-2.153 0-.464.128-.872.383-1.223.259-.351.622-.621 1.089-.81s1.006-.284 1.616-.284c.875 0 1.574.187 2.098.562.523.375.848.893.974 1.556z" fill="#fff"/><path d="m303 140c0-4.418 3.582-8 8-8h129c4.418 0 8 3.582 8 8v26c0 4.418-3.582 8-8 8h-129c-4.418 0-8-3.582-8-8z" fill="#d3eaff"/><path d="m320.849 147.818v10.182h-1.845v-10.182zm3.717 5.708v4.474h-1.799v-7.636h1.72v1.297h.089c.179-.437.463-.779.85-1.024.391-.249.867-.373 1.427-.373.799 0 1.435.254 1.909.761s.71 1.211.706 2.113v4.862h-1.799v-4.584c0-.51-.133-.91-.398-1.198-.262-.288-.625-.432-1.089-.432-.484 0-.875.154-1.173.462-.295.308-.443.734-.443 1.278zm12.375 4.474v1.437h-6.578v-1.437zm3.103.154c-.494 0-.931-.084-1.312-.253-.378-.173-.68-.435-.905-.786-.226-.351-.338-.771-.338-1.258 0-.331.054-.626.164-.885.109-.258.25-.469.422-.631.176-.162.395-.3.657-.413.261-.116.522-.2.78-.253.259-.057.55-.103.875-.139.736-.08 1.188-.14 1.357-.179.282-.067.451-.178.507-.334.017-.049.025-.107.025-.174v-.029c0-.378-.111-.668-.333-.87-.222-.206-.542-.309-.959-.309-.415 0-.756.091-1.024.274-.266.182-.446.414-.542.696l-1.681-.239c.196-.683.579-1.205 1.149-1.566.573-.361 1.269-.542 2.088-.542.308 0 .603.027.885.08.281.049.56.139.835.268.275.126.512.287.711.482.202.193.364.443.487.751s.184.656.184 1.044v5.111h-1.73v-1.049h-.06c-.179.351-.457.64-.835.865s-.847.338-1.407.338zm.467-1.322c.527 0 .953-.153 1.278-.458.328-.305.492-.676.492-1.113v-.9c-.146.119-.696.243-1.65.373-.938.132-1.407.497-1.407 1.093 0 .322.117.57.353.746.235.173.547.259.934.259zm5.375 4.032v-10.5h1.77v1.262h.104c.451-.908 1.178-1.362 2.182-1.362.445 0 .857.086 1.238.259.382.172.715.421 1 .745.285.325.508.74.671 1.243.162.501.243 1.061.243 1.681 0 .616-.079 1.175-.238 1.675-.159.501-.38.915-.661 1.243-.282.328-.615.582-1 .761-.381.175-.797.263-1.248.263-1.004 0-1.733-.446-2.187-1.337h-.075v4.067zm2.232-8.467c-.312.438-.467 1.032-.467 1.785 0 .752.157 1.354.472 1.805.315.447.756.671 1.322.671.577 0 1.023-.227 1.338-.681.318-.458.477-1.056.477-1.795 0-.481-.068-.902-.204-1.263-.132-.365-.336-.651-.611-.86-.275-.212-.609-.318-1-.318-.57 0-1.012.219-1.327.656zm6.518 8.467v-10.5h1.77v1.262h.104c.451-.908 1.178-1.362 2.182-1.362.445 0 .857.086 1.238.259.382.172.715.421 1 .745.285.325.508.74.671 1.243.162.501.243 1.061.243 1.681 0 .616-.079 1.175-.238 1.675-.159.501-.38.915-.661 1.243-.282.328-.615.582-1 .761-.381.175-.797.263-1.248.263-1.004 0-1.733-.446-2.187-1.337h-.075v4.067zm2.232-8.467c-.312.438-.467 1.032-.467 1.785 0 .752.157 1.354.472 1.805.315.447.756.671 1.322.671.577 0 1.023-.227 1.338-.681.318-.458.477-1.056.477-1.795 0-.481-.068-.902-.204-1.263-.132-.365-.336-.651-.611-.86-.275-.212-.609-.318-1-.318-.57 0-1.012.219-1.327.656zm12.16 5.603v1.437h-6.577v-1.437zm1.549 2.864v-10.5h1.77v1.262h.104c.451-.908 1.179-1.362 2.183-1.362.444 0 .857.086 1.238.259.381.172.714.421.999.745.285.325.509.74.671 1.243.163.501.244 1.061.244 1.681 0 .616-.08 1.175-.239 1.675-.159.501-.379.915-.661 1.243s-.615.582-.999.761c-.381.175-.797.263-1.248.263-1.004 0-1.734-.446-2.188-1.337h-.074v4.067zm2.232-8.467c-.311.438-.467 1.032-.467 1.785 0 .752.157 1.354.472 1.805.315.447.756.671 1.323.671.576 0 1.022-.227 1.337-.681.318-.458.477-1.056.477-1.795 0-.481-.068-.902-.203-1.263-.133-.365-.337-.651-.612-.86-.275-.212-.608-.318-.999-.318-.57 0-1.013.219-1.328.656zm11.385 2.391v-4.424h1.8v7.636h-1.745v-1.357h-.08c-.179.444-.469.799-.87 1.064-.397.262-.873.392-1.426.392-.766 0-1.383-.253-1.85-.76-.464-.507-.696-1.212-.696-2.113v-4.862h1.8v4.583c0 .484.131.869.393 1.154.265.285.614.427 1.049.427.202 0 .397-.036.586-.109.192-.076.366-.184.522-.323s.28-.322.373-.547c.096-.229.144-.482.144-.761zm3.651 3.212v-7.636h1.745v1.272h.079c.136-.437.373-.777.711-1.019s.729-.363 1.173-.363c.249 0 .464.017.647.05v1.656c-.216-.07-.494-.105-.835-.105-.498 0-.909.156-1.233.467-.325.309-.488.705-.488 1.189v4.489zm8.567.149c-.746 0-1.397-.167-1.954-.502s-.981-.799-1.273-1.392c-.288-.593-.432-1.274-.432-2.043 0-.773.147-1.457.442-2.054.295-.596.72-1.06 1.273-1.392.554-.334 1.198-.502 1.934-.502.931 0 1.695.25 2.292.751.596.5.926 1.165.989 1.994h-1.72c-.073-.385-.244-.697-.512-.935-.265-.239-.607-.358-1.024-.358-.56 0-1.009.22-1.347.661-.335.441-.503 1.043-.503 1.805 0 .775.166 1.387.498 1.834.334.444.785.667 1.352.667.398 0 .734-.113 1.009-.339.275-.228.451-.546.527-.954h1.72c-.066.825-.393 1.491-.979 1.998-.583.508-1.347.761-2.292.761zm6.549-4.623v4.474h-1.8v-10.182h1.76v3.843h.089c.183-.444.463-.787.841-1.029.381-.245.858-.368 1.431-.368.806 0 1.446.252 1.92.756.473.504.71 1.21.71 2.118v4.862h-1.799v-4.584c0-.514-.133-.913-.398-1.198-.262-.288-.63-.432-1.104-.432-.494 0-.893.155-1.198.467-.301.308-.452.732-.452 1.273zm8.983 4.628c-.493 0-.931-.084-1.312-.253-.378-.173-.68-.435-.905-.786s-.338-.771-.338-1.258c0-.331.055-.626.164-.885.109-.258.25-.469.423-.631.175-.162.394-.3.656-.413.262-.116.522-.2.78-.253.259-.057.551-.103.875-.139.736-.08 1.189-.14 1.358-.179.281-.067.45-.178.507-.334.016-.049.025-.107.025-.174v-.029c0-.378-.111-.668-.333-.87-.222-.206-.542-.309-.96-.309-.414 0-.756.091-1.024.274-.265.182-.446.414-.542.696l-1.68-.239c.195-.683.578-1.205 1.148-1.566.573-.361 1.269-.542 2.088-.542.308 0 .603.027.885.08.282.049.56.139.835.268.275.126.512.287.711.482.202.193.365.443.487.751.123.308.184.656.184 1.044v5.111h-1.73v-1.049h-.059c-.179.351-.458.64-.836.865-.377.225-.846.338-1.407.338zm.468-1.322c.527 0 .953-.153 1.277-.458.329-.305.493-.676.493-1.113v-.9c-.146.119-.696.243-1.651.373-.938.132-1.407.497-1.407 1.093 0 .322.118.57.353.746.235.173.547.259.935.259zm11.41-4.45-1.641.179c-.076-.275-.234-.502-.472-.681-.236-.182-.547-.273-.935-.273-.378 0-.693.082-.945.248-.252.163-.376.371-.373.627-.003.222.08.404.249.546.169.14.446.252.83.338l1.303.279c.722.156 1.259.404 1.611.746.354.338.533.779.537 1.322-.004.723-.309 1.309-.915 1.76-.607.451-1.389.676-2.347.676-.931 0-1.682-.195-2.252-.587-.57-.391-.911-.939-1.024-1.645l1.755-.169c.076.341.244.601.502.78.262.176.6.264 1.014.264.421 0 .763-.086 1.024-.259.266-.172.398-.391.398-.656 0-.427-.343-.717-1.029-.87l-1.303-.273c-1.438-.299-2.154-1.016-2.147-2.153 0-.464.127-.872.383-1.223.258-.351.621-.621 1.088-.81.468-.189 1.006-.284 1.616-.284.875 0 1.574.187 2.098.562s.849.893.975 1.556zm5.028 5.767c-1.146 0-2.051-.353-2.714-1.059s-.994-1.66-.994-2.863c0-.779.147-1.469.442-2.069.298-.6.721-1.065 1.268-1.397.55-.331 1.185-.497 1.904-.497.48 0 .926.078 1.337.234.415.152.784.381 1.109.686s.58.709.766 1.213c.185.5.278 1.076.278 1.725v.552h-5.32c.007.646.186 1.153.537 1.521.355.368.826.552 1.412.552.395 0 .733-.084 1.014-.253.282-.169.483-.413.602-.731l1.68.189c-.162.673-.537 1.208-1.123 1.606-.587.394-1.319.591-2.198.591zm-1.919-4.688h3.59c-.007-.524-.171-.953-.492-1.288-.319-.338-.735-.507-1.248-.507-.524 0-.956.174-1.298.522-.338.345-.522.769-.552 1.273z" fill="#000"/><path d="m303 222c0-4.418 3.582-8 8-8h129c4.418 0 8 3.582 8 8v26c0 4.418-3.582 8-8 8h-129c-4.418 0-8-3.582-8-8z" fill="#d3eaff"/><path d="m329.538 232.617c-.047-.431-.241-.767-.582-1.009-.341-.245-.787-.368-1.337-.368-.567 0-1.016.124-1.348.373-.328.245-.494.563-.497.954-.003.203.043.385.139.547.1.159.239.294.418.403s.36.199.542.269c.182.066.393.127.631.183l.955.239c.325.076.625.167.9.274.278.106.548.241.81.407.265.166.489.353.671.562.182.205.33.454.443.746.112.288.169.603.169.944-.004.912-.348 1.643-1.034 2.193-.683.547-1.626.82-2.829.82-1.197 0-2.146-.275-2.849-.825-.699-.554-1.067-1.333-1.104-2.337h1.815c.036.517.249.912.636 1.183.388.269.884.403 1.487.403s1.092-.132 1.466-.398c.375-.268.564-.619.567-1.054 0-.255-.081-.474-.243-.656-.159-.185-.363-.331-.612-.437-.248-.11-.573-.216-.974-.319l-1.159-.298c-1.809-.467-2.714-1.379-2.714-2.734 0-.59.162-1.114.487-1.571.325-.461.771-.814 1.337-1.059.567-.249 1.205-.373 1.914-.373.713 0 1.346.126 1.9.378.553.248.984.595 1.292 1.039s.468.951.477 1.521zm6.809 7.532c-.745 0-1.397-.167-1.953-.502-.557-.335-.981-.799-1.273-1.392-.288-.593-.433-1.274-.433-2.043 0-.773.148-1.457.443-2.054.295-.596.719-1.06 1.273-1.392.553-.334 1.198-.502 1.934-.502.931 0 1.695.25 2.291.751.597.5.927 1.165.99 1.994h-1.72c-.073-.385-.244-.697-.512-.935-.266-.239-.607-.358-1.025-.358-.56 0-1.009.22-1.347.661-.335.441-.502 1.043-.502 1.805 0 .775.166 1.387.497 1.834.335.444.786.667 1.352.667.398 0 .735-.113 1.01-.339.275-.228.45-.546.527-.954h1.72c-.067.825-.393 1.491-.98 1.998-.583.508-1.347.761-2.292.761zm4.75-.149v-7.636h1.745v1.272h.079c.136-.437.373-.777.711-1.019s.729-.363 1.173-.363c.249 0 .464.017.647.05v1.656c-.216-.07-.494-.105-.836-.105-.497 0-.908.156-1.232.467-.325.309-.488.705-.488 1.189v4.489zm8.617.149c-1.147 0-2.052-.353-2.715-1.059s-.994-1.66-.994-2.863c0-.779.147-1.469.442-2.069.299-.6.721-1.065 1.268-1.397.55-.331 1.185-.497 1.904-.497.481 0 .927.078 1.337.234.415.152.784.381 1.109.686s.58.709.766 1.213c.185.5.278 1.076.278 1.725v.552h-5.319c.006.646.185 1.153.537 1.521.354.368.825.552 1.411.552.395 0 .733-.084 1.015-.253.281-.169.482-.413.601-.731l1.681.189c-.163.673-.537 1.208-1.124 1.606-.587.394-1.319.591-2.197.591zm-1.919-4.688h3.589c-.007-.524-.171-.953-.492-1.288-.318-.338-.734-.507-1.248-.507-.524 0-.956.174-1.298.522-.338.345-.522.769-.551 1.273zm10.217 4.688c-1.146 0-2.051-.353-2.714-1.059s-.994-1.66-.994-2.863c0-.779.147-1.469.442-2.069.298-.6.721-1.065 1.268-1.397.55-.331 1.185-.497 1.904-.497.481 0 .926.078 1.337.234.415.152.784.381 1.109.686s.58.709.766 1.213c.185.5.278 1.076.278 1.725v.552h-5.32c.007.646.186 1.153.537 1.521.355.368.826.552 1.412.552.395 0 .733-.084 1.014-.253.282-.169.483-.413.602-.731l1.68.189c-.162.673-.536 1.208-1.123 1.606-.587.394-1.319.591-2.198.591zm-1.919-4.688h3.59c-.007-.524-.171-.953-.492-1.288-.318-.338-.734-.507-1.248-.507-.524 0-.956.174-1.298.522-.338.345-.522.769-.552 1.273zm8.637.065v4.474h-1.799v-7.636h1.72v1.297h.089c.179-.437.463-.779.85-1.024.391-.249.867-.373 1.427-.373.799 0 1.435.254 1.909.761s.71 1.211.706 2.113v4.862h-1.799v-4.584c0-.51-.133-.91-.398-1.198-.262-.288-.625-.432-1.089-.432-.484 0-.875.154-1.173.462-.295.308-.443.734-.443 1.278zm12.375 4.474v1.437h-6.578v-1.437zm6.619-7.636-2.719 7.636h-1.989l-2.719-7.636h1.919l1.755 5.672h.079l1.76-5.672zm4.367 7.785c-1.147 0-2.052-.353-2.715-1.059s-.994-1.66-.994-2.863c0-.779.147-1.469.442-2.069.299-.6.721-1.065 1.268-1.397.55-.331 1.185-.497 1.904-.497.481 0 .926.078 1.337.234.415.152.784.381 1.109.686s.58.709.766 1.213c.185.5.278 1.076.278 1.725v.552h-5.319c.006.646.185 1.153.536 1.521.355.368.826.552 1.412.552.395 0 .733-.084 1.015-.253.281-.169.482-.413.601-.731l1.681.189c-.163.673-.537 1.208-1.124 1.606-.587.394-1.319.591-2.197.591zm-1.919-4.688h3.589c-.007-.524-.171-.953-.492-1.288-.318-.338-.734-.507-1.248-.507-.524 0-.956.174-1.298.522-.338.345-.522.769-.551 1.273zm6.837 4.539v-7.636h1.745v1.272h.079c.136-.437.373-.777.711-1.019s.729-.363 1.174-.363c.248 0 .464.017.646.05v1.656c-.216-.07-.494-.105-.835-.105-.498 0-.909.156-1.233.467-.325.309-.488.705-.488 1.189v4.489zm11.586-5.618-1.641.179c-.076-.275-.233-.502-.472-.681-.235-.182-.547-.273-.935-.273-.377 0-.692.082-.944.248-.252.163-.376.371-.373.627-.003.222.079.404.249.546.169.14.445.252.83.338l1.302.279c.723.156 1.26.404 1.611.746.355.338.534.779.537 1.322-.003.723-.308 1.309-.915 1.76-.606.451-1.388.676-2.346.676-.932 0-1.682-.195-2.252-.587-.571-.391-.912-.939-1.025-1.645l1.755-.169c.077.341.244.601.503.78.261.176.599.264 1.014.264.421 0 .762-.086 1.024-.259.265-.172.398-.391.398-.656 0-.427-.343-.717-1.03-.87l-1.302-.273c-1.439-.299-2.154-1.016-2.148-2.153 0-.464.128-.872.383-1.223.259-.351.621-.621 1.089-.81.467-.189 1.006-.284 1.616-.284.875 0 1.574.187 2.098.562.523.375.848.893.974 1.556zm1.648 5.618v-7.636h1.8v7.636zm.905-8.72c-.288 0-.535-.095-.741-.284-.202-.192-.303-.422-.303-.691 0-.271.101-.502.303-.691.206-.192.453-.288.741-.288.285 0 .529.096.731.288.205.189.308.42.308.691 0 .269-.103.499-.308.691-.202.189-.446.284-.731.284zm8.01 8.382c-.553.325-1.198.487-1.934.487-.735 0-1.382-.162-1.938-.487-.554-.328-.98-.789-1.278-1.382-.295-.597-.443-1.286-.443-2.068 0-.783.148-1.472.443-2.069.298-.596.724-1.058 1.278-1.387.556-.328 1.203-.492 1.938-.492.736 0 1.381.164 1.934.492.557.329.983.791 1.278 1.387.298.597.448 1.286.448 2.069 0 .782-.15 1.471-.448 2.068-.295.593-.721 1.054-1.278 1.382zm-1.924-.955c.395 0 .731-.112 1.01-.338.278-.225.484-.522.616-.89.133-.371.199-.795.199-1.272 0-.478-.066-.902-.199-1.273-.129-.371-.335-.671-.616-.9-.279-.229-.615-.343-1.01-.343-.301 0-.571.066-.81.199-.235.129-.428.308-.577.537s-.263.494-.343.795c-.076.302-.114.63-.114.985 0 .477.066.901.199 1.272.132.368.34.665.621.89.282.226.623.338 1.024.338zm6.977-3.181v4.474h-1.8v-7.636h1.72v1.297h.09c.179-.437.462-.779.85-1.024.391-.249.867-.373 1.427-.373.798 0 1.435.254 1.909.761s.709 1.211.706 2.113v4.862h-1.8v-4.584c0-.51-.133-.91-.398-1.198-.262-.288-.624-.432-1.088-.432-.484 0-.875.154-1.174.462-.295.308-.442.734-.442 1.278z" fill="#000"/><rect fill="#0085ff" height="71" rx="8" width="229" x="538" y="154"/><rect height="81" rx="13" stroke="#0085ff" stroke-opacity=".12" stroke-width="10" width="239" x="533" y="149"/><rect height="101" rx="23" stroke="#0085ff" stroke-opacity=".06" stroke-width="10" width="259" x="523" y="139"/><path d="m596.335 189.909c0 2.276-.362 4.308-1.086 6.098-.725 1.781-1.743 3.26-3.056 4.436l3.746 4.705h-5.165l-2.109-2.595c-1.406.536-2.936.805-4.59.805-1.747 0-3.366-.303-4.858-.908-1.491-.613-2.787-1.483-3.886-2.608s-1.96-2.539-2.582-4.244c-.623-1.705-.934-3.601-.934-5.689 0-2.097.311-3.997.934-5.702.622-1.704 1.483-3.119 2.582-4.244s2.395-1.99 3.886-2.595c1.492-.605 3.111-.908 4.858-.908 1.739 0 3.354.303 4.845.908 1.492.605 2.787 1.47 3.887 2.595 1.099 1.125 1.96 2.54 2.582 4.244.631 1.705.946 3.605.946 5.702zm-14.177 3.989h4.704l1.943 2.493c1.279-1.517 1.918-3.678 1.918-6.482 0-2.727-.597-4.832-1.79-6.315-1.193-1.492-2.812-2.237-4.858-2.237-2.045 0-3.664.745-4.858 2.237-1.193 1.483-1.789 3.588-1.789 6.315s.596 4.837 1.789 6.328c1.194 1.483 2.813 2.225 4.858 2.225.486 0 .963-.047 1.432-.141zm32.187 8.22c-1.466.844-3.179 1.266-5.139 1.266-1.961 0-3.674-.422-5.14-1.266s-2.586-2.029-3.362-3.554c-.775-1.534-1.163-3.303-1.163-5.305 0-3.06.869-5.515 2.608-7.364 1.747-1.858 4.099-2.787 7.057-2.787 2.957 0 5.305.929 7.044 2.787 1.747 1.849 2.62 4.304 2.62 7.364 0 2.002-.387 3.771-1.163 5.305-.776 1.525-1.896 2.71-3.362 3.554zm-5.114-2.953c1.313 0 2.323-.546 3.03-1.637.716-1.099 1.074-2.535 1.074-4.308s-.358-3.209-1.074-4.308c-.707-1.1-1.717-1.649-3.03-1.649-1.329 0-2.356.549-3.081 1.649-.716 1.091-1.074 2.527-1.074 4.308 0 1.773.358 3.209 1.074 4.308.725 1.091 1.752 1.637 3.081 1.637zm18.627-7.517v11.352h-5.446v-19.636h5.19v3.464h.23c.452-1.159 1.189-2.067 2.212-2.723 1.022-.665 2.254-.997 3.694-.997 2.054 0 3.695.665 4.922 1.994 1.236 1.321 1.854 3.12 1.854 5.395v12.503h-5.446v-11.531c.008-1.202-.298-2.139-.921-2.813-.622-.682-1.478-1.022-2.569-1.022-1.117 0-2.016.357-2.698 1.073-.673.716-1.014 1.696-1.022 2.941zm34.552-8.284-6.865 19.636h-6.137l-6.865-19.636h5.753l4.078 14.049h.205l4.065-14.049zm11.068 20.02c-3.017 0-5.395-.904-7.134-2.711-1.739-1.815-2.608-4.282-2.608-7.402 0-2.003.388-3.771 1.164-5.305.784-1.543 1.896-2.736 3.336-3.58 1.449-.852 3.124-1.278 5.024-1.278 1.313 0 2.523.213 3.631.639 1.116.418 2.092 1.031 2.928 1.841.835.801 1.487 1.845 1.956 3.132.477 1.279.715 2.732.715 4.36v1.495h-13.372v.013c0 1.457.401 2.612 1.202 3.465.801.843 1.883 1.265 3.247 1.265.921 0 1.709-.192 2.365-.575.665-.392 1.134-.959 1.406-1.7l5.037.332c-.392 1.841-1.372 3.303-2.94 4.385s-3.554 1.624-5.957 1.624zm-4.36-12.184h8.246c-.009-1.176-.388-2.139-1.138-2.889-.741-.758-1.7-1.138-2.876-1.138-1.185 0-2.174.388-2.966 1.164-.784.767-1.206 1.721-1.266 2.863zm16.926 11.8v-19.636h5.28v3.426h.205c.349-1.193.942-2.11 1.777-2.749s1.815-.959 2.94-.959c.605 0 1.176.064 1.713.192v4.833c-.605-.196-1.372-.295-2.301-.295-1.21 0-2.207.38-2.991 1.138-.785.759-1.177 1.739-1.177 2.941v11.109zm26.16-19.636v4.091h-3.695v9.511c0 .707.158 1.206.473 1.496.316.281.772.422 1.368.422.273 0 .725-.06 1.355-.179l.857 4.052c-.929.307-1.914.477-2.953.511-2.02.086-3.618-.353-4.794-1.316-1.177-.963-1.76-2.387-1.752-4.27v-10.227h-2.684v-4.091h2.684v-4.705h5.446v4.705zm6.91 26.961c-1.39 0-2.532-.183-3.426-.549l1.227-4.079c.673.214 1.248.324 1.726.333.477.008.912-.119 1.304-.384.4-.255.724-.673.971-1.253l.32-.831-7.044-20.198h5.727l4.065 14.42h.205l4.104-14.42 5.765.025-7.632 21.733c-1.21 3.469-3.648 5.203-7.312 5.203z" fill="#fff"/><path d="m850 167c0-4.418 3.582-8 8-8h129c4.418 0 8 3.582 8 8v50c0 4.418-3.582 8-8 8h-129c-4.418 0-8-3.582-8-8z" fill="#d3eaff"/><path d="m913.739 207.608v-2.565h-2.566v-2.228h2.566v-2.565h2.227v2.565h2.565v2.228h-2.565v2.565zm11.636-8.79v10.182h-2.765v-7.636h-.059l-2.227 1.332v-2.347l2.505-1.531zm6.525 10.46c-1.396-.003-2.494-.477-3.296-1.421-.802-.948-1.202-2.258-1.198-3.928.003-1.107.185-2.055.546-2.844.365-.792.882-1.39 1.552-1.795.672-.407 1.471-.611 2.396-.611.689 0 1.312.118 1.869.353.557.232 1.029.57 1.417 1.014.388.441.686.991.895 1.651.209.659.313 1.403.313 2.232-.003 1.677-.406 2.99-1.208 3.937-.799.945-1.894 1.416-3.286 1.412zm-1.193-3.022c.295.517.692.775 1.193.775.5 0 .898-.258 1.193-.775.295-.521.441-1.296.438-2.327-.004-1.011-.151-1.767-.443-2.267-.292-.504-.688-.756-1.188-.756-.497 0-.893.252-1.188.756-.292.5-.44 1.256-.443 2.267-.003 1.031.143 1.806.438 2.327zm11.419 3.022c-1.395-.003-2.494-.477-3.296-1.421-.802-.948-1.201-2.258-1.198-3.928.003-1.107.186-2.055.547-2.844.365-.792.882-1.39 1.551-1.795.673-.407 1.472-.611 2.396-.611.69 0 1.313.118 1.87.353.557.232 1.029.57 1.417 1.014.387.441.686.991.895 1.651.208.659.313 1.403.313 2.232-.004 1.677-.406 2.99-1.208 3.937-.799.945-1.895 1.416-3.287 1.412zm-1.193-3.022c.295.517.693.775 1.193.775.501 0 .899-.258 1.194-.775.295-.521.44-1.296.437-2.327-.003-1.011-.151-1.767-.442-2.267-.292-.504-.688-.756-1.189-.756-.497 0-.893.252-1.188.756-.291.5-.439 1.256-.442 2.267-.004 1.031.142 1.806.437 2.327zm12.812.835v-.537c.003-.438.096-.835.278-1.193.183-.361.458-.653.826-.875.371-.226.805-.338 1.302-.338.385 0 .733.064 1.044.194.312.126.567.3.766.522.202.218.356.472.462.76.106.289.158.599.154.93v.537c.004.437-.087.837-.273 1.198-.182.358-.461.648-.835.87-.375.225-.814.338-1.318.338-.378 0-.721-.064-1.029-.194-.308-.129-.562-.305-.76-.527-.196-.222-.347-.475-.453-.76-.106-.289-.161-.597-.164-.925zm-5.33-5.827v-.537c.004-.444.098-.845.284-1.203.185-.361.462-.651.83-.87.371-.222.802-.333 1.293-.333.384 0 .732.065 1.044.194.311.126.567.3.765.522.203.219.357.472.463.761.106.288.157.598.154.929v.537c.003.444-.088.845-.274 1.203-.182.355-.46.642-.835.86-.374.216-.813.324-1.317.324-.378 0-.721-.063-1.029-.189-.309-.13-.562-.304-.761-.522-.196-.219-.346-.471-.452-.756-.107-.285-.161-.592-.165-.92zm.557 7.736 7-10.182h1.412l-7 10.182zm6.503-2.446v.537c.007.229.061.426.164.592.103.162.274.243.512.243.249 0 .425-.079.527-.238.106-.163.156-.362.149-.597v-.537c.004-.109-.005-.21-.024-.303-.017-.093-.049-.183-.095-.269-.046-.089-.118-.159-.214-.209-.092-.049-.207-.074-.343-.074-.238 0-.409.083-.512.248-.103.166-.157.368-.164.607zm-5.31-5.827v.537c.007.236.06.434.16.597.099.159.265.238.497.238.248 0 .424-.079.527-.238.106-.163.155-.361.149-.597v-.537c.003-.109-.005-.21-.025-.303-.017-.093-.048-.182-.094-.268-.047-.09-.118-.16-.214-.209-.093-.05-.207-.075-.343-.075-.421 0-.64.285-.657.855z" fill="#0085ff"/><g clip-path="url(#a)"><g fill="#ffa000"><path d="m899.125 204c-.207 0-.375-.168-.375-.375s.168-.375.375-.375c2.07-.003 3.747-1.68 3.75-3.75v-3h-3.375c-.207 0-.375-.168-.375-.375s.168-.375.375-.375h3.75c.207 0 .375.168.375.375v3.375c-.003 2.484-2.016 4.497-4.5 4.5z"/><path d="m890.875 204.001c-2.484-.003-4.497-2.016-4.5-4.5v-3.375c0-.207.168-.375.375-.375h3.75c.207 0 .375.168.375.375s-.168.375-.375.375h-3.375v3c.002 2.07 1.68 3.747 3.75 3.75.207 0 .375.168.375.375s-.168.375-.375.375z"/><path d="m897.345 209.946-.202-.207c-.786-.809-1.002-3.069-1.018-3.872-.004-.204-.171-.367-.375-.367h-1.5c-.204 0-.371.163-.375.367-.016.802-.232 3.061-1.019 3.871l-.201.207c-1.03 1.06-1.78 1.826-1.78 2.68 0 .207.168.375.375.375h7.5c.207 0 .375-.168.375-.375 0-.854-.75-1.62-1.78-2.679z"/></g><path d="m899.5 195h-9c-.207 0-.375.168-.375.375v6c.035 2.678 2.197 4.84 4.875 4.875 2.678-.035 4.84-2.197 4.875-4.875v-6c0-.207-.168-.375-.375-.375z" fill="#ffc107"/></g><path d="m867.719 178.254h-1.859c-.106-.6-.379-1.069-.82-1.407-.438-.342-.971-.512-1.601-.512-.852 0-1.538.314-2.058.944-.521.63-.781 1.507-.781 2.63 0 1.137.259 2.017.776 2.64.52.623 1.206.935 2.058.935.62 0 1.15-.164 1.591-.493.441-.328.719-.785.835-1.372l1.859.01c-.069.487-.222.945-.457 1.372-.232.425-.53.796-.895 1.114-.361.318-.797.568-1.307.751-.511.182-1.061.273-1.651.273-.669 0-1.289-.119-1.859-.358-.57-.238-1.064-.578-1.482-1.019-.414-.441-.739-.991-.974-1.65-.232-.663-.348-1.398-.348-2.203s.117-1.538.353-2.197c.238-.663.565-1.215.979-1.656.418-.441.91-.78 1.477-1.019.57-.239 1.188-.358 1.854-.358 1.147 0 2.113.318 2.899.955.785.633 1.256 1.506 1.411 2.62zm6.875 6.408c-.554.325-1.198.487-1.934.487s-1.382-.162-1.939-.487c-.553-.328-.979-.789-1.278-1.382-.295-.597-.442-1.286-.442-2.068 0-.783.147-1.472.442-2.069.299-.596.725-1.058 1.278-1.387.557-.328 1.203-.492 1.939-.492s1.38.164 1.934.492c.557.329.983.791 1.278 1.387.298.597.447 1.286.447 2.069 0 .782-.149 1.471-.447 2.068-.295.593-.721 1.054-1.278 1.382zm-1.924-.955c.394 0 .731-.112 1.009-.338.279-.225.484-.522.617-.89.132-.371.198-.795.198-1.272 0-.478-.066-.902-.198-1.273-.13-.371-.335-.671-.617-.9-.278-.229-.615-.343-1.009-.343-.302 0-.572.066-.81.199-.236.129-.428.308-.577.537s-.264.494-.343.795c-.076.302-.115.63-.115.985 0 .477.067.901.199 1.272.133.368.34.665.622.89.281.226.623.338 1.024.338zm6.976-3.181v4.474h-1.799v-7.636h1.72v1.297h.089c.179-.437.463-.779.85-1.024.391-.249.867-.373 1.427-.373.799 0 1.435.254 1.909.761s.71 1.211.706 2.113v4.862h-1.799v-4.584c0-.51-.133-.91-.398-1.198-.262-.288-.625-.432-1.089-.432-.484 0-.875.154-1.173.462-.295.308-.443.734-.443 1.278zm13.279-3.162-2.719 7.636h-1.989l-2.719-7.636h1.919l1.755 5.672h.079l1.76-5.672zm4.367 7.785c-1.147 0-2.052-.353-2.715-1.059s-.994-1.66-.994-2.863c0-.779.147-1.469.442-2.069.299-.6.721-1.065 1.268-1.397.55-.331 1.185-.497 1.904-.497.481 0 .927.078 1.338.234.414.152.783.381 1.108.686s.58.709.766 1.213c.186.5.278 1.076.278 1.725v.552h-5.319c.006.646.185 1.153.537 1.521.354.368.825.552 1.412.552.394 0 .732-.084 1.014-.253s.482-.413.601-.731l1.681.189c-.163.673-.537 1.208-1.124 1.606-.586.394-1.319.591-2.197.591zm-1.919-4.688h3.589c-.006-.524-.171-.953-.492-1.288-.318-.338-.734-.507-1.248-.507-.524 0-.956.174-1.297.522-.339.345-.522.769-.552 1.273zm6.837 4.539v-7.636h1.745v1.272h.079c.136-.437.373-.777.711-1.019s.73-.363 1.174-.363c.248 0 .464.017.646.05v1.656c-.215-.07-.494-.105-.835-.105-.497 0-.908.156-1.233.467-.325.309-.487.705-.487 1.189v4.489zm11.586-5.618-1.64.179c-.077-.275-.234-.502-.473-.681-.235-.182-.547-.273-.934-.273-.378 0-.693.082-.945.248-.252.163-.376.371-.373.627-.003.222.08.404.249.546.169.14.445.252.83.338l1.302.279c.723.156 1.26.404 1.611.746.355.338.534.779.537 1.322-.003.723-.308 1.309-.915 1.76-.606.451-1.388.676-2.346.676-.931 0-1.682-.195-2.252-.587-.57-.391-.912-.939-1.024-1.645l1.755-.169c.076.341.243.601.502.78.262.176.6.264 1.014.264.421 0 .762-.086 1.024-.259.265-.172.398-.391.398-.656 0-.427-.343-.717-1.029-.87l-1.303-.273c-1.438-.299-2.154-1.016-2.148-2.153 0-.464.128-.872.383-1.223.259-.351.622-.621 1.089-.81s1.006-.284 1.616-.284c.875 0 1.574.187 2.098.562.523.375.848.893.974 1.556zm1.648 5.618v-7.636h1.8v7.636zm.905-8.72c-.288 0-.535-.095-.741-.284-.202-.192-.303-.422-.303-.691 0-.271.101-.502.303-.691.206-.192.453-.288.741-.288.285 0 .529.096.731.288.205.189.308.42.308.691 0 .269-.103.499-.308.691-.202.189-.446.284-.731.284zm8.011 8.382c-.554.325-1.199.487-1.934.487-.736 0-1.382-.162-1.939-.487-.554-.328-.98-.789-1.278-1.382-.295-.597-.442-1.286-.442-2.068 0-.783.147-1.472.442-2.069.298-.596.724-1.058 1.278-1.387.557-.328 1.203-.492 1.939-.492.735 0 1.38.164 1.934.492.556.329.982.791 1.277 1.387.299.597.448 1.286.448 2.069 0 .782-.149 1.471-.448 2.068-.295.593-.721 1.054-1.277 1.382zm-1.924-.955c.394 0 .73-.112 1.009-.338.278-.225.484-.522.616-.89.133-.371.199-.795.199-1.272 0-.478-.066-.902-.199-1.273-.129-.371-.334-.671-.616-.9-.279-.229-.615-.343-1.009-.343-.302 0-.572.066-.811.199-.235.129-.427.308-.577.537-.149.229-.263.494-.343.795-.076.302-.114.63-.114.985 0 .477.066.901.199 1.272.133.368.34.665.621.89.282.226.624.338 1.025.338zm6.976-3.181v4.474h-1.8v-7.636h1.72v1.297h.09c.179-.437.462-.779.85-1.024.391-.249.867-.373 1.427-.373.799 0 1.435.254 1.909.761s.709 1.211.706 2.113v4.862h-1.8v-4.584c0-.51-.132-.91-.398-1.198-.261-.288-.624-.432-1.088-.432-.484 0-.875.154-1.174.462-.295.308-.442.734-.442 1.278zm13.525 7.467c-.921 0-1.67-.177-2.247-.532-.573-.355-.948-.81-1.124-1.367l1.621-.393c.325.62.918.93 1.78.93.54 0 .969-.13 1.288-.388.321-.255.482-.645.482-1.168v-1.447h-.09c-.079.159-.174.306-.283.442-.109.133-.25.265-.423.398-.172.129-.386.232-.641.308-.255.077-.539.115-.85.115-.444 0-.857-.078-1.238-.234-.378-.159-.709-.389-.994-.691-.285-.305-.509-.698-.671-1.178-.163-.481-.244-1.025-.244-1.631 0-.613.081-1.167.244-1.661.162-.497.386-.906.671-1.228.285-.324.618-.573.999-.745.381-.173.794-.259 1.238-.259 1.011 0 1.742.454 2.192 1.362h.1v-1.262h1.775v7.76c0 .471-.09.89-.269 1.258s-.429.668-.751.9c-.321.232-.699.408-1.133.527-.434.123-.911.184-1.432.184zm.015-4.514c.57 0 1.011-.206 1.323-.617.314-.411.472-.983.472-1.715 0-.736-.158-1.321-.472-1.755-.312-.434-.753-.651-1.323-.651-.58 0-1.027.222-1.342.666-.315.441-.473 1.021-.473 1.74s.156 1.288.468 1.705c.315.418.764.627 1.347.627zm5.414 1.521v-7.636h1.745v1.272h.08c.136-.437.373-.777.711-1.019s.729-.363 1.173-.363c.249 0 .464.017.646.05v1.656c-.215-.07-.494-.105-.835-.105-.497 0-.908.156-1.233.467-.325.309-.487.705-.487 1.189v4.489zm10.501-.338c-.553.325-1.198.487-1.934.487-.735 0-1.382-.162-1.939-.487-.553-.328-.979-.789-1.277-1.382-.295-.597-.443-1.286-.443-2.068 0-.783.148-1.472.443-2.069.298-.596.724-1.058 1.277-1.387.557-.328 1.204-.492 1.939-.492.736 0 1.381.164 1.934.492.557.329.983.791 1.278 1.387.298.597.448 1.286.448 2.069 0 .782-.15 1.471-.448 2.068-.295.593-.721 1.054-1.278 1.382zm-1.924-.955c.395 0 .731-.112 1.01-.338.278-.225.483-.522.616-.89.133-.371.199-.795.199-1.272 0-.478-.066-.902-.199-1.273-.129-.371-.335-.671-.616-.9-.279-.229-.615-.343-1.01-.343-.301 0-.571.066-.81.199-.235.129-.428.308-.577.537s-.263.494-.343.795c-.076.302-.114.63-.114.985 0 .477.066.901.199 1.272.132.368.339.665.621.89.282.226.623.338 1.024.338zm6.548 1.293-2.158-7.636h1.835l1.342 5.369h.07l1.372-5.369h1.815l1.372 5.339h.074l1.323-5.339h1.839l-2.162 7.636h-1.875l-1.432-5.161h-.104l-1.432 5.161zm13.954-7.636v1.392h-1.506v3.947c0 .335.071.567.213.696.146.126.347.189.602.189.166 0 .341-.023.527-.07l.303 1.407c-.325.11-.678.169-1.059.179-.706.02-1.281-.152-1.725-.517-.444-.364-.664-.893-.661-1.586v-4.245h-1.084v-1.392h1.084v-1.83h1.8v1.83zm3.469 3.162v4.474h-1.8v-10.182h1.76v3.843h.09c.182-.444.462-.787.84-1.029.381-.245.858-.368 1.432-.368.805 0 1.445.252 1.919.756s.711 1.21.711 2.118v4.862h-1.8v-4.584c0-.514-.133-.913-.398-1.198-.262-.288-.63-.432-1.104-.432-.493 0-.893.155-1.198.467-.301.308-.452.732-.452 1.273z" fill="#000"/><g stroke="#0085ff" stroke-dasharray="3.2 3.2" stroke-width="2"><path d="m179 387c34.833-2.411 29.714-31.403 25.552-118.601-1.118-23.638 1.007-71.511 18.448-73.899" stroke-opacity=".32"/><path d="m179 1c34.833 2.41935 29.714 31.512 25.552 119.011-1.118 23.72 1.007 71.759 18.448 74.156" stroke-opacity=".32"/><path d="m221 194 81.5 41.5" stroke-opacity=".32"/><path d="m220.5 194 82.5-41.5" stroke-opacity=".32"/><path d="m518 195-69 41" stroke-opacity=".32"/><path d="m518 195-69-42" stroke-opacity=".32"/><path d="m787 192h60" stroke-opacity=".62"/></g></svg>