<svg width="995" height="388" viewBox="0 0 995 388" fill="none" xmlns="http://www.w3.org/2000/svg">
<path d="M0 17C0 12.5817 3.58172 9 8 9H137C141.418 9 145 12.5817 145 17V43C145 47.4183 141.418 51 137 51H8C3.58173 51 0 47.4183 0 43V17Z" fill="#0D2132"/>
<path d="M40.3118 35H38.343L41.9276 24.8182H44.2045L47.794 35H45.8253L44.9801 32.4893H41.152L40.3118 35ZM41.6491 31.0078H44.483L43.1058 26.9062H43.0263L41.6491 31.0078ZM49.0556 37.8636V27.3636H50.8255V28.6264H50.9299C51.3806 27.7183 52.1081 27.2642 53.1124 27.2642C53.5565 27.2642 53.9692 27.3504 54.3503 27.5227C54.7315 27.6951 55.0646 27.9437 55.3496 28.2685C55.6346 28.5933 55.8584 29.0076 56.0208 29.5114C56.1832 30.0118 56.2644 30.572 56.2644 31.1918C56.2644 31.8082 56.1848 32.3667 56.0257 32.8672C55.8667 33.3677 55.6462 33.782 55.3645 34.1101C55.0828 34.4382 54.7497 34.6918 54.3652 34.8707C53.9841 35.0464 53.5681 35.1342 53.1174 35.1342C52.1131 35.1342 51.3839 34.6884 50.9299 33.7969H50.8553V37.8636H49.0556ZM51.2878 29.397C50.9763 29.8345 50.8205 30.4295 50.8205 31.1818C50.8205 31.9342 50.9779 32.5357 51.2928 32.9865C51.6077 33.4339 52.0485 33.6577 52.6152 33.6577C53.1919 33.6577 53.6377 33.4306 53.9526 32.9766C54.2708 32.5192 54.4299 31.9209 54.4299 31.1818C54.4299 30.7012 54.3619 30.2803 54.226 29.919C54.0935 29.5545 53.8896 29.2678 53.6145 29.0589C53.3394 28.8468 53.0063 28.7408 52.6152 28.7408C52.0452 28.7408 51.6027 28.9595 51.2878 29.397ZM57.8056 37.8636V27.3636H59.5755V28.6264H59.6799C60.1306 27.7183 60.8581 27.2642 61.8624 27.2642C62.3065 27.2642 62.7192 27.3504 63.1003 27.5227C63.4815 27.6951 63.8146 27.9437 64.0996 28.2685C64.3846 28.5933 64.6084 29.0076 64.7708 29.5114C64.9332 30.0118 65.0144 30.572 65.0144 31.1918C65.0144 31.8082 64.9348 32.3667 64.7757 32.8672C64.6167 33.3677 64.3962 33.782 64.1145 34.1101C63.8328 34.4382 63.4997 34.6918 63.1152 34.8707C62.7341 35.0464 62.3181 35.1342 61.8674 35.1342C60.8631 35.1342 60.1339 34.6884 59.6799 33.7969H59.6053V37.8636H57.8056ZM60.0378 29.397C59.7263 29.8345 59.5705 30.4295 59.5705 31.1818C59.5705 31.9342 59.7279 32.5357 60.0428 32.9865C60.3577 33.4339 60.7985 33.6577 61.3652 33.6577C61.9419 33.6577 62.3877 33.4306 62.7026 32.9766C63.0208 32.5192 63.1799 31.9209 63.1799 31.1818C63.1799 30.7012 63.1119 30.2803 62.976 29.919C62.8435 29.5545 62.6396 29.2678 62.3645 29.0589C62.0894 28.8468 61.7563 28.7408 61.3652 28.7408C60.7952 28.7408 60.3527 28.9595 60.0378 29.397ZM72.5911 29.3821L70.9505 29.5611C70.8742 29.286 70.7168 29.0589 70.4782 28.88C70.2428 28.6977 69.9313 28.6065 69.5435 28.6065C69.1657 28.6065 68.8508 28.6894 68.5989 28.8551C68.347 29.0175 68.2227 29.2263 68.226 29.4815C68.2227 29.7036 68.3056 29.8859 68.4746 30.0284C68.6436 30.1676 68.9204 30.2803 69.3049 30.3665L70.6074 30.6449C71.33 30.8007 71.8669 31.0492 72.2182 31.3906C72.5729 31.7287 72.7518 32.1695 72.7551 32.7131C72.7518 33.4356 72.4469 34.0223 71.8404 34.473C71.2338 34.9238 70.4516 35.1491 69.4938 35.1491C68.5624 35.1491 67.8117 34.9536 67.2417 34.5625C66.6716 34.1714 66.3302 33.6229 66.2175 32.9169L67.9725 32.7479C68.0487 33.0893 68.2161 33.3494 68.4746 33.5284C68.7364 33.7041 69.0745 33.7919 69.4888 33.7919C69.9097 33.7919 70.2511 33.7057 70.513 33.5334C70.7781 33.361 70.9107 33.1423 70.9107 32.8771C70.9107 32.4496 70.5676 32.1596 69.8816 32.0071L68.579 31.7337C67.1406 31.4354 66.4247 30.7178 66.4313 29.581C66.4313 29.117 66.5589 28.7093 66.8141 28.358C67.0726 28.0066 67.4355 27.7365 67.9029 27.5476C68.3702 27.3587 68.9088 27.2642 69.5186 27.2642C70.3936 27.2642 71.093 27.4515 71.6167 27.826C72.1403 28.2005 72.4651 28.7192 72.5911 29.3821ZM74.3187 35V24.8182H80.8414V26.3643H76.1632V29.1286H80.394V30.6747H76.1632V35H74.3187ZM84.242 24.8182V35H82.4423V24.8182H84.242ZM87.2113 37.8487C86.7307 37.8487 86.3396 37.7841 86.038 37.6548L86.4556 36.2578C86.7208 36.3307 86.9544 36.3672 87.1566 36.3672C87.3588 36.3672 87.5378 36.3026 87.6935 36.1733C87.8526 36.0473 87.9885 35.8468 88.1012 35.5717L88.2553 35.1591L85.4862 27.3636H87.3952L89.1552 33.1307H89.2347L90.9996 27.3636L92.9237 27.3736L89.8562 35.9247C89.3922 37.2074 88.5105 37.8487 87.2113 37.8487ZM97.2937 35.1491C96.1469 35.1491 95.2421 34.7962 94.5792 34.0902C93.9163 33.3842 93.5849 32.4297 93.5849 31.2266C93.5849 30.4477 93.7324 29.7583 94.0273 29.1584C94.3256 28.5585 94.7482 28.0928 95.2951 27.7614C95.8453 27.4299 96.48 27.2642 97.1992 27.2642C97.6798 27.2642 98.1256 27.3421 98.5366 27.4979C98.9509 27.6503 99.3204 27.879 99.6452 28.1839C99.9701 28.4889 100.225 28.8932 100.411 29.397C100.596 29.8975 100.689 30.4725 100.689 31.1222V31.674H95.3697C95.3763 32.3203 95.5553 32.8274 95.9066 33.1953C96.2612 33.5632 96.7319 33.7472 97.3185 33.7472C97.7129 33.7472 98.051 33.6626 98.3327 33.4936C98.6145 33.3246 98.815 33.081 98.9343 32.7628L100.615 32.9517C100.452 33.6245 100.078 34.1598 99.4911 34.5575C98.9045 34.9519 98.172 35.1491 97.2937 35.1491ZM95.3746 30.4609H98.9641C98.9575 29.9373 98.7934 29.508 98.4719 29.1733C98.1538 28.8352 97.7378 28.6662 97.2241 28.6662C96.7004 28.6662 96.2679 28.8402 95.9265 29.1882C95.5884 29.5329 95.4045 29.9571 95.3746 30.4609ZM102.212 35V27.3636H103.957V28.6364H104.036C104.172 28.1989 104.409 27.8591 104.747 27.6172C105.085 27.3752 105.477 27.2543 105.921 27.2543C106.169 27.2543 106.385 27.2708 106.567 27.304V28.9595C106.352 28.8899 106.073 28.8551 105.732 28.8551C105.235 28.8551 104.824 29.0109 104.499 29.3224C104.174 29.6307 104.012 30.0268 104.012 30.5107V35H102.212Z" fill="white"/>
<path d="M0 99C0 94.5817 3.58172 91 8 91H137C141.418 91 145 94.5817 145 99V125C145 129.418 141.418 133 137 133H8C3.58173 133 0 129.418 0 125V99Z" fill="#0D2132"/>
<path d="M53.3118 117H51.343L54.9276 106.818H57.2045L60.794 117H58.8253L57.9801 114.489H54.152L53.3118 117ZM54.6491 113.008H57.483L56.1058 108.906H56.0263L54.6491 113.008ZM64.657 117.134C64.2062 117.134 63.7886 117.046 63.4041 116.871C63.023 116.692 62.6915 116.438 62.4098 116.11C62.1281 115.782 61.9077 115.368 61.7486 114.867C61.5895 114.367 61.5099 113.808 61.5099 113.192C61.5099 112.572 61.5911 112.012 61.7536 111.511C61.916 111.008 62.1397 110.593 62.4247 110.268C62.7098 109.944 63.0429 109.695 63.424 109.523C63.8052 109.35 64.2178 109.264 64.6619 109.264C65.6662 109.264 66.3937 109.718 66.8445 110.626H66.919V106.818H68.7237V117H66.9538V115.797H66.8445C66.3904 116.688 65.6612 117.134 64.657 117.134ZM65.1591 115.658C65.7259 115.658 66.1667 115.434 66.4815 114.987C66.7964 114.536 66.9538 113.934 66.9538 113.182C66.9538 112.429 66.7964 111.835 66.4815 111.397C66.17 110.96 65.7292 110.741 65.1591 110.741C64.768 110.741 64.4349 110.847 64.1598 111.059C63.8847 111.268 63.6792 111.554 63.5433 111.919C63.4107 112.28 63.3445 112.701 63.3445 113.182C63.3445 113.921 63.5019 114.519 63.8168 114.977C64.1349 115.431 64.5824 115.658 65.1591 115.658ZM70.6415 109.364H72.4412V117.423C72.4412 118.238 72.2109 118.849 71.7502 119.257C71.2895 119.668 70.6266 119.865 69.7615 119.849C69.7383 119.849 69.6886 119.847 69.6124 119.844C69.5328 119.844 69.4682 119.842 69.4185 119.839V118.372C69.5511 118.379 69.6373 118.382 69.677 118.382C70.0151 118.382 70.2604 118.299 70.4128 118.134C70.5653 117.971 70.6415 117.726 70.6415 117.398V109.364ZM71.5364 108.28C71.248 108.28 71.0011 108.185 70.7956 107.996C70.5935 107.804 70.4924 107.574 70.4924 107.305C70.4924 107.034 70.5935 106.803 70.7956 106.614C71.0011 106.422 71.248 106.326 71.5364 106.326C71.8214 106.326 72.065 106.422 72.2672 106.614C72.4727 106.803 72.5755 107.034 72.5755 107.305C72.5755 107.574 72.4727 107.804 72.2672 107.996C72.065 108.185 71.8214 108.28 71.5364 108.28ZM79.1591 113.788V109.364H80.9588V117H79.2138V115.643H79.1342C78.9553 116.087 78.6652 116.442 78.2642 116.707C77.8665 116.969 77.3909 117.099 76.8374 117.099C76.0717 117.099 75.4553 116.846 74.9879 116.339C74.5239 115.832 74.2919 115.127 74.2919 114.226V109.364H76.0916V113.947C76.0916 114.431 76.2225 114.816 76.4844 115.101C76.7495 115.386 77.0992 115.528 77.5334 115.528C77.7356 115.528 77.9311 115.492 78.12 115.419C78.3123 115.343 78.4863 115.235 78.642 115.096C78.7978 114.957 78.9221 114.774 79.0149 114.549C79.111 114.32 79.1591 114.067 79.1591 113.788ZM88.845 111.382L87.2044 111.561C87.1281 111.286 86.9707 111.059 86.7321 110.88C86.4967 110.698 86.1852 110.607 85.7974 110.607C85.4196 110.607 85.1047 110.689 84.8528 110.855C84.6009 111.018 84.4766 111.226 84.4799 111.482C84.4766 111.704 84.5595 111.886 84.7285 112.028C84.8975 112.168 85.1743 112.28 85.5588 112.366L86.8613 112.645C87.5839 112.801 88.1208 113.049 88.4721 113.391C88.8268 113.729 89.0057 114.17 89.0091 114.713C89.0057 115.436 88.7008 116.022 88.0943 116.473C87.4877 116.924 86.7056 117.149 85.7477 117.149C84.8163 117.149 84.0656 116.954 83.4956 116.562C82.9255 116.171 82.5841 115.623 82.4714 114.917L84.2264 114.748C84.3026 115.089 84.47 115.349 84.7285 115.528C84.9904 115.704 85.3284 115.792 85.7427 115.792C86.1636 115.792 86.505 115.706 86.7669 115.533C87.032 115.361 87.1646 115.142 87.1646 114.877C87.1646 114.45 86.8216 114.16 86.1355 114.007L84.8329 113.734C83.3945 113.435 82.6786 112.718 82.6852 111.581C82.6852 111.117 82.8128 110.709 83.068 110.358C83.3265 110.007 83.6895 109.737 84.1568 109.548C84.6241 109.359 85.1627 109.264 85.7725 109.264C86.6475 109.264 87.3469 109.451 87.8706 109.826C88.3942 110.201 88.719 110.719 88.845 111.382ZM94.3063 109.364V110.756H92.7999V114.703C92.7999 115.038 92.8712 115.27 93.0137 115.399C93.1595 115.525 93.36 115.588 93.6152 115.588C93.781 115.588 93.9566 115.565 94.1422 115.518L94.4455 116.925C94.1207 117.035 93.7677 117.094 93.3865 117.104C92.6806 117.124 92.1055 116.952 91.6614 116.587C91.2173 116.223 90.9969 115.694 91.0002 115.001V110.756H89.9164V109.364H91.0002V107.534H92.7999V109.364H94.3063Z" fill="white"/>
<path d="M0 181C0 176.582 3.58172 173 8 173H137C141.418 173 145 176.582 145 181V207C145 211.418 141.418 215 137 215H8C3.58173 215 0 211.418 0 207V181Z" fill="#0D2132"/>
<path d="M44.0043 199V188.818H50.527V190.364H45.8487V193.129H50.0795V194.675H45.8487V199H44.0043ZM52.1278 199V191.364H53.9276V199H52.1278ZM53.0327 190.28C52.7443 190.28 52.4974 190.185 52.2919 189.996C52.0897 189.804 51.9886 189.574 51.9886 189.305C51.9886 189.034 52.0897 188.803 52.2919 188.614C52.4974 188.422 52.7443 188.326 53.0327 188.326C53.3177 188.326 53.5613 188.422 53.7635 188.614C53.969 188.803 54.0717 189.034 54.0717 189.305C54.0717 189.574 53.969 189.804 53.7635 189.996C53.5613 190.185 53.3177 190.28 53.0327 190.28ZM55.7782 199V191.364H57.5233V192.636H57.6028C57.7387 192.199 57.9757 191.859 58.3137 191.617C58.6518 191.375 59.0429 191.254 59.487 191.254C59.7356 191.254 59.9511 191.271 60.1333 191.304V192.96C59.9179 192.89 59.6395 192.855 59.2981 192.855C58.801 192.855 58.39 193.011 58.0652 193.322C57.7404 193.631 57.5779 194.027 57.5779 194.511V199H55.7782ZM64.3952 199.149C63.2485 199.149 62.3436 198.796 61.6808 198.09C61.0179 197.384 60.6864 196.43 60.6864 195.227C60.6864 194.448 60.8339 193.758 61.1289 193.158C61.4272 192.558 61.8498 192.093 62.3967 191.761C62.9469 191.43 63.5816 191.264 64.3008 191.264C64.7814 191.264 65.2272 191.342 65.6381 191.498C66.0524 191.65 66.422 191.879 66.7468 192.184C67.0716 192.489 67.3268 192.893 67.5124 193.397C67.698 193.897 67.7908 194.473 67.7908 195.122V195.674H62.4712C62.4779 196.32 62.6568 196.827 63.0082 197.195C63.3628 197.563 63.8335 197.747 64.4201 197.747C64.8145 197.747 65.1526 197.663 65.4343 197.494C65.716 197.325 65.9165 197.081 66.0359 196.763L67.7163 196.952C67.5539 197.625 67.1793 198.16 66.5927 198.558C66.006 198.952 65.2736 199.149 64.3952 199.149ZM62.4762 194.461H66.0657C66.0591 193.937 65.895 193.508 65.5735 193.173C65.2553 192.835 64.8394 192.666 64.3256 192.666C63.802 192.666 63.3694 192.84 63.0281 193.188C62.69 193.533 62.506 193.957 62.4762 194.461ZM69.3929 199V188.818H71.1926V192.626H71.2672C71.718 191.718 72.4455 191.264 73.4498 191.264C73.8939 191.264 74.3065 191.35 74.6877 191.523C75.0688 191.695 75.4019 191.944 75.687 192.268C75.972 192.593 76.1957 193.008 76.3581 193.511C76.5205 194.012 76.6017 194.572 76.6017 195.192C76.6017 195.808 76.5222 196.367 76.3631 196.867C76.204 197.368 75.9836 197.782 75.7019 198.11C75.4202 198.438 75.0871 198.692 74.7026 198.871C74.3214 199.046 73.9055 199.134 73.4547 199.134C72.4505 199.134 71.7213 198.688 71.2672 197.797H71.1628V199H69.3929ZM71.6252 193.397C71.3136 193.835 71.1578 194.429 71.1578 195.182C71.1578 195.934 71.3153 196.536 71.6301 196.987C71.945 197.434 72.3858 197.658 72.9526 197.658C73.5293 197.658 73.9751 197.431 74.29 196.977C74.6081 196.519 74.7672 195.921 74.7672 195.182C74.7672 194.701 74.6993 194.28 74.5634 193.919C74.4308 193.554 74.227 193.268 73.9519 193.059C73.6768 192.847 73.3437 192.741 72.9526 192.741C72.3825 192.741 71.94 192.96 71.6252 193.397ZM80.3292 199.154C79.8353 199.154 79.3978 199.07 79.0167 198.901C78.6388 198.728 78.3372 198.466 78.1119 198.115C77.8865 197.764 77.7738 197.344 77.7738 196.857C77.7738 196.526 77.8285 196.231 77.9379 195.972C78.0472 195.714 78.1881 195.503 78.3604 195.341C78.5361 195.179 78.7549 195.041 79.0167 194.928C79.2785 194.812 79.5387 194.728 79.7972 194.675C80.0558 194.618 80.3474 194.572 80.6722 194.536C81.408 194.456 81.8604 194.396 82.0295 194.357C82.3112 194.29 82.4802 194.179 82.5366 194.023C82.5531 193.974 82.5614 193.916 82.5614 193.849V193.82C82.5614 193.442 82.4504 193.152 82.2283 192.95C82.0063 192.744 81.6864 192.641 81.2688 192.641C80.8545 192.641 80.5131 192.732 80.2447 192.915C79.9795 193.097 79.7989 193.329 79.7028 193.611L78.0224 193.372C78.2179 192.689 78.6007 192.167 79.1708 191.806C79.7442 191.445 80.4402 191.264 81.2589 191.264C81.5671 191.264 81.8621 191.291 82.1438 191.344C82.4255 191.393 82.704 191.483 82.979 191.612C83.2541 191.738 83.4911 191.899 83.69 192.094C83.8922 192.287 84.0546 192.537 84.1772 192.845C84.2998 193.153 84.3612 193.501 84.3612 193.889V199H82.631V197.951H82.5714C82.3924 198.302 82.114 198.591 81.7362 198.816C81.3583 199.041 80.8893 199.154 80.3292 199.154ZM80.7965 197.832C81.3235 197.832 81.7494 197.679 82.0742 197.374C82.4023 197.069 82.5664 196.698 82.5664 196.261V195.361C82.4206 195.48 81.8704 195.604 80.9158 195.734C79.9779 195.866 79.5089 196.231 79.5089 196.827C79.5089 197.149 79.6265 197.397 79.8619 197.573C80.0972 197.746 80.4087 197.832 80.7965 197.832ZM92.2063 193.382L90.5657 193.561C90.4895 193.286 90.332 193.059 90.0934 192.88C89.8581 192.698 89.5465 192.607 89.1587 192.607C88.7809 192.607 88.466 192.689 88.2141 192.855C87.9622 193.018 87.8379 193.226 87.8413 193.482C87.8379 193.704 87.9208 193.886 88.0898 194.028C88.2589 194.168 88.5356 194.28 88.9201 194.366L90.2227 194.645C90.9452 194.801 91.4821 195.049 91.8335 195.391C92.1881 195.729 92.3671 196.17 92.3704 196.713C92.3671 197.436 92.0621 198.022 91.4556 198.473C90.8491 198.924 90.0669 199.149 89.109 199.149C88.1777 199.149 87.427 198.954 86.8569 198.562C86.2868 198.171 85.9454 197.623 85.8327 196.917L87.5877 196.748C87.6639 197.089 87.8313 197.349 88.0898 197.528C88.3517 197.704 88.6897 197.792 89.104 197.792C89.525 197.792 89.8664 197.706 90.1282 197.533C90.3933 197.361 90.5259 197.142 90.5259 196.877C90.5259 196.45 90.1829 196.16 89.4968 196.007L88.1942 195.734C86.7558 195.435 86.0399 194.718 86.0465 193.581C86.0465 193.117 86.1741 192.709 86.4293 192.358C86.6879 192.007 87.0508 191.737 87.5181 191.548C87.9854 191.359 88.524 191.264 89.1339 191.264C90.0089 191.264 90.7082 191.451 91.2319 191.826C91.7556 192.201 92.0804 192.719 92.2063 193.382ZM97.2351 199.149C96.0883 199.149 95.1835 198.796 94.5206 198.09C93.8577 197.384 93.5263 196.43 93.5263 195.227C93.5263 194.448 93.6738 193.758 93.9688 193.158C94.267 192.558 94.6896 192.093 95.2365 191.761C95.7867 191.43 96.4214 191.264 97.1406 191.264C97.6212 191.264 98.067 191.342 98.478 191.498C98.8923 191.65 99.2618 191.879 99.5866 192.184C99.9115 192.489 100.167 192.893 100.352 193.397C100.538 193.897 100.631 194.473 100.631 195.122V195.674H95.3111C95.3177 196.32 95.4967 196.827 95.848 197.195C96.2027 197.563 96.6733 197.747 97.2599 197.747C97.6544 197.747 97.9924 197.663 98.2741 197.494C98.5559 197.325 98.7564 197.081 98.8757 196.763L100.556 196.952C100.394 197.625 100.019 198.16 99.4325 198.558C98.8459 198.952 98.1134 199.149 97.2351 199.149ZM95.3161 194.461H98.9055C98.8989 193.937 98.7348 193.508 98.4134 193.173C98.0952 192.835 97.6792 192.666 97.1655 192.666C96.6418 192.666 96.2093 192.84 95.8679 193.188C95.5298 193.533 95.3459 193.957 95.3161 194.461Z" fill="white"/>
<path d="M0 263C0 258.582 3.58172 255 8 255H137C141.418 255 145 258.582 145 263V289C145 293.418 141.418 297 137 297H8C3.58173 297 0 293.418 0 289V263Z" fill="#0D2132"/>
<path d="M20.3082 270.818H22.3913L24.8821 275.322H24.9815L27.4723 270.818H29.5554L25.8516 277.202V281H24.0121V277.202L20.3082 270.818ZM31.6671 281.154C31.1732 281.154 30.7357 281.07 30.3546 280.901C29.9767 280.728 29.6751 280.466 29.4498 280.115C29.2244 279.764 29.1117 279.344 29.1117 278.857C29.1117 278.526 29.1664 278.231 29.2757 277.972C29.3851 277.714 29.526 277.503 29.6983 277.341C29.874 277.179 30.0927 277.041 30.3546 276.928C30.6164 276.812 30.8766 276.728 31.1351 276.675C31.3936 276.618 31.6853 276.572 32.0101 276.536C32.7459 276.456 33.1983 276.396 33.3674 276.357C33.6491 276.29 33.8181 276.179 33.8745 276.023C33.891 275.974 33.8993 275.916 33.8993 275.849V275.82C33.8993 275.442 33.7883 275.152 33.5662 274.95C33.3442 274.744 33.0243 274.641 32.6067 274.641C32.1924 274.641 31.851 274.732 31.5826 274.915C31.3174 275.097 31.1368 275.329 31.0407 275.611L29.3603 275.372C29.5558 274.689 29.9386 274.167 30.5087 273.806C31.0821 273.445 31.7781 273.264 32.5968 273.264C32.905 273.264 33.2 273.291 33.4817 273.344C33.7634 273.393 34.0418 273.483 34.3169 273.612C34.592 273.738 34.829 273.899 35.0279 274.094C35.2301 274.287 35.3925 274.537 35.5151 274.845C35.6377 275.153 35.699 275.501 35.699 275.889V281H33.9689V279.951H33.9093C33.7303 280.302 33.4519 280.591 33.074 280.816C32.6962 281.041 32.2272 281.154 31.6671 281.154ZM32.1344 279.832C32.6614 279.832 33.0873 279.679 33.4121 279.374C33.7402 279.069 33.9043 278.698 33.9043 278.261V277.361C33.7585 277.48 33.2083 277.604 32.2537 277.734C31.3158 277.866 30.8468 278.231 30.8468 278.827C30.8468 279.149 30.9644 279.397 31.1998 279.573C31.4351 279.746 31.7466 279.832 32.1344 279.832ZM39.3084 276.526V281H37.5087V273.364H39.2289V274.661H39.3184C39.4973 274.224 39.7807 273.882 40.1685 273.637C40.5596 273.388 41.0352 273.264 41.5953 273.264C42.3941 273.264 43.0305 273.518 43.5044 274.025C43.9784 274.532 44.2137 275.236 44.2104 276.138V281H42.4107V276.416C42.4107 275.906 42.2781 275.506 42.013 275.218C41.7511 274.93 41.3882 274.786 40.9242 274.786C40.4403 274.786 40.0492 274.94 39.7509 275.248C39.4559 275.556 39.3084 275.982 39.3084 276.526ZM48.8738 281.134C48.423 281.134 48.0054 281.046 47.6209 280.871C47.2398 280.692 46.9083 280.438 46.6266 280.11C46.3449 279.782 46.1245 279.368 45.9654 278.867C45.8063 278.367 45.7267 277.808 45.7267 277.192C45.7267 276.572 45.8079 276.012 45.9703 275.511C46.1328 275.008 46.3565 274.593 46.6415 274.268C46.9266 273.944 47.2596 273.695 47.6408 273.523C48.022 273.35 48.4346 273.264 48.8787 273.264C49.883 273.264 50.6105 273.718 51.0613 274.626H51.1358V270.818H52.9405V281H51.1706V279.797H51.0613C50.6072 280.688 49.878 281.134 48.8738 281.134ZM49.3759 279.658C49.9426 279.658 50.3835 279.434 50.6983 278.987C51.0132 278.536 51.1706 277.934 51.1706 277.182C51.1706 276.429 51.0132 275.835 50.6983 275.397C50.3868 274.96 49.946 274.741 49.3759 274.741C48.9848 274.741 48.6517 274.847 48.3766 275.059C48.1015 275.268 47.896 275.554 47.7601 275.919C47.6275 276.28 47.5613 276.701 47.5613 277.182C47.5613 277.921 47.7187 278.519 48.0336 278.977C48.3517 279.431 48.7992 279.658 49.3759 279.658ZM58.239 281.149C57.0922 281.149 56.1874 280.796 55.5245 280.09C54.8616 279.384 54.5302 278.43 54.5302 277.227C54.5302 276.448 54.6777 275.758 54.9727 275.158C55.271 274.558 55.6935 274.093 56.2404 273.761C56.7906 273.43 57.4253 273.264 58.1445 273.264C58.6251 273.264 59.0709 273.342 59.4819 273.498C59.8962 273.65 60.2657 273.879 60.5906 274.184C60.9154 274.489 61.1706 274.893 61.3562 275.397C61.5418 275.897 61.6346 276.473 61.6346 277.122V277.674H56.315C56.3216 278.32 56.5006 278.827 56.8519 279.195C57.2066 279.563 57.6772 279.747 58.2638 279.747C58.6583 279.747 58.9963 279.663 59.2781 279.494C59.5598 279.325 59.7603 279.081 59.8796 278.763L61.56 278.952C61.3976 279.625 61.0231 280.16 60.4364 280.558C59.8498 280.952 59.1173 281.149 58.239 281.149ZM56.32 276.461H59.9094C59.9028 275.937 59.7388 275.508 59.4173 275.173C59.0991 274.835 58.6831 274.666 58.1694 274.666C57.6457 274.666 57.2132 274.84 56.8718 275.188C56.5337 275.533 56.3498 275.957 56.32 276.461ZM64.4783 273.364L66.0195 276.183L67.5856 273.364H69.4897L67.1879 277.182L69.5295 281H67.6353L66.0195 278.251L64.4187 281H62.5096L64.8363 277.182L62.5692 273.364H64.4783ZM71.9904 281.109C71.6855 281.109 71.4253 281.003 71.2099 280.791C70.9978 280.576 70.8933 280.317 70.8967 280.016C70.8933 279.717 70.9978 279.462 71.2099 279.25C71.4253 279.038 71.6855 278.932 71.9904 278.932C72.2854 278.932 72.5406 279.038 72.756 279.25C72.9715 279.462 73.0808 279.717 73.0842 280.016C73.0808 280.317 72.9715 280.576 72.756 280.791C72.5406 281.003 72.2854 281.109 71.9904 281.109ZM75.0218 270.818H77.2789L80.3017 278.196H80.421L83.4437 270.818H85.7008V281H83.9309V274.005H83.8365L81.0225 280.97H79.7001L76.8862 273.99H76.7917V281H75.0218V270.818ZM91.0105 281.149C89.8637 281.149 88.9589 280.796 88.296 280.09C87.6331 279.384 87.3017 278.43 87.3017 277.227C87.3017 276.448 87.4492 275.758 87.7441 275.158C88.0424 274.558 88.465 274.093 89.0119 273.761C89.5621 273.43 90.1968 273.264 90.916 273.264C91.3966 273.264 91.8424 273.342 92.2534 273.498C92.6677 273.65 93.0372 273.879 93.362 274.184C93.6868 274.489 93.9421 274.893 94.1277 275.397C94.3133 275.897 94.4061 276.473 94.4061 277.122V277.674H89.0865C89.0931 278.32 89.2721 278.827 89.6234 279.195C89.978 279.563 90.4487 279.747 91.0353 279.747C91.4297 279.747 91.7678 279.663 92.0495 279.494C92.3313 279.325 92.5318 279.081 92.6511 278.763L94.3315 278.952C94.1691 279.625 93.7946 280.16 93.2079 280.558C92.6213 280.952 91.8888 281.149 91.0105 281.149ZM89.0914 276.461H92.6809C92.6743 275.937 92.5102 275.508 92.1887 275.173C91.8706 274.835 91.4546 274.666 90.9409 274.666C90.4172 274.666 89.9847 274.84 89.6433 275.188C89.3052 275.533 89.1213 275.957 89.0914 276.461ZM99.7418 273.364V274.756H98.2354V278.703C98.2354 279.038 98.3067 279.27 98.4492 279.399C98.5951 279.525 98.7956 279.588 99.0508 279.588C99.2165 279.588 99.3922 279.565 99.5778 279.518L99.881 280.925C99.5562 281.035 99.2032 281.094 98.8221 281.104C98.1161 281.124 97.5411 280.952 97.0969 280.587C96.6528 280.223 96.4324 279.694 96.4357 279.001V274.756H95.3519V273.364H96.4357V271.534H98.2354V273.364H99.7418ZM101.247 281V273.364H102.992V274.636H103.072C103.207 274.199 103.444 273.859 103.782 273.617C104.121 273.375 104.512 273.254 104.956 273.254C105.204 273.254 105.42 273.271 105.602 273.304V274.96C105.387 274.89 105.108 274.855 104.767 274.855C104.27 274.855 103.859 275.011 103.534 275.322C103.209 275.631 103.047 276.027 103.047 276.511V281H101.247ZM106.798 281V273.364H108.597V281H106.798ZM107.703 272.28C107.414 272.28 107.167 272.185 106.962 271.996C106.76 271.804 106.659 271.574 106.659 271.305C106.659 271.034 106.76 270.803 106.962 270.614C107.167 270.422 107.414 270.326 107.703 270.326C107.988 270.326 108.231 270.422 108.433 270.614C108.639 270.803 108.742 271.034 108.742 271.305C108.742 271.574 108.639 271.804 108.433 271.996C108.231 272.185 107.988 272.28 107.703 272.28ZM113.779 281.149C113.033 281.149 112.382 280.982 111.825 280.647C111.268 280.312 110.844 279.848 110.553 279.255C110.264 278.662 110.12 277.981 110.12 277.212C110.12 276.439 110.268 275.755 110.562 275.158C110.857 274.562 111.282 274.098 111.835 273.766C112.389 273.432 113.033 273.264 113.769 273.264C114.701 273.264 115.464 273.514 116.061 274.015C116.658 274.515 116.987 275.18 117.05 276.009H115.33C115.257 275.624 115.087 275.312 114.818 275.074C114.553 274.835 114.212 274.716 113.794 274.716C113.234 274.716 112.785 274.936 112.447 275.377C112.112 275.818 111.945 276.42 111.945 277.182C111.945 277.957 112.11 278.569 112.442 279.016C112.777 279.46 113.227 279.683 113.794 279.683C114.192 279.683 114.528 279.57 114.803 279.344C115.078 279.116 115.254 278.798 115.33 278.39H117.05C116.984 279.215 116.658 279.881 116.071 280.388C115.488 280.896 114.724 281.149 113.779 281.149ZM120.726 281.154C120.232 281.154 119.794 281.07 119.413 280.901C119.035 280.728 118.734 280.466 118.508 280.115C118.283 279.764 118.17 279.344 118.17 278.857C118.17 278.526 118.225 278.231 118.334 277.972C118.444 277.714 118.585 277.503 118.757 277.341C118.933 277.179 119.151 277.041 119.413 276.928C119.675 276.812 119.935 276.728 120.194 276.675C120.452 276.618 120.744 276.572 121.069 276.536C121.805 276.456 122.257 276.396 122.426 276.357C122.708 276.29 122.877 276.179 122.933 276.023C122.95 275.974 122.958 275.916 122.958 275.849V275.82C122.958 275.442 122.847 275.152 122.625 274.95C122.403 274.744 122.083 274.641 121.665 274.641C121.251 274.641 120.91 274.732 120.641 274.915C120.376 275.097 120.195 275.329 120.099 275.611L118.419 275.372C118.614 274.689 118.997 274.167 119.567 273.806C120.141 273.445 120.837 273.264 121.655 273.264C121.964 273.264 122.259 273.291 122.54 273.344C122.822 273.393 123.1 273.483 123.376 273.612C123.651 273.738 123.888 273.899 124.086 274.094C124.289 274.287 124.451 274.537 124.574 274.845C124.696 275.153 124.758 275.501 124.758 275.889V281H123.028V279.951H122.968C122.789 280.302 122.51 280.591 122.133 280.816C121.755 281.041 121.286 281.154 120.726 281.154ZM121.193 279.832C121.72 279.832 122.146 279.679 122.471 279.374C122.799 279.069 122.963 278.698 122.963 278.261V277.361C122.817 277.48 122.267 277.604 121.312 277.734C120.374 277.866 119.905 278.231 119.905 278.827C119.905 279.149 120.023 279.397 120.258 279.573C120.494 279.746 120.805 279.832 121.193 279.832Z" fill="white"/>
<path d="M0 345C0 340.582 3.58172 337 8 337H137C141.418 337 145 340.582 145 345V371C145 375.418 141.418 379 137 379H8C3.58173 379 0 375.418 0 371V345Z" fill="#0D2132"/>
<path d="M22.8253 356.07C22.6596 355.523 22.3712 355.097 21.9602 354.792C21.5492 354.487 21.0405 354.335 20.4339 354.335C20.023 354.335 19.6435 354.414 19.2955 354.573C18.9508 354.732 18.6525 354.961 18.4006 355.259C18.1487 355.554 17.9515 355.927 17.8089 356.378C17.6697 356.829 17.6001 357.336 17.6001 357.899C17.6001 359.033 17.8603 359.914 18.3807 360.544C18.9044 361.17 19.602 361.484 20.4737 361.484C21.2393 361.484 21.8475 361.27 22.2983 360.842C22.7524 360.415 22.9877 359.838 23.0043 359.112H20.6577V357.67H24.7891V358.893C24.7891 359.752 24.6035 360.504 24.2322 361.151C23.861 361.797 23.349 362.291 22.696 362.632C22.0464 362.97 21.3023 363.139 20.4638 363.139C19.5324 363.139 18.7105 362.93 17.9979 362.513C17.2886 362.092 16.7351 361.485 16.3374 360.693C15.9429 359.901 15.7457 358.976 15.7457 357.919C15.7457 357.273 15.822 356.671 15.9744 356.114C16.1269 355.558 16.3423 355.07 16.6207 354.653C16.8991 354.235 17.2306 353.879 17.6151 353.584C17.9995 353.286 18.4287 353.06 18.9027 352.908C19.3767 352.755 19.8788 352.679 20.4091 352.679C21.1515 352.679 21.831 352.823 22.4474 353.112C23.0639 353.397 23.5677 353.796 23.9588 354.31C24.3532 354.823 24.6018 355.41 24.7045 356.07H22.8253ZM31.758 362.662C31.2045 362.987 30.5598 363.149 29.824 363.149C29.0882 363.149 28.4419 362.987 27.8851 362.662C27.3316 362.334 26.9057 361.873 26.6074 361.28C26.3124 360.683 26.165 359.994 26.165 359.212C26.165 358.429 26.3124 357.74 26.6074 357.143C26.9057 356.547 27.3316 356.085 27.8851 355.756C28.4419 355.428 29.0882 355.264 29.824 355.264C30.5598 355.264 31.2045 355.428 31.758 355.756C32.3148 356.085 32.7407 356.547 33.0357 357.143C33.334 357.74 33.4831 358.429 33.4831 359.212C33.4831 359.994 33.334 360.683 33.0357 361.28C32.7407 361.873 32.3148 362.334 31.758 362.662ZM29.834 361.707C30.2284 361.707 30.5648 361.595 30.8432 361.369C31.1216 361.144 31.3271 360.847 31.4597 360.479C31.5923 360.108 31.6586 359.684 31.6586 359.207C31.6586 358.729 31.5923 358.305 31.4597 357.934C31.3304 357.563 31.1249 357.263 30.8432 357.034C30.5648 356.805 30.2284 356.691 29.834 356.691C29.5324 356.691 29.2623 356.757 29.0236 356.89C28.7883 357.019 28.5961 357.198 28.4469 357.427C28.2978 357.656 28.1834 357.921 28.1039 358.222C28.0276 358.524 27.9895 358.852 27.9895 359.207C27.9895 359.684 28.0558 360.108 28.1884 360.479C28.321 360.847 28.5281 361.144 28.8098 361.369C29.0916 361.595 29.4329 361.707 29.834 361.707ZM40.2756 362.662C39.7221 362.987 39.0774 363.149 38.3416 363.149C37.6058 363.149 36.9595 362.987 36.4027 362.662C35.8492 362.334 35.4233 361.873 35.125 361.28C34.83 360.683 34.6825 359.994 34.6825 359.212C34.6825 358.429 34.83 357.74 35.125 357.143C35.4233 356.547 35.8492 356.085 36.4027 355.756C36.9595 355.428 37.6058 355.264 38.3416 355.264C39.0774 355.264 39.7221 355.428 40.2756 355.756C40.8324 356.085 41.2583 356.547 41.5533 357.143C41.8516 357.74 42.0007 358.429 42.0007 359.212C42.0007 359.994 41.8516 360.683 41.5533 361.28C41.2583 361.873 40.8324 362.334 40.2756 362.662ZM38.3516 361.707C38.746 361.707 39.0824 361.595 39.3608 361.369C39.6392 361.144 39.8447 360.847 39.9773 360.479C40.1098 360.108 40.1761 359.684 40.1761 359.207C40.1761 358.729 40.1098 358.305 39.9773 357.934C39.848 357.563 39.6425 357.263 39.3608 357.034C39.0824 356.805 38.746 356.691 38.3516 356.691C38.05 356.691 37.7798 356.757 37.5412 356.89C37.3059 357.019 37.1136 357.198 36.9645 357.427C36.8153 357.656 36.701 357.921 36.6214 358.222C36.5452 358.524 36.5071 358.852 36.5071 359.207C36.5071 359.684 36.5734 360.108 36.706 360.479C36.8385 360.847 37.0457 361.144 37.3274 361.369C37.6091 361.595 37.9505 361.707 38.3516 361.707ZM46.8493 365.993C45.9279 365.993 45.1788 365.816 44.6021 365.461C44.0287 365.106 43.6542 364.651 43.4785 364.094L45.0993 363.701C45.4241 364.321 46.0173 364.631 46.8791 364.631C47.4193 364.631 47.8485 364.501 48.1667 364.243C48.4882 363.988 48.649 363.598 48.649 363.075V361.628H48.5595C48.4799 361.787 48.3855 361.934 48.2761 362.07C48.1667 362.203 48.0259 362.335 47.8535 362.468C47.6812 362.597 47.4674 362.7 47.2122 362.776C46.957 362.853 46.6736 362.891 46.362 362.891C45.9179 362.891 45.5053 362.813 45.1241 362.657C44.7463 362.498 44.4148 362.268 44.1298 361.966C43.8448 361.661 43.621 361.268 43.4586 360.788C43.2962 360.307 43.215 359.763 43.215 359.157C43.215 358.544 43.2962 357.99 43.4586 357.496C43.621 356.999 43.8448 356.59 44.1298 356.268C44.4148 355.944 44.7479 355.695 45.1291 355.523C45.5102 355.35 45.9229 355.264 46.367 355.264C47.3779 355.264 48.1087 355.718 48.5595 356.626H48.6589V355.364H50.4338V363.124C50.4338 363.595 50.3443 364.014 50.1653 364.382C49.9863 364.75 49.7361 365.05 49.4146 365.282C49.0931 365.514 48.7153 365.69 48.2811 365.809C47.8469 365.932 47.3696 365.993 46.8493 365.993ZM46.8642 361.479C47.4342 361.479 47.8751 361.273 48.1866 360.862C48.5015 360.451 48.6589 359.879 48.6589 359.147C48.6589 358.411 48.5015 357.826 48.1866 357.392C47.8751 356.958 47.4342 356.741 46.8642 356.741C46.2842 356.741 45.8367 356.963 45.5218 357.407C45.207 357.848 45.0495 358.428 45.0495 359.147C45.0495 359.866 45.2053 360.435 45.5169 360.852C45.8317 361.27 46.2808 361.479 46.8642 361.479ZM54.0779 352.818V363H52.2782V352.818H54.0779ZM59.3093 363.149C58.1625 363.149 57.2577 362.796 56.5948 362.09C55.9319 361.384 55.6005 360.43 55.6005 359.227C55.6005 358.448 55.748 357.758 56.043 357.158C56.3413 356.558 56.7638 356.093 57.3107 355.761C57.8609 355.43 58.4956 355.264 59.2148 355.264C59.6954 355.264 60.1412 355.342 60.5522 355.498C60.9665 355.65 61.3361 355.879 61.6609 356.184C61.9857 356.489 62.2409 356.893 62.4265 357.397C62.6121 357.897 62.7049 358.473 62.7049 359.122V359.674H57.3853C57.3919 360.32 57.5709 360.827 57.9222 361.195C58.2769 361.563 58.7475 361.747 59.3342 361.747C59.7286 361.747 60.0666 361.663 60.3484 361.494C60.6301 361.325 60.8306 361.081 60.9499 360.763L62.6303 360.952C62.4679 361.625 62.0934 362.16 61.5067 362.558C60.9201 362.952 60.1876 363.149 59.3093 363.149ZM57.3903 358.461H60.9798C60.9731 357.937 60.8091 357.508 60.4876 357.173C60.1694 356.835 59.7534 356.666 59.2397 356.666C58.716 356.666 58.2835 356.84 57.9421 357.188C57.604 357.533 57.4201 357.957 57.3903 358.461ZM69.0872 363H67.1184L70.7029 352.818H72.9799L76.5694 363H74.6007L73.7555 360.489H69.9274L69.0872 363ZM70.4245 359.008H73.2583L71.8812 354.906H71.8017L70.4245 359.008ZM79.6307 358.526V363H77.831V355.364H79.5511V356.661H79.6406C79.8196 356.224 80.103 355.882 80.4908 355.637C80.8819 355.388 81.3575 355.264 81.9176 355.264C82.7164 355.264 83.3527 355.518 83.8267 356.025C84.3007 356.532 84.536 357.236 84.5327 358.138V363H82.733V358.416C82.733 357.906 82.6004 357.506 82.3352 357.218C82.0734 356.93 81.7105 356.786 81.2464 356.786C80.7625 356.786 80.3714 356.94 80.0732 357.248C79.7782 357.556 79.6307 357.982 79.6307 358.526ZM88.5597 363.154C88.0658 363.154 87.6283 363.07 87.2472 362.901C86.8693 362.728 86.5677 362.466 86.3423 362.115C86.117 361.764 86.0043 361.344 86.0043 360.857C86.0043 360.526 86.0589 360.231 86.1683 359.972C86.2777 359.714 86.4186 359.503 86.5909 359.341C86.7666 359.179 86.9853 359.041 87.2472 358.928C87.509 358.812 87.7692 358.728 88.0277 358.675C88.2862 358.618 88.5779 358.572 88.9027 358.536C89.6385 358.456 90.0909 358.396 90.2599 358.357C90.5417 358.29 90.7107 358.179 90.767 358.023C90.7836 357.974 90.7919 357.916 90.7919 357.849V357.82C90.7919 357.442 90.6809 357.152 90.4588 356.95C90.2367 356.744 89.9169 356.641 89.4993 356.641C89.085 356.641 88.7436 356.732 88.4751 356.915C88.21 357.097 88.0294 357.329 87.9332 357.611L86.2528 357.372C86.4484 356.689 86.8312 356.167 87.4013 355.806C87.9747 355.445 88.6707 355.264 89.4893 355.264C89.7976 355.264 90.0926 355.291 90.3743 355.344C90.656 355.393 90.9344 355.483 91.2095 355.612C91.4846 355.738 91.7216 355.899 91.9205 356.094C92.1226 356.287 92.285 356.537 92.4077 356.845C92.5303 357.153 92.5916 357.501 92.5916 357.889V363H90.8615V361.951H90.8018C90.6229 362.302 90.3445 362.591 89.9666 362.816C89.5888 363.041 89.1198 363.154 88.5597 363.154ZM89.027 361.832C89.554 361.832 89.9799 361.679 90.3047 361.374C90.6328 361.069 90.7969 360.698 90.7969 360.261V359.361C90.651 359.48 90.1009 359.604 89.1463 359.734C88.2083 359.866 87.7393 360.231 87.7393 360.827C87.7393 361.149 87.857 361.397 88.0923 361.573C88.3277 361.746 88.6392 361.832 89.027 361.832ZM96.201 352.818V363H94.4013V352.818H96.201ZM99.1703 365.849C98.6897 365.849 98.2986 365.784 97.997 365.655L98.4146 364.258C98.6797 364.331 98.9134 364.367 99.1156 364.367C99.3178 364.367 99.4967 364.303 99.6525 364.173C99.8116 364.047 99.9475 363.847 100.06 363.572L100.214 363.159L97.4451 355.364H99.3542L101.114 361.131H101.194L102.959 355.364L104.883 355.374L101.815 363.925C101.351 365.207 100.47 365.849 99.1703 365.849ZM109.945 355.364V356.756H108.439V360.703C108.439 361.038 108.51 361.27 108.652 361.399C108.798 361.525 108.999 361.588 109.254 361.588C109.42 361.588 109.595 361.565 109.781 361.518L110.084 362.925C109.759 363.035 109.406 363.094 109.025 363.104C108.319 363.124 107.744 362.952 107.3 362.587C106.856 362.223 106.636 361.694 106.639 361.001V356.756H105.555V355.364H106.639V353.534H108.439V355.364H109.945ZM111.45 363V355.364H113.25V363H111.45ZM112.355 354.28C112.067 354.28 111.82 354.185 111.614 353.996C111.412 353.804 111.311 353.574 111.311 353.305C111.311 353.034 111.412 352.803 111.614 352.614C111.82 352.422 112.067 352.326 112.355 352.326C112.64 352.326 112.884 352.422 113.086 352.614C113.291 352.803 113.394 353.034 113.394 353.305C113.394 353.574 113.291 353.804 113.086 353.996C112.884 354.185 112.64 354.28 112.355 354.28ZM118.431 363.149C117.686 363.149 117.034 362.982 116.478 362.647C115.921 362.312 115.497 361.848 115.205 361.255C114.917 360.662 114.772 359.981 114.772 359.212C114.772 358.439 114.92 357.755 115.215 357.158C115.51 356.562 115.934 356.098 116.488 355.766C117.041 355.432 117.686 355.264 118.422 355.264C119.353 355.264 120.117 355.514 120.713 356.015C121.31 356.515 121.64 357.18 121.703 358.009H119.983C119.91 357.624 119.739 357.312 119.471 357.074C119.205 356.835 118.864 356.716 118.446 356.716C117.886 356.716 117.437 356.936 117.099 357.377C116.764 357.818 116.597 358.42 116.597 359.182C116.597 359.957 116.763 360.569 117.094 361.016C117.429 361.46 117.88 361.683 118.446 361.683C118.844 361.683 119.181 361.57 119.456 361.344C119.731 361.116 119.906 360.798 119.983 360.39H121.703C121.636 361.215 121.31 361.881 120.723 362.388C120.14 362.896 119.376 363.149 118.431 363.149ZM129.216 357.382L127.575 357.561C127.499 357.286 127.342 357.059 127.103 356.88C126.868 356.698 126.556 356.607 126.169 356.607C125.791 356.607 125.476 356.689 125.224 356.855C124.972 357.018 124.848 357.226 124.851 357.482C124.848 357.704 124.931 357.886 125.1 358.028C125.269 358.168 125.545 358.28 125.93 358.366L127.232 358.645C127.955 358.801 128.492 359.049 128.843 359.391C129.198 359.729 129.377 360.17 129.38 360.713C129.377 361.436 129.072 362.022 128.465 362.473C127.859 362.924 127.077 363.149 126.119 363.149C125.187 363.149 124.437 362.954 123.867 362.562C123.297 362.171 122.955 361.623 122.843 360.917L124.597 360.748C124.674 361.089 124.841 361.349 125.1 361.528C125.361 361.704 125.7 361.792 126.114 361.792C126.535 361.792 126.876 361.706 127.138 361.533C127.403 361.361 127.536 361.142 127.536 360.877C127.536 360.45 127.193 360.16 126.507 360.007L125.204 359.734C123.766 359.435 123.05 358.718 123.056 357.581C123.056 357.117 123.184 356.709 123.439 356.358C123.698 356.007 124.061 355.737 124.528 355.548C124.995 355.359 125.534 355.264 126.144 355.264C127.019 355.264 127.718 355.451 128.242 355.826C128.765 356.201 129.09 356.719 129.216 357.382Z" fill="white"/>
<path d="M303 140C303 135.582 306.582 132 311 132H440C444.418 132 448 135.582 448 140V166C448 170.418 444.418 174 440 174H311C306.582 174 303 170.418 303 166V140Z" fill="#D3EAFF"/>
<path d="M320.849 147.818V158H319.004V147.818H320.849ZM324.566 153.526V158H322.767V150.364H324.487V151.661H324.576C324.755 151.224 325.039 150.882 325.426 150.637C325.817 150.388 326.293 150.264 326.853 150.264C327.652 150.264 328.288 150.518 328.762 151.025C329.236 151.532 329.472 152.236 329.468 153.138V158H327.669V153.416C327.669 152.906 327.536 152.506 327.271 152.218C327.009 151.93 326.646 151.786 326.182 151.786C325.698 151.786 325.307 151.94 325.009 152.248C324.714 152.556 324.566 152.982 324.566 153.526ZM336.941 158V159.437H330.363V158H336.941ZM340.044 158.154C339.55 158.154 339.113 158.07 338.732 157.901C338.354 157.728 338.052 157.466 337.827 157.115C337.601 156.764 337.489 156.344 337.489 155.857C337.489 155.526 337.543 155.231 337.653 154.972C337.762 154.714 337.903 154.503 338.075 154.341C338.251 154.179 338.47 154.041 338.732 153.928C338.993 153.812 339.254 153.728 339.512 153.675C339.771 153.618 340.062 153.572 340.387 153.536C341.123 153.456 341.575 153.396 341.744 153.357C342.026 153.29 342.195 153.179 342.251 153.023C342.268 152.974 342.276 152.916 342.276 152.849V152.82C342.276 152.442 342.165 152.152 341.943 151.95C341.721 151.744 341.401 151.641 340.984 151.641C340.569 151.641 340.228 151.732 339.96 151.915C339.694 152.097 339.514 152.329 339.418 152.611L337.737 152.372C337.933 151.689 338.316 151.167 338.886 150.806C339.459 150.445 340.155 150.264 340.974 150.264C341.282 150.264 341.577 150.291 341.859 150.344C342.14 150.393 342.419 150.483 342.694 150.612C342.969 150.738 343.206 150.899 343.405 151.094C343.607 151.287 343.769 151.537 343.892 151.845C344.015 152.153 344.076 152.501 344.076 152.889V158H342.346V156.951H342.286C342.107 157.302 341.829 157.591 341.451 157.816C341.073 158.041 340.604 158.154 340.044 158.154ZM340.511 156.832C341.038 156.832 341.464 156.679 341.789 156.374C342.117 156.069 342.281 155.698 342.281 155.261V154.361C342.135 154.48 341.585 154.604 340.631 154.734C339.693 154.866 339.224 155.231 339.224 155.827C339.224 156.149 339.341 156.397 339.577 156.573C339.812 156.746 340.124 156.832 340.511 156.832ZM345.886 160.864V150.364H347.656V151.626H347.76C348.211 150.718 348.938 150.264 349.942 150.264C350.387 150.264 350.799 150.35 351.18 150.523C351.562 150.695 351.895 150.944 352.18 151.268C352.465 151.593 352.688 152.008 352.851 152.511C353.013 153.012 353.094 153.572 353.094 154.192C353.094 154.808 353.015 155.367 352.856 155.867C352.697 156.368 352.476 156.782 352.195 157.11C351.913 157.438 351.58 157.692 351.195 157.871C350.814 158.046 350.398 158.134 349.947 158.134C348.943 158.134 348.214 157.688 347.76 156.797H347.685V160.864H345.886ZM348.118 152.397C347.806 152.835 347.651 153.429 347.651 154.182C347.651 154.934 347.808 155.536 348.123 155.987C348.438 156.434 348.879 156.658 349.445 156.658C350.022 156.658 350.468 156.431 350.783 155.977C351.101 155.519 351.26 154.921 351.26 154.182C351.26 153.701 351.192 153.28 351.056 152.919C350.924 152.554 350.72 152.268 350.445 152.059C350.17 151.847 349.836 151.741 349.445 151.741C348.875 151.741 348.433 151.96 348.118 152.397ZM354.636 160.864V150.364H356.406V151.626H356.51C356.961 150.718 357.688 150.264 358.692 150.264C359.137 150.264 359.549 150.35 359.93 150.523C360.312 150.695 360.645 150.944 360.93 151.268C361.215 151.593 361.438 152.008 361.601 152.511C361.763 153.012 361.844 153.572 361.844 154.192C361.844 154.808 361.765 155.367 361.606 155.867C361.447 156.368 361.226 156.782 360.945 157.11C360.663 157.438 360.33 157.692 359.945 157.871C359.564 158.046 359.148 158.134 358.697 158.134C357.693 158.134 356.964 157.688 356.51 156.797H356.435V160.864H354.636ZM356.868 152.397C356.556 152.835 356.401 153.429 356.401 154.182C356.401 154.934 356.558 155.536 356.873 155.987C357.188 156.434 357.629 156.658 358.195 156.658C358.772 156.658 359.218 156.431 359.533 155.977C359.851 155.519 360.01 154.921 360.01 154.182C360.01 153.701 359.942 153.28 359.806 152.919C359.674 152.554 359.47 152.268 359.195 152.059C358.92 151.847 358.586 151.741 358.195 151.741C357.625 151.741 357.183 151.96 356.868 152.397ZM369.028 158V159.437H362.451V158H369.028ZM370.577 160.864V150.364H372.347V151.626H372.451C372.902 150.718 373.63 150.264 374.634 150.264C375.078 150.264 375.491 150.35 375.872 150.523C376.253 150.695 376.586 150.944 376.871 151.268C377.156 151.593 377.38 152.008 377.542 152.511C377.705 153.012 377.786 153.572 377.786 154.192C377.786 154.808 377.706 155.367 377.547 155.867C377.388 156.368 377.168 156.782 376.886 157.11C376.604 157.438 376.271 157.692 375.887 157.871C375.506 158.046 375.09 158.134 374.639 158.134C373.635 158.134 372.905 157.688 372.451 156.797H372.377V160.864H370.577ZM372.809 152.397C372.498 152.835 372.342 153.429 372.342 154.182C372.342 154.934 372.499 155.536 372.814 155.987C373.129 156.434 373.57 156.658 374.137 156.658C374.713 156.658 375.159 156.431 375.474 155.977C375.792 155.519 375.951 154.921 375.951 154.182C375.951 153.701 375.883 153.28 375.748 152.919C375.615 152.554 375.411 152.268 375.136 152.059C374.861 151.847 374.528 151.741 374.137 151.741C373.567 151.741 373.124 151.96 372.809 152.397ZM384.194 154.788V150.364H385.994V158H384.249V156.643H384.169C383.99 157.087 383.7 157.442 383.299 157.707C382.902 157.969 382.426 158.099 381.873 158.099C381.107 158.099 380.49 157.846 380.023 157.339C379.559 156.832 379.327 156.127 379.327 155.226V150.364H381.127V154.947C381.127 155.431 381.258 155.816 381.52 156.101C381.785 156.386 382.134 156.528 382.569 156.528C382.771 156.528 382.966 156.492 383.155 156.419C383.347 156.343 383.521 156.235 383.677 156.096C383.833 155.957 383.957 155.774 384.05 155.549C384.146 155.32 384.194 155.067 384.194 154.788ZM387.845 158V150.364H389.59V151.636H389.669C389.805 151.199 390.042 150.859 390.38 150.617C390.718 150.375 391.109 150.254 391.553 150.254C391.802 150.254 392.017 150.271 392.2 150.304V151.96C391.984 151.89 391.706 151.855 391.365 151.855C390.867 151.855 390.456 152.011 390.132 152.322C389.807 152.631 389.644 153.027 389.644 153.511V158H387.845ZM396.412 158.149C395.666 158.149 395.015 157.982 394.458 157.647C393.901 157.312 393.477 156.848 393.185 156.255C392.897 155.662 392.753 154.981 392.753 154.212C392.753 153.439 392.9 152.755 393.195 152.158C393.49 151.562 393.915 151.098 394.468 150.766C395.022 150.432 395.666 150.264 396.402 150.264C397.333 150.264 398.097 150.514 398.694 151.015C399.29 151.515 399.62 152.18 399.683 153.009H397.963C397.89 152.624 397.719 152.312 397.451 152.074C397.186 151.835 396.844 151.716 396.427 151.716C395.867 151.716 395.418 151.936 395.08 152.377C394.745 152.818 394.577 153.42 394.577 154.182C394.577 154.957 394.743 155.569 395.075 156.016C395.409 156.46 395.86 156.683 396.427 156.683C396.825 156.683 397.161 156.57 397.436 156.344C397.711 156.116 397.887 155.798 397.963 155.39H399.683C399.617 156.215 399.29 156.881 398.704 157.388C398.121 157.896 397.357 158.149 396.412 158.149ZM402.961 153.526V158H401.161V147.818H402.921V151.661H403.01C403.193 151.217 403.473 150.874 403.851 150.632C404.232 150.387 404.709 150.264 405.282 150.264C406.088 150.264 406.728 150.516 407.202 151.02C407.675 151.524 407.912 152.23 407.912 153.138V158H406.113V153.416C406.113 152.902 405.98 152.503 405.715 152.218C405.453 151.93 405.085 151.786 404.611 151.786C404.117 151.786 403.718 151.941 403.413 152.253C403.112 152.561 402.961 152.985 402.961 153.526ZM411.944 158.154C411.451 158.154 411.013 158.07 410.632 157.901C410.254 157.728 409.952 157.466 409.727 157.115C409.502 156.764 409.389 156.344 409.389 155.857C409.389 155.526 409.444 155.231 409.553 154.972C409.662 154.714 409.803 154.503 409.976 154.341C410.151 154.179 410.37 154.041 410.632 153.928C410.894 153.812 411.154 153.728 411.412 153.675C411.671 153.618 411.963 153.572 412.287 153.536C413.023 153.456 413.476 153.396 413.645 153.357C413.926 153.29 414.095 153.179 414.152 153.023C414.168 152.974 414.177 152.916 414.177 152.849V152.82C414.177 152.442 414.066 152.152 413.844 151.95C413.622 151.744 413.302 151.641 412.884 151.641C412.47 151.641 412.128 151.732 411.86 151.915C411.595 152.097 411.414 152.329 411.318 152.611L409.638 152.372C409.833 151.689 410.216 151.167 410.786 150.806C411.359 150.445 412.055 150.264 412.874 150.264C413.182 150.264 413.477 150.291 413.759 150.344C414.041 150.393 414.319 150.483 414.594 150.612C414.869 150.738 415.106 150.899 415.305 151.094C415.507 151.287 415.67 151.537 415.792 151.845C415.915 152.153 415.976 152.501 415.976 152.889V158H414.246V156.951H414.187C414.008 157.302 413.729 157.591 413.351 157.816C412.974 158.041 412.505 158.154 411.944 158.154ZM412.412 156.832C412.939 156.832 413.365 156.679 413.689 156.374C414.018 156.069 414.182 155.698 414.182 155.261V154.361C414.036 154.48 413.486 154.604 412.531 154.734C411.593 154.866 411.124 155.231 411.124 155.827C411.124 156.149 411.242 156.397 411.477 156.573C411.712 156.746 412.024 156.832 412.412 156.832ZM423.822 152.382L422.181 152.561C422.105 152.286 421.947 152.059 421.709 151.88C421.473 151.698 421.162 151.607 420.774 151.607C420.396 151.607 420.081 151.689 419.829 151.855C419.577 152.018 419.453 152.226 419.456 152.482C419.453 152.704 419.536 152.886 419.705 153.028C419.874 153.168 420.151 153.28 420.535 153.366L421.838 153.645C422.56 153.801 423.097 154.049 423.449 154.391C423.803 154.729 423.982 155.17 423.986 155.713C423.982 156.436 423.677 157.022 423.071 157.473C422.464 157.924 421.682 158.149 420.724 158.149C419.793 158.149 419.042 157.954 418.472 157.562C417.902 157.171 417.561 156.623 417.448 155.917L419.203 155.748C419.279 156.089 419.447 156.349 419.705 156.528C419.967 156.704 420.305 156.792 420.719 156.792C421.14 156.792 421.482 156.706 421.743 156.533C422.009 156.361 422.141 156.142 422.141 155.877C422.141 155.45 421.798 155.16 421.112 155.007L419.809 154.734C418.371 154.435 417.655 153.718 417.662 152.581C417.662 152.117 417.789 151.709 418.045 151.358C418.303 151.007 418.666 150.737 419.133 150.548C419.601 150.359 420.139 150.264 420.749 150.264C421.624 150.264 422.323 150.451 422.847 150.826C423.371 151.201 423.696 151.719 423.822 152.382ZM428.85 158.149C427.704 158.149 426.799 157.796 426.136 157.09C425.473 156.384 425.142 155.43 425.142 154.227C425.142 153.448 425.289 152.758 425.584 152.158C425.882 151.558 426.305 151.093 426.852 150.761C427.402 150.43 428.037 150.264 428.756 150.264C429.236 150.264 429.682 150.342 430.093 150.498C430.508 150.65 430.877 150.879 431.202 151.184C431.527 151.489 431.782 151.893 431.968 152.397C432.153 152.897 432.246 153.473 432.246 154.122V154.674H426.926C426.933 155.32 427.112 155.827 427.463 156.195C427.818 156.563 428.289 156.747 428.875 156.747C429.27 156.747 429.608 156.663 429.889 156.494C430.171 156.325 430.372 156.081 430.491 155.763L432.171 155.952C432.009 156.625 431.634 157.16 431.048 157.558C430.461 157.952 429.729 158.149 428.85 158.149ZM426.931 153.461H430.521C430.514 152.937 430.35 152.508 430.029 152.173C429.71 151.835 429.294 151.666 428.781 151.666C428.257 151.666 427.825 151.84 427.483 152.188C427.145 152.533 426.961 152.957 426.931 153.461Z" fill="black"/>
<path d="M303 222C303 217.582 306.582 214 311 214H440C444.418 214 448 217.582 448 222V248C448 252.418 444.418 256 440 256H311C306.582 256 303 252.418 303 248V222Z" fill="#D3EAFF"/>
<path d="M329.538 232.617C329.491 232.186 329.297 231.85 328.956 231.608C328.615 231.363 328.169 231.24 327.619 231.24C327.052 231.24 326.603 231.364 326.271 231.613C325.943 231.858 325.777 232.176 325.774 232.567C325.771 232.77 325.817 232.952 325.913 233.114C326.013 233.273 326.152 233.408 326.331 233.517C326.51 233.626 326.691 233.716 326.873 233.786C327.055 233.852 327.266 233.913 327.504 233.969L328.459 234.208C328.784 234.284 329.084 234.375 329.359 234.482C329.637 234.588 329.907 234.723 330.169 234.889C330.434 235.055 330.658 235.242 330.84 235.451C331.022 235.656 331.17 235.905 331.283 236.197C331.395 236.485 331.452 236.8 331.452 237.141C331.448 238.053 331.104 238.784 330.418 239.334C329.735 239.881 328.792 240.154 327.589 240.154C326.392 240.154 325.443 239.879 324.74 239.329C324.041 238.775 323.673 237.996 323.636 236.992H325.451C325.487 237.509 325.7 237.904 326.087 238.175C326.475 238.444 326.971 238.578 327.574 238.578C328.177 238.578 328.666 238.446 329.04 238.18C329.415 237.912 329.604 237.561 329.607 237.126C329.607 236.871 329.526 236.652 329.364 236.47C329.205 236.285 329.001 236.139 328.752 236.033C328.504 235.923 328.179 235.817 327.778 235.714L326.619 235.416C324.81 234.949 323.905 234.037 323.905 232.682C323.905 232.092 324.067 231.568 324.392 231.111C324.717 230.65 325.163 230.297 325.729 230.052C326.296 229.803 326.934 229.679 327.643 229.679C328.356 229.679 328.989 229.805 329.543 230.057C330.096 230.305 330.527 230.652 330.835 231.096C331.143 231.54 331.303 232.047 331.312 232.617H329.538ZM336.347 240.149C335.602 240.149 334.95 239.982 334.394 239.647C333.837 239.312 333.413 238.848 333.121 238.255C332.833 237.662 332.688 236.981 332.688 236.212C332.688 235.439 332.836 234.755 333.131 234.158C333.426 233.562 333.85 233.098 334.404 232.766C334.957 232.432 335.602 232.264 336.338 232.264C337.269 232.264 338.033 232.514 338.629 233.015C339.226 233.515 339.556 234.18 339.619 235.009H337.899C337.826 234.624 337.655 234.312 337.387 234.074C337.121 233.835 336.78 233.716 336.362 233.716C335.802 233.716 335.353 233.936 335.015 234.377C334.68 234.818 334.513 235.42 334.513 236.182C334.513 236.957 334.679 237.569 335.01 238.016C335.345 238.46 335.796 238.683 336.362 238.683C336.76 238.683 337.097 238.57 337.372 238.344C337.647 238.116 337.822 237.798 337.899 237.39H339.619C339.552 238.215 339.226 238.881 338.639 239.388C338.056 239.896 337.292 240.149 336.347 240.149ZM341.097 240V232.364H342.842V233.636H342.921C343.057 233.199 343.294 232.859 343.632 232.617C343.97 232.375 344.361 232.254 344.805 232.254C345.054 232.254 345.269 232.271 345.452 232.304V233.96C345.236 233.89 344.958 233.855 344.616 233.855C344.119 233.855 343.708 234.011 343.384 234.322C343.059 234.631 342.896 235.027 342.896 235.511V240H341.097ZM349.714 240.149C348.567 240.149 347.662 239.796 346.999 239.09C346.336 238.384 346.005 237.43 346.005 236.227C346.005 235.448 346.152 234.758 346.447 234.158C346.746 233.558 347.168 233.093 347.715 232.761C348.265 232.43 348.9 232.264 349.619 232.264C350.1 232.264 350.546 232.342 350.956 232.498C351.371 232.65 351.74 232.879 352.065 233.184C352.39 233.489 352.645 233.893 352.831 234.397C353.016 234.897 353.109 235.473 353.109 236.122V236.674H347.79C347.796 237.32 347.975 237.827 348.327 238.195C348.681 238.563 349.152 238.747 349.738 238.747C350.133 238.747 350.471 238.663 350.753 238.494C351.034 238.325 351.235 238.081 351.354 237.763L353.035 237.952C352.872 238.625 352.498 239.16 351.911 239.558C351.324 239.952 350.592 240.149 349.714 240.149ZM347.795 235.461H351.384C351.377 234.937 351.213 234.508 350.892 234.173C350.574 233.835 350.158 233.666 349.644 233.666C349.12 233.666 348.688 233.84 348.346 234.188C348.008 234.533 347.824 234.957 347.795 235.461ZM358.012 240.149C356.866 240.149 355.961 239.796 355.298 239.09C354.635 238.384 354.304 237.43 354.304 236.227C354.304 235.448 354.451 234.758 354.746 234.158C355.044 233.558 355.467 233.093 356.014 232.761C356.564 232.43 357.199 232.264 357.918 232.264C358.399 232.264 358.844 232.342 359.255 232.498C359.67 232.65 360.039 232.879 360.364 233.184C360.689 233.489 360.944 233.893 361.13 234.397C361.315 234.897 361.408 235.473 361.408 236.122V236.674H356.088C356.095 237.32 356.274 237.827 356.625 238.195C356.98 238.563 357.451 238.747 358.037 238.747C358.432 238.747 358.77 238.663 359.051 238.494C359.333 238.325 359.534 238.081 359.653 237.763L361.333 237.952C361.171 238.625 360.797 239.16 360.21 239.558C359.623 239.952 358.891 240.149 358.012 240.149ZM356.093 235.461H359.683C359.676 234.937 359.512 234.508 359.191 234.173C358.873 233.835 358.457 233.666 357.943 233.666C357.419 233.666 356.987 233.84 356.645 234.188C356.307 234.533 356.123 234.957 356.093 235.461ZM364.73 235.526V240H362.931V232.364H364.651V233.661H364.74C364.919 233.224 365.203 232.882 365.59 232.637C365.981 232.388 366.457 232.264 367.017 232.264C367.816 232.264 368.452 232.518 368.926 233.025C369.4 233.532 369.636 234.236 369.632 235.138V240H367.833V235.416C367.833 234.906 367.7 234.506 367.435 234.218C367.173 233.93 366.81 233.786 366.346 233.786C365.862 233.786 365.471 233.94 365.173 234.248C364.878 234.556 364.73 234.982 364.73 235.526ZM377.105 240V241.437H370.527V240H377.105ZM383.724 232.364L381.005 240H379.016L376.297 232.364H378.216L379.971 238.036H380.05L381.81 232.364H383.724ZM388.091 240.149C386.944 240.149 386.039 239.796 385.376 239.09C384.713 238.384 384.382 237.43 384.382 236.227C384.382 235.448 384.529 234.758 384.824 234.158C385.123 233.558 385.545 233.093 386.092 232.761C386.642 232.43 387.277 232.264 387.996 232.264C388.477 232.264 388.922 232.342 389.333 232.498C389.748 232.65 390.117 232.879 390.442 233.184C390.767 233.489 391.022 233.893 391.208 234.397C391.393 234.897 391.486 235.473 391.486 236.122V236.674H386.167C386.173 237.32 386.352 237.827 386.703 238.195C387.058 238.563 387.529 238.747 388.115 238.747C388.51 238.747 388.848 238.663 389.13 238.494C389.411 238.325 389.612 238.081 389.731 237.763L391.412 237.952C391.249 238.625 390.875 239.16 390.288 239.558C389.701 239.952 388.969 240.149 388.091 240.149ZM386.172 235.461H389.761C389.754 234.937 389.59 234.508 389.269 234.173C388.951 233.835 388.535 233.666 388.021 233.666C387.497 233.666 387.065 233.84 386.723 234.188C386.385 234.533 386.201 234.957 386.172 235.461ZM393.009 240V232.364H394.754V233.636H394.833C394.969 233.199 395.206 232.859 395.544 232.617C395.882 232.375 396.273 232.254 396.718 232.254C396.966 232.254 397.182 232.271 397.364 232.304V233.96C397.148 233.89 396.87 233.855 396.529 233.855C396.031 233.855 395.62 234.011 395.296 234.322C394.971 234.631 394.808 235.027 394.808 235.511V240H393.009ZM404.595 234.382L402.954 234.561C402.878 234.286 402.721 234.059 402.482 233.88C402.247 233.698 401.935 233.607 401.547 233.607C401.17 233.607 400.855 233.689 400.603 233.855C400.351 234.018 400.227 234.226 400.23 234.482C400.227 234.704 400.309 234.886 400.479 235.028C400.648 235.168 400.924 235.28 401.309 235.366L402.611 235.645C403.334 235.801 403.871 236.049 404.222 236.391C404.577 236.729 404.756 237.17 404.759 237.713C404.756 238.436 404.451 239.022 403.844 239.473C403.238 239.924 402.456 240.149 401.498 240.149C400.566 240.149 399.816 239.954 399.246 239.562C398.675 239.171 398.334 238.623 398.221 237.917L399.976 237.748C400.053 238.089 400.22 238.349 400.479 238.528C400.74 238.704 401.078 238.792 401.493 238.792C401.914 238.792 402.255 238.706 402.517 238.533C402.782 238.361 402.915 238.142 402.915 237.877C402.915 237.45 402.572 237.16 401.885 237.007L400.583 236.734C399.144 236.435 398.429 235.718 398.435 234.581C398.435 234.117 398.563 233.709 398.818 233.358C399.077 233.007 399.439 232.737 399.907 232.548C400.374 232.359 400.913 232.264 401.523 232.264C402.398 232.264 403.097 232.451 403.621 232.826C404.144 233.201 404.469 233.719 404.595 234.382ZM406.243 240V232.364H408.043V240H406.243ZM407.148 231.28C406.86 231.28 406.613 231.185 406.407 230.996C406.205 230.804 406.104 230.574 406.104 230.305C406.104 230.034 406.205 229.803 406.407 229.614C406.613 229.422 406.86 229.326 407.148 229.326C407.433 229.326 407.677 229.422 407.879 229.614C408.084 229.803 408.187 230.034 408.187 230.305C408.187 230.574 408.084 230.804 407.879 230.996C407.677 231.185 407.433 231.28 407.148 231.28ZM415.158 239.662C414.605 239.987 413.96 240.149 413.224 240.149C412.489 240.149 411.842 239.987 411.286 239.662C410.732 239.334 410.306 238.873 410.008 238.28C409.713 237.683 409.565 236.994 409.565 236.212C409.565 235.429 409.713 234.74 410.008 234.143C410.306 233.547 410.732 233.085 411.286 232.756C411.842 232.428 412.489 232.264 413.224 232.264C413.96 232.264 414.605 232.428 415.158 232.756C415.715 233.085 416.141 233.547 416.436 234.143C416.734 234.74 416.884 235.429 416.884 236.212C416.884 236.994 416.734 237.683 416.436 238.28C416.141 238.873 415.715 239.334 415.158 239.662ZM413.234 238.707C413.629 238.707 413.965 238.595 414.244 238.369C414.522 238.144 414.728 237.847 414.86 237.479C414.993 237.108 415.059 236.684 415.059 236.207C415.059 235.729 414.993 235.305 414.86 234.934C414.731 234.563 414.525 234.263 414.244 234.034C413.965 233.805 413.629 233.691 413.234 233.691C412.933 233.691 412.663 233.757 412.424 233.89C412.189 234.019 411.996 234.198 411.847 234.427C411.698 234.656 411.584 234.921 411.504 235.222C411.428 235.524 411.39 235.852 411.39 236.207C411.39 236.684 411.456 237.108 411.589 237.479C411.721 237.847 411.929 238.144 412.21 238.369C412.492 238.595 412.833 238.707 413.234 238.707ZM420.211 235.526V240H418.411V232.364H420.131V233.661H420.221C420.4 233.224 420.683 232.882 421.071 232.637C421.462 232.388 421.938 232.264 422.498 232.264C423.296 232.264 423.933 232.518 424.407 233.025C424.881 233.532 425.116 234.236 425.113 235.138V240H423.313V235.416C423.313 234.906 423.18 234.506 422.915 234.218C422.653 233.93 422.291 233.786 421.827 233.786C421.343 233.786 420.952 233.94 420.653 234.248C420.358 234.556 420.211 234.982 420.211 235.526Z" fill="black"/>
<rect x="538" y="154" width="229" height="71" rx="8" fill="#0085FF"/>
<rect x="533" y="149" width="239" height="81" rx="13" stroke="#0085FF" stroke-opacity="0.12" stroke-width="10"/>
<rect x="523" y="139" width="259" height="101" rx="23" stroke="#0085FF" stroke-opacity="0.06" stroke-width="10"/>
<path d="M596.335 189.909C596.335 192.185 595.973 194.217 595.249 196.007C594.524 197.788 593.506 199.267 592.193 200.443L595.939 205.148H590.774L588.665 202.553C587.259 203.089 585.729 203.358 584.075 203.358C582.328 203.358 580.709 203.055 579.217 202.45C577.726 201.837 576.43 200.967 575.331 199.842C574.232 198.717 573.371 197.303 572.749 195.598C572.126 193.893 571.815 191.997 571.815 189.909C571.815 187.812 572.126 185.912 572.749 184.207C573.371 182.503 574.232 181.088 575.331 179.963C576.43 178.838 577.726 177.973 579.217 177.368C580.709 176.763 582.328 176.46 584.075 176.46C585.814 176.46 587.429 176.763 588.92 177.368C590.412 177.973 591.707 178.838 592.807 179.963C593.906 181.088 594.767 182.503 595.389 184.207C596.02 185.912 596.335 187.812 596.335 189.909ZM582.158 193.898H586.862L588.805 196.391C590.084 194.874 590.723 192.713 590.723 189.909C590.723 187.182 590.126 185.077 588.933 183.594C587.74 182.102 586.121 181.357 584.075 181.357C582.03 181.357 580.411 182.102 579.217 183.594C578.024 185.077 577.428 187.182 577.428 189.909C577.428 192.636 578.024 194.746 579.217 196.237C580.411 197.72 582.03 198.462 584.075 198.462C584.561 198.462 585.038 198.415 585.507 198.321L582.158 193.898ZM614.345 202.118C612.879 202.962 611.166 203.384 609.206 203.384C607.245 203.384 605.532 202.962 604.066 202.118C602.6 201.274 601.48 200.089 600.704 198.564C599.929 197.03 599.541 195.261 599.541 193.259C599.541 190.199 600.41 187.744 602.149 185.895C603.896 184.037 606.248 183.108 609.206 183.108C612.163 183.108 614.511 184.037 616.25 185.895C617.997 187.744 618.87 190.199 618.87 193.259C618.87 195.261 618.483 197.03 617.707 198.564C616.931 200.089 615.811 201.274 614.345 202.118ZM609.231 199.165C610.544 199.165 611.554 198.619 612.261 197.528C612.977 196.429 613.335 194.993 613.335 193.22C613.335 191.447 612.977 190.011 612.261 188.912C611.554 187.812 610.544 187.263 609.231 187.263C607.902 187.263 606.875 187.812 606.15 188.912C605.434 190.003 605.076 191.439 605.076 193.22C605.076 194.993 605.434 196.429 606.15 197.528C606.875 198.619 607.902 199.165 609.231 199.165ZM627.858 191.648V203H622.412V183.364H627.602V186.828H627.832C628.284 185.669 629.021 184.761 630.044 184.105C631.066 183.44 632.298 183.108 633.738 183.108C635.792 183.108 637.433 183.773 638.66 185.102C639.896 186.423 640.514 188.222 640.514 190.497V203H635.068V191.469C635.076 190.267 634.77 189.33 634.147 188.656C633.525 187.974 632.669 187.634 631.578 187.634C630.461 187.634 629.562 187.991 628.88 188.707C628.207 189.423 627.866 190.403 627.858 191.648ZM662.41 183.364L655.545 203H649.408L642.543 183.364H648.296L652.374 197.413H652.579L656.644 183.364H662.41ZM673.478 203.384C670.461 203.384 668.083 202.48 666.344 200.673C664.605 198.858 663.736 196.391 663.736 193.271C663.736 191.268 664.124 189.5 664.9 187.966C665.684 186.423 666.796 185.23 668.236 184.386C669.685 183.534 671.36 183.108 673.26 183.108C674.573 183.108 675.783 183.321 676.891 183.747C678.007 184.165 678.983 184.778 679.819 185.588C680.654 186.389 681.306 187.433 681.775 188.72C682.252 189.999 682.49 191.452 682.49 193.08V194.575H669.118V194.588C669.118 196.045 669.519 197.2 670.32 198.053C671.121 198.896 672.203 199.318 673.567 199.318C674.488 199.318 675.276 199.126 675.932 198.743C676.597 198.351 677.066 197.784 677.338 197.043L682.375 197.375C681.983 199.216 681.003 200.678 679.435 201.76C677.867 202.842 675.881 203.384 673.478 203.384ZM669.118 191.2H677.364C677.355 190.024 676.976 189.061 676.226 188.311C675.485 187.553 674.526 187.173 673.35 187.173C672.165 187.173 671.176 187.561 670.384 188.337C669.6 189.104 669.178 190.058 669.118 191.2ZM686.044 203V183.364H691.324V186.79H691.529C691.878 185.597 692.471 184.68 693.306 184.041C694.141 183.402 695.121 183.082 696.246 183.082C696.851 183.082 697.422 183.146 697.959 183.274V188.107C697.354 187.911 696.587 187.812 695.658 187.812C694.448 187.812 693.451 188.192 692.667 188.95C691.882 189.709 691.49 190.689 691.49 191.891V203H686.044ZM712.204 183.364V187.455H708.509V196.966C708.509 197.673 708.667 198.172 708.982 198.462C709.298 198.743 709.754 198.884 710.35 198.884C710.623 198.884 711.075 198.824 711.705 198.705L712.562 202.757C711.633 203.064 710.648 203.234 709.609 203.268C707.589 203.354 705.991 202.915 704.815 201.952C703.638 200.989 703.055 199.565 703.063 197.682V187.455H700.379V183.364H703.063V178.659H708.509V183.364H712.204ZM719.114 210.325C717.724 210.325 716.582 210.142 715.688 209.776L716.915 205.697C717.588 205.911 718.163 206.021 718.641 206.03C719.118 206.038 719.553 205.911 719.945 205.646C720.345 205.391 720.669 204.973 720.916 204.393L721.236 203.562L714.192 183.364H719.919L723.984 197.784H724.189L728.293 183.364L734.058 183.389L726.426 205.122C725.216 208.591 722.778 210.325 719.114 210.325Z" fill="white"/>
<path d="M850 167C850 162.582 853.582 159 858 159H987C991.418 159 995 162.582 995 167V217C995 221.418 991.418 225 987 225H858C853.582 225 850 221.418 850 217V167Z" fill="#D3EAFF"/>
<path d="M913.739 207.608V205.043H911.173V202.815H913.739V200.25H915.966V202.815H918.531V205.043H915.966V207.608H913.739ZM925.375 198.818V209H922.61V201.364H922.551L920.324 202.696V200.349L922.829 198.818H925.375ZM931.9 209.278C930.504 209.275 929.406 208.801 928.604 207.857C927.802 206.909 927.402 205.599 927.406 203.929C927.409 202.822 927.591 201.874 927.952 201.085C928.317 200.293 928.834 199.695 929.504 199.29C930.176 198.883 930.975 198.679 931.9 198.679C932.589 198.679 933.212 198.797 933.769 199.032C934.326 199.264 934.798 199.602 935.186 200.046C935.574 200.487 935.872 201.037 936.081 201.697C936.29 202.356 936.394 203.1 936.394 203.929C936.391 205.606 935.988 206.919 935.186 207.866C934.387 208.811 933.292 209.282 931.9 209.278ZM930.707 206.256C931.002 206.773 931.399 207.031 931.9 207.031C932.4 207.031 932.798 206.773 933.093 206.256C933.388 205.735 933.534 204.96 933.531 203.929C933.527 202.918 933.38 202.162 933.088 201.662C932.796 201.158 932.4 200.906 931.9 200.906C931.403 200.906 931.007 201.158 930.712 201.662C930.42 202.162 930.272 202.918 930.269 203.929C930.266 204.96 930.412 205.735 930.707 206.256ZM942.126 209.278C940.731 209.275 939.632 208.801 938.83 207.857C938.028 206.909 937.629 205.599 937.632 203.929C937.635 202.822 937.818 201.874 938.179 201.085C938.544 200.293 939.061 199.695 939.73 199.29C940.403 198.883 941.202 198.679 942.126 198.679C942.816 198.679 943.439 198.797 943.996 199.032C944.553 199.264 945.025 199.602 945.413 200.046C945.8 200.487 946.099 201.037 946.308 201.697C946.516 202.356 946.621 203.1 946.621 203.929C946.617 205.606 946.215 206.919 945.413 207.866C944.614 208.811 943.518 209.282 942.126 209.278ZM940.933 206.256C941.228 206.773 941.626 207.031 942.126 207.031C942.627 207.031 943.025 206.773 943.32 206.256C943.615 205.735 943.76 204.96 943.757 203.929C943.754 202.918 943.606 202.162 943.315 201.662C943.023 201.158 942.627 200.906 942.126 200.906C941.629 200.906 941.233 201.158 940.938 201.662C940.647 202.162 940.499 202.918 940.496 203.929C940.492 204.96 940.638 205.735 940.933 206.256ZM953.745 207.091V206.554C953.748 206.116 953.841 205.719 954.023 205.361C954.206 205 954.481 204.708 954.849 204.486C955.22 204.26 955.654 204.148 956.151 204.148C956.536 204.148 956.884 204.212 957.195 204.342C957.507 204.468 957.762 204.642 957.961 204.864C958.163 205.082 958.317 205.336 958.423 205.624C958.529 205.913 958.581 206.223 958.577 206.554V207.091C958.581 207.528 958.49 207.928 958.304 208.289C958.122 208.647 957.843 208.937 957.469 209.159C957.094 209.384 956.655 209.497 956.151 209.497C955.773 209.497 955.43 209.433 955.122 209.303C954.814 209.174 954.56 208.998 954.362 208.776C954.166 208.554 954.015 208.301 953.909 208.016C953.803 207.727 953.748 207.419 953.745 207.091ZM948.415 201.264V200.727C948.419 200.283 948.513 199.882 948.699 199.524C948.884 199.163 949.161 198.873 949.529 198.654C949.9 198.432 950.331 198.321 950.822 198.321C951.206 198.321 951.554 198.386 951.866 198.515C952.177 198.641 952.433 198.815 952.631 199.037C952.834 199.256 952.988 199.509 953.094 199.798C953.2 200.086 953.251 200.396 953.248 200.727V201.264C953.251 201.708 953.16 202.109 952.974 202.467C952.792 202.822 952.514 203.109 952.139 203.327C951.765 203.543 951.326 203.651 950.822 203.651C950.444 203.651 950.101 203.588 949.793 203.462C949.484 203.332 949.231 203.158 949.032 202.94C948.836 202.721 948.686 202.469 948.58 202.184C948.473 201.899 948.419 201.592 948.415 201.264ZM948.972 209L955.972 198.818H957.384L950.384 209H948.972ZM955.475 206.554V207.091C955.482 207.32 955.536 207.517 955.639 207.683C955.742 207.845 955.913 207.926 956.151 207.926C956.4 207.926 956.576 207.847 956.678 207.688C956.784 207.525 956.834 207.326 956.827 207.091V206.554C956.831 206.445 956.822 206.344 956.803 206.251C956.786 206.158 956.754 206.068 956.708 205.982C956.662 205.893 956.59 205.823 956.494 205.773C956.402 205.724 956.287 205.699 956.151 205.699C955.913 205.699 955.742 205.782 955.639 205.947C955.536 206.113 955.482 206.315 955.475 206.554ZM950.165 200.727V201.264C950.172 201.5 950.225 201.698 950.325 201.861C950.424 202.02 950.59 202.099 950.822 202.099C951.07 202.099 951.246 202.02 951.349 201.861C951.455 201.698 951.504 201.5 951.498 201.264V200.727C951.501 200.618 951.493 200.517 951.473 200.424C951.456 200.331 951.425 200.242 951.379 200.156C951.332 200.066 951.261 199.996 951.165 199.947C951.072 199.897 950.958 199.872 950.822 199.872C950.401 199.872 950.182 200.157 950.165 200.727Z" fill="#0085FF"/>
<g clip-path="url(#clip0)">
<path d="M899.125 204C898.918 204 898.75 203.832 898.75 203.625C898.75 203.418 898.918 203.25 899.125 203.25C901.195 203.247 902.872 201.57 902.875 199.5V196.5H899.5C899.293 196.5 899.125 196.332 899.125 196.125C899.125 195.918 899.293 195.75 899.5 195.75H903.25C903.457 195.75 903.625 195.918 903.625 196.125V199.5C903.622 201.984 901.609 203.997 899.125 204Z" fill="#FFA000"/>
<path d="M890.875 204.001C888.391 203.998 886.378 201.985 886.375 199.501V196.126C886.375 195.919 886.543 195.751 886.75 195.751H890.5C890.707 195.751 890.875 195.919 890.875 196.126C890.875 196.333 890.707 196.501 890.5 196.501H887.125V199.501C887.127 201.571 888.805 203.248 890.875 203.251C891.082 203.251 891.25 203.419 891.25 203.626C891.25 203.833 891.082 204.001 890.875 204.001Z" fill="#FFA000"/>
<path d="M897.345 209.946L897.143 209.739C896.357 208.93 896.141 206.67 896.125 205.867C896.121 205.663 895.954 205.5 895.75 205.5H894.25C894.046 205.5 893.879 205.663 893.875 205.867C893.859 206.669 893.643 208.928 892.856 209.738L892.655 209.945C891.625 211.005 890.875 211.771 890.875 212.625C890.875 212.832 891.043 213 891.25 213H898.75C898.957 213 899.125 212.832 899.125 212.625C899.125 211.771 898.375 211.005 897.345 209.946Z" fill="#FFA000"/>
<path d="M899.5 195H890.5C890.293 195 890.125 195.168 890.125 195.375V201.375C890.16 204.053 892.322 206.215 895 206.25C897.678 206.215 899.84 204.053 899.875 201.375V195.375C899.875 195.168 899.707 195 899.5 195Z" fill="#FFC107"/>
</g>
<path d="M867.719 178.254H865.86C865.754 177.654 865.481 177.185 865.04 176.847C864.602 176.505 864.069 176.335 863.439 176.335C862.587 176.335 861.901 176.649 861.381 177.279C860.86 177.909 860.6 178.786 860.6 179.909C860.6 181.046 860.859 181.926 861.376 182.549C861.896 183.172 862.582 183.484 863.434 183.484C864.054 183.484 864.584 183.32 865.025 182.991C865.466 182.663 865.744 182.206 865.86 181.619L867.719 181.629C867.65 182.116 867.497 182.574 867.262 183.001C867.03 183.426 866.732 183.797 866.367 184.115C866.006 184.433 865.57 184.683 865.06 184.866C864.549 185.048 863.999 185.139 863.409 185.139C862.74 185.139 862.12 185.02 861.55 184.781C860.98 184.543 860.486 184.203 860.068 183.762C859.654 183.321 859.329 182.771 859.094 182.112C858.862 181.449 858.746 180.714 858.746 179.909C858.746 179.104 858.863 178.371 859.099 177.712C859.337 177.049 859.664 176.497 860.078 176.056C860.496 175.615 860.988 175.276 861.555 175.037C862.125 174.798 862.743 174.679 863.409 174.679C864.556 174.679 865.522 174.997 866.308 175.634C867.093 176.267 867.564 177.14 867.719 178.254ZM874.594 184.662C874.04 184.987 873.396 185.149 872.66 185.149C871.924 185.149 871.278 184.987 870.721 184.662C870.168 184.334 869.742 183.873 869.443 183.28C869.148 182.683 869.001 181.994 869.001 181.212C869.001 180.429 869.148 179.74 869.443 179.143C869.742 178.547 870.168 178.085 870.721 177.756C871.278 177.428 871.924 177.264 872.66 177.264C873.396 177.264 874.04 177.428 874.594 177.756C875.151 178.085 875.577 178.547 875.872 179.143C876.17 179.74 876.319 180.429 876.319 181.212C876.319 181.994 876.17 182.683 875.872 183.28C875.577 183.873 875.151 184.334 874.594 184.662ZM872.67 183.707C873.064 183.707 873.401 183.595 873.679 183.369C873.958 183.144 874.163 182.847 874.296 182.479C874.428 182.108 874.494 181.684 874.494 181.207C874.494 180.729 874.428 180.305 874.296 179.934C874.166 179.563 873.961 179.263 873.679 179.034C873.401 178.805 873.064 178.691 872.67 178.691C872.368 178.691 872.098 178.757 871.86 178.89C871.624 179.019 871.432 179.198 871.283 179.427C871.134 179.656 871.019 179.921 870.94 180.222C870.864 180.524 870.825 180.852 870.825 181.207C870.825 181.684 870.892 182.108 871.024 182.479C871.157 182.847 871.364 183.144 871.646 183.369C871.927 183.595 872.269 183.707 872.67 183.707ZM879.646 180.526V185H877.847V177.364H879.567V178.661H879.656C879.835 178.224 880.119 177.882 880.506 177.637C880.897 177.388 881.373 177.264 881.933 177.264C882.732 177.264 883.368 177.518 883.842 178.025C884.316 178.532 884.552 179.236 884.548 180.138V185H882.749V180.416C882.749 179.906 882.616 179.506 882.351 179.218C882.089 178.93 881.726 178.786 881.262 178.786C880.778 178.786 880.387 178.94 880.089 179.248C879.794 179.556 879.646 179.982 879.646 180.526ZM892.925 177.364L890.206 185H888.217L885.498 177.364H887.417L889.172 183.036H889.251L891.011 177.364H892.925ZM897.292 185.149C896.145 185.149 895.24 184.796 894.577 184.09C893.914 183.384 893.583 182.43 893.583 181.227C893.583 180.448 893.73 179.758 894.025 179.158C894.324 178.558 894.746 178.093 895.293 177.761C895.843 177.43 896.478 177.264 897.197 177.264C897.678 177.264 898.124 177.342 898.535 177.498C898.949 177.65 899.318 177.879 899.643 178.184C899.968 178.489 900.223 178.893 900.409 179.397C900.595 179.897 900.687 180.473 900.687 181.122V181.674H895.368C895.374 182.32 895.553 182.827 895.905 183.195C896.259 183.563 896.73 183.747 897.317 183.747C897.711 183.747 898.049 183.663 898.331 183.494C898.613 183.325 898.813 183.081 898.932 182.763L900.613 182.952C900.45 183.625 900.076 184.16 899.489 184.558C898.903 184.952 898.17 185.149 897.292 185.149ZM895.373 180.461H898.962C898.956 179.937 898.791 179.508 898.47 179.173C898.152 178.835 897.736 178.666 897.222 178.666C896.698 178.666 896.266 178.84 895.925 179.188C895.586 179.533 895.403 179.957 895.373 180.461ZM902.21 185V177.364H903.955V178.636H904.034C904.17 178.199 904.407 177.859 904.745 177.617C905.083 177.375 905.475 177.254 905.919 177.254C906.167 177.254 906.383 177.271 906.565 177.304V178.96C906.35 178.89 906.071 178.855 905.73 178.855C905.233 178.855 904.822 179.011 904.497 179.322C904.172 179.631 904.01 180.027 904.01 180.511V185H902.21ZM913.796 179.382L912.156 179.561C912.079 179.286 911.922 179.059 911.683 178.88C911.448 178.698 911.136 178.607 910.749 178.607C910.371 178.607 910.056 178.689 909.804 178.855C909.552 179.018 909.428 179.226 909.431 179.482C909.428 179.704 909.511 179.886 909.68 180.028C909.849 180.168 910.125 180.28 910.51 180.366L911.812 180.645C912.535 180.801 913.072 181.049 913.423 181.391C913.778 181.729 913.957 182.17 913.96 182.713C913.957 183.436 913.652 184.022 913.045 184.473C912.439 184.924 911.657 185.149 910.699 185.149C909.768 185.149 909.017 184.954 908.447 184.562C907.877 184.171 907.535 183.623 907.423 182.917L909.178 182.748C909.254 183.089 909.421 183.349 909.68 183.528C909.942 183.704 910.28 183.792 910.694 183.792C911.115 183.792 911.456 183.706 911.718 183.533C911.983 183.361 912.116 183.142 912.116 182.877C912.116 182.45 911.773 182.16 911.087 182.007L909.784 181.734C908.346 181.435 907.63 180.718 907.636 179.581C907.636 179.117 907.764 178.709 908.019 178.358C908.278 178.007 908.641 177.737 909.108 177.548C909.575 177.359 910.114 177.264 910.724 177.264C911.599 177.264 912.298 177.451 912.822 177.826C913.345 178.201 913.67 178.719 913.796 179.382ZM915.444 185V177.364H917.244V185H915.444ZM916.349 176.28C916.061 176.28 915.814 176.185 915.608 175.996C915.406 175.804 915.305 175.574 915.305 175.305C915.305 175.034 915.406 174.803 915.608 174.614C915.814 174.422 916.061 174.326 916.349 174.326C916.634 174.326 916.878 174.422 917.08 174.614C917.285 174.803 917.388 175.034 917.388 175.305C917.388 175.574 917.285 175.804 917.08 175.996C916.878 176.185 916.634 176.28 916.349 176.28ZM924.36 184.662C923.806 184.987 923.161 185.149 922.426 185.149C921.69 185.149 921.044 184.987 920.487 184.662C919.933 184.334 919.507 183.873 919.209 183.28C918.914 182.683 918.767 181.994 918.767 181.212C918.767 180.429 918.914 179.74 919.209 179.143C919.507 178.547 919.933 178.085 920.487 177.756C921.044 177.428 921.69 177.264 922.426 177.264C923.161 177.264 923.806 177.428 924.36 177.756C924.916 178.085 925.342 178.547 925.637 179.143C925.936 179.74 926.085 180.429 926.085 181.212C926.085 181.994 925.936 182.683 925.637 183.28C925.342 183.873 924.916 184.334 924.36 184.662ZM922.436 183.707C922.83 183.707 923.166 183.595 923.445 183.369C923.723 183.144 923.929 182.847 924.061 182.479C924.194 182.108 924.26 181.684 924.26 181.207C924.26 180.729 924.194 180.305 924.061 179.934C923.932 179.563 923.727 179.263 923.445 179.034C923.166 178.805 922.83 178.691 922.436 178.691C922.134 178.691 921.864 178.757 921.625 178.89C921.39 179.019 921.198 179.198 921.048 179.427C920.899 179.656 920.785 179.921 920.705 180.222C920.629 180.524 920.591 180.852 920.591 181.207C920.591 181.684 920.657 182.108 920.79 182.479C920.923 182.847 921.13 183.144 921.411 183.369C921.693 183.595 922.035 183.707 922.436 183.707ZM929.412 180.526V185H927.612V177.364H929.332V178.661H929.422C929.601 178.224 929.884 177.882 930.272 177.637C930.663 177.388 931.139 177.264 931.699 177.264C932.498 177.264 933.134 177.518 933.608 178.025C934.082 178.532 934.317 179.236 934.314 180.138V185H932.514V180.416C932.514 179.906 932.382 179.506 932.116 179.218C931.855 178.93 931.492 178.786 931.028 178.786C930.544 178.786 930.153 178.94 929.854 179.248C929.559 179.556 929.412 179.982 929.412 180.526ZM942.937 187.993C942.016 187.993 941.267 187.816 940.69 187.461C940.117 187.106 939.742 186.651 939.566 186.094L941.187 185.701C941.512 186.321 942.105 186.631 942.967 186.631C943.507 186.631 943.936 186.501 944.255 186.243C944.576 185.988 944.737 185.598 944.737 185.075V183.628H944.647C944.568 183.787 944.473 183.934 944.364 184.07C944.255 184.203 944.114 184.335 943.941 184.468C943.769 184.597 943.555 184.7 943.3 184.776C943.045 184.853 942.761 184.891 942.45 184.891C942.006 184.891 941.593 184.813 941.212 184.657C940.834 184.498 940.503 184.268 940.218 183.966C939.933 183.661 939.709 183.268 939.547 182.788C939.384 182.307 939.303 181.763 939.303 181.157C939.303 180.544 939.384 179.99 939.547 179.496C939.709 178.999 939.933 178.59 940.218 178.268C940.503 177.944 940.836 177.695 941.217 177.523C941.598 177.35 942.011 177.264 942.455 177.264C943.466 177.264 944.197 177.718 944.647 178.626H944.747V177.364H946.522V185.124C946.522 185.595 946.432 186.014 946.253 186.382C946.074 186.75 945.824 187.05 945.502 187.282C945.181 187.514 944.803 187.69 944.369 187.809C943.935 187.932 943.458 187.993 942.937 187.993ZM942.952 183.479C943.522 183.479 943.963 183.273 944.275 182.862C944.589 182.451 944.747 181.879 944.747 181.147C944.747 180.411 944.589 179.826 944.275 179.392C943.963 178.958 943.522 178.741 942.952 178.741C942.372 178.741 941.925 178.963 941.61 179.407C941.295 179.848 941.137 180.428 941.137 181.147C941.137 181.866 941.293 182.435 941.605 182.852C941.92 183.27 942.369 183.479 942.952 183.479ZM948.366 185V177.364H950.111V178.636H950.191C950.327 178.199 950.564 177.859 950.902 177.617C951.24 177.375 951.631 177.254 952.075 177.254C952.324 177.254 952.539 177.271 952.721 177.304V178.96C952.506 178.89 952.227 178.855 951.886 178.855C951.389 178.855 950.978 179.011 950.653 179.322C950.328 179.631 950.166 180.027 950.166 180.511V185H948.366ZM958.867 184.662C958.314 184.987 957.669 185.149 956.933 185.149C956.198 185.149 955.551 184.987 954.994 184.662C954.441 184.334 954.015 183.873 953.717 183.28C953.422 182.683 953.274 181.994 953.274 181.212C953.274 180.429 953.422 179.74 953.717 179.143C954.015 178.547 954.441 178.085 954.994 177.756C955.551 177.428 956.198 177.264 956.933 177.264C957.669 177.264 958.314 177.428 958.867 177.756C959.424 178.085 959.85 178.547 960.145 179.143C960.443 179.74 960.593 180.429 960.593 181.212C960.593 181.994 960.443 182.683 960.145 183.28C959.85 183.873 959.424 184.334 958.867 184.662ZM956.943 183.707C957.338 183.707 957.674 183.595 957.953 183.369C958.231 183.144 958.436 182.847 958.569 182.479C958.702 182.108 958.768 181.684 958.768 181.207C958.768 180.729 958.702 180.305 958.569 179.934C958.44 179.563 958.234 179.263 957.953 179.034C957.674 178.805 957.338 178.691 956.943 178.691C956.642 178.691 956.372 178.757 956.133 178.89C955.898 179.019 955.705 179.198 955.556 179.427C955.407 179.656 955.293 179.921 955.213 180.222C955.137 180.524 955.099 180.852 955.099 181.207C955.099 181.684 955.165 182.108 955.298 182.479C955.43 182.847 955.637 183.144 955.919 183.369C956.201 183.595 956.542 183.707 956.943 183.707ZM963.491 185L961.333 177.364H963.168L964.51 182.733H964.58L965.952 177.364H967.767L969.139 182.703H969.213L970.536 177.364H972.375L970.213 185H968.338L966.906 179.839H966.802L965.37 185H963.491ZM977.445 177.364V178.756H975.939V182.703C975.939 183.038 976.01 183.27 976.152 183.399C976.298 183.525 976.499 183.588 976.754 183.588C976.92 183.588 977.095 183.565 977.281 183.518L977.584 184.925C977.259 185.035 976.906 185.094 976.525 185.104C975.819 185.124 975.244 184.952 974.8 184.587C974.356 184.223 974.136 183.694 974.139 183.001V178.756H973.055V177.364H974.139V175.534H975.939V177.364H977.445ZM980.914 180.526V185H979.114V174.818H980.874V178.661H980.964C981.146 178.217 981.426 177.874 981.804 177.632C982.185 177.387 982.662 177.264 983.236 177.264C984.041 177.264 984.681 177.516 985.155 178.02C985.629 178.524 985.866 179.23 985.866 180.138V185H984.066V180.416C984.066 179.902 983.933 179.503 983.668 179.218C983.406 178.93 983.038 178.786 982.564 178.786C982.071 178.786 981.671 178.941 981.366 179.253C981.065 179.561 980.914 179.985 980.914 180.526Z" fill="black"/>
<path d="M179 387C213.833 384.589 208.714 355.597 204.552 268.399C203.434 244.761 205.559 196.888 223 194.5" stroke="#0085FF" stroke-opacity="0.32" stroke-width="2" stroke-dasharray="3.2 3.2"/>
<path d="M179 1C213.833 3.41935 208.714 32.512 204.552 120.011C203.434 143.731 205.559 191.77 223 194.167" stroke="#0085FF" stroke-opacity="0.32" stroke-width="2" stroke-dasharray="3.2 3.2"/>
<path d="M221 194L302.5 235.5" stroke="#0085FF" stroke-opacity="0.32" stroke-width="2" stroke-dasharray="3.2 3.2"/>
<path d="M220.5 194L303 152.5" stroke="#0085FF" stroke-opacity="0.32" stroke-width="2" stroke-dasharray="3.2 3.2"/>
<path d="M518 195L449 236" stroke="#0085FF" stroke-opacity="0.32" stroke-width="2" stroke-dasharray="3.2 3.2"/>
<path d="M518 195L449 153" stroke="#0085FF" stroke-opacity="0.32" stroke-width="2" stroke-dasharray="3.2 3.2"/>
<path d="M787 192H847" stroke="#0085FF" stroke-opacity="0.62" stroke-width="2" stroke-dasharray="3.2 3.2"/>
<path d="M624.024 91.4545H631.988L640.4 111.977H640.758L649.17 91.4545H657.135V122H650.871V102.119H650.617L642.712 121.851H638.447L630.542 102.044H630.288V122H624.024V91.4545ZM662.456 122V91.4545H668.914V116.675H682.009V122H662.456Z" fill="black"/>
<defs>
<clipPath id="clip0">
<rect width="18" height="18" fill="white" transform="translate(886 195)"/>
</clipPath>
</defs>
</svg>
