<svg width="419" height="397" viewBox="0 0 419 397" fill="none" xmlns="http://www.w3.org/2000/svg">
<rect x="270.513" y="148.24" width="148.487" height="231.499" rx="8.14033" fill="#0085FF" fill-opacity="0.17"/>
<path d="M323.842 199.716V184.915H333.324V187.163H326.523V191.181H332.673V193.429H326.523V199.716H323.842ZM335.492 199.716V188.616H338.028V190.466H338.144C338.341 189.83 338.686 189.336 339.177 188.984C339.669 188.632 340.237 188.457 340.883 188.457C341.244 188.457 341.557 188.481 341.822 188.529V190.935C341.509 190.834 341.104 190.784 340.608 190.784C339.886 190.784 339.288 191.01 338.816 191.463C338.344 191.911 338.108 192.487 338.108 193.19V199.716H335.492ZM348.018 199.933C346.351 199.933 345.035 199.42 344.072 198.394C343.108 197.367 342.626 195.98 342.626 194.231C342.626 193.099 342.841 192.097 343.27 191.225C343.703 190.352 344.317 189.676 345.112 189.194C345.912 188.712 346.835 188.471 347.88 188.471C348.579 188.471 349.227 188.584 349.824 188.811C350.427 189.032 350.964 189.365 351.436 189.808C351.908 190.251 352.279 190.839 352.549 191.571C352.819 192.299 352.954 193.135 352.954 194.079V194.881H345.221C345.23 195.821 345.491 196.558 346.001 197.093C346.517 197.628 347.201 197.895 348.054 197.895C348.627 197.895 349.118 197.772 349.528 197.526C349.937 197.281 350.229 196.926 350.402 196.464L352.845 196.739C352.609 197.717 352.065 198.495 351.212 199.073C350.359 199.646 349.294 199.933 348.018 199.933ZM345.228 193.118H350.446C350.436 192.357 350.198 191.733 349.73 191.246C349.268 190.755 348.663 190.509 347.916 190.509C347.155 190.509 346.526 190.762 346.03 191.268C345.539 191.769 345.271 192.386 345.228 193.118ZM360.081 199.933C358.414 199.933 357.099 199.42 356.135 198.394C355.172 197.367 354.69 195.98 354.69 194.231C354.69 193.099 354.904 192.097 355.333 191.225C355.767 190.352 356.381 189.676 357.176 189.194C357.976 188.712 358.898 188.471 359.944 188.471C360.642 188.471 361.29 188.584 361.888 188.811C362.49 189.032 363.027 189.365 363.499 189.808C363.971 190.251 364.342 190.839 364.612 191.571C364.882 192.299 365.017 193.135 365.017 194.079V194.881H357.284C357.294 195.821 357.554 196.558 358.065 197.093C358.58 197.628 359.264 197.895 360.117 197.895C360.69 197.895 361.182 197.772 361.591 197.526C362.001 197.281 362.292 196.926 362.466 196.464L364.909 196.739C364.672 197.717 364.128 198.495 363.275 199.073C362.422 199.646 361.358 199.933 360.081 199.933ZM357.291 193.118H362.509C362.5 192.357 362.261 191.733 361.794 191.246C361.331 190.755 360.727 190.509 359.98 190.509C359.219 190.509 358.59 190.762 358.094 191.268C357.602 191.769 357.335 192.386 357.291 193.118Z" fill="#0085FF"/>
<path d="M327.395 299.918V297.594H337.403V299.918H333.812V309.435H330.991V299.918H327.395ZM337.878 309.435V300.554H340.624V302.173H340.717C340.875 301.599 341.135 301.165 341.497 300.872C341.86 300.579 342.289 300.433 342.787 300.433C343.057 300.433 343.321 300.468 343.579 300.537V302.994C343.286 302.894 342.916 302.844 342.469 302.844C341.956 302.844 341.534 303.008 341.203 303.335C340.871 303.663 340.705 304.089 340.705 304.613V309.435H337.878ZM344.731 309.435V300.554H347.558V309.435H344.731ZM347.171 299.126C346.889 299.388 346.548 299.519 346.147 299.519C345.746 299.519 345.403 299.388 345.118 299.126C344.837 298.86 344.696 298.54 344.696 298.167C344.696 297.793 344.837 297.475 345.118 297.213C345.403 296.951 345.746 296.82 346.147 296.82C346.548 296.82 346.889 296.951 347.171 297.213C347.456 297.475 347.598 297.793 347.598 298.167C347.598 298.54 347.456 298.86 347.171 299.126ZM351.861 309.585C350.978 309.585 350.271 309.363 349.739 308.92C349.207 308.473 348.941 307.824 348.941 306.972C348.941 305.303 350.042 304.376 352.242 304.191C353.056 304.118 353.609 304.033 353.902 303.937C354.198 303.836 354.347 303.657 354.347 303.399V303.37C354.347 303.077 354.245 302.85 354.04 302.688C353.84 302.522 353.564 302.439 353.214 302.439C352.844 302.439 352.543 302.52 352.312 302.682C352.084 302.84 351.94 303.064 351.878 303.353L349.271 303.26C349.328 302.852 349.456 302.478 349.652 302.138C349.853 301.795 350.115 301.497 350.438 301.242C350.766 300.988 351.169 300.791 351.647 300.653C352.125 300.51 352.655 300.439 353.237 300.439C353.996 300.439 354.669 300.554 355.254 300.786C355.844 301.013 356.311 301.352 356.654 301.803C356.997 302.254 357.168 302.786 357.168 303.399V309.435H354.509V308.197H354.439C353.946 309.123 353.086 309.585 351.861 309.585ZM352.734 307.735C353.192 307.735 353.578 307.6 353.89 307.33C354.206 307.057 354.364 306.706 354.364 306.278V305.434C354.114 305.565 353.616 305.684 352.873 305.792C352.036 305.92 351.618 306.266 351.618 306.833C351.618 307.122 351.72 307.346 351.924 307.504C352.129 307.658 352.398 307.735 352.734 307.735ZM361.724 297.594V309.435H358.897V297.594H361.724ZM320.13 329.435L324.905 319.976V319.901H319.32V317.594H327.865V319.918L323.073 329.435H320.13ZM336.201 329.562C335.704 329.562 335.241 329.466 334.813 329.273C334.389 329.076 334.015 328.793 333.692 328.423C333.368 328.049 333.114 327.569 332.929 326.983C332.744 326.398 332.651 325.736 332.651 325C332.651 324.391 332.715 323.834 332.842 323.329C332.969 322.821 333.142 322.391 333.362 322.04C333.582 321.686 333.842 321.387 334.143 321.144C334.443 320.901 334.765 320.724 335.108 320.612C335.451 320.497 335.812 320.439 336.189 320.439C336.525 320.439 336.835 320.485 337.12 320.577C337.405 320.67 337.648 320.797 337.849 320.959C338.049 321.117 338.219 321.289 338.357 321.474C338.496 321.659 338.61 321.859 338.698 322.075H338.756V317.594H341.583V329.435H338.785V327.995H338.698C338.498 328.45 338.188 328.826 337.768 329.123C337.351 329.415 336.829 329.562 336.201 329.562ZM337.184 327.359C337.692 327.359 338.091 327.147 338.38 326.723C338.673 326.295 338.82 325.719 338.82 324.995C338.82 324.266 338.675 323.694 338.386 323.277C338.101 322.857 337.7 322.647 337.184 322.647C336.663 322.647 336.261 322.857 335.975 323.277C335.694 323.698 335.553 324.27 335.553 324.995C335.553 325.723 335.696 326.299 335.981 326.723C336.266 327.147 336.667 327.359 337.184 327.359ZM345.875 329.585C344.992 329.585 344.285 329.363 343.753 328.92C343.221 328.473 342.955 327.824 342.955 326.972C342.955 325.303 344.055 324.376 346.256 324.191C347.07 324.118 347.623 324.033 347.916 323.937C348.212 323.836 348.361 323.657 348.361 323.399V323.37C348.361 323.077 348.259 322.85 348.054 322.688C347.854 322.522 347.578 322.439 347.228 322.439C346.858 322.439 346.557 322.52 346.326 322.682C346.098 322.84 345.954 323.064 345.892 323.353L343.285 323.26C343.342 322.852 343.47 322.478 343.666 322.138C343.867 321.795 344.129 321.497 344.452 321.242C344.78 320.988 345.183 320.791 345.661 320.653C346.139 320.51 346.669 320.439 347.251 320.439C348.01 320.439 348.683 320.554 349.268 320.786C349.858 321.013 350.325 321.352 350.668 321.803C351.011 322.254 351.182 322.786 351.182 323.399V329.435H348.523V328.197H348.453C347.96 329.123 347.1 329.585 345.875 329.585ZM346.748 327.735C347.206 327.735 347.592 327.6 347.904 327.33C348.22 327.057 348.378 326.706 348.378 326.278V325.434C348.128 325.565 347.63 325.684 346.886 325.792C346.05 325.92 345.632 326.266 345.632 326.833C345.632 327.122 345.734 327.346 345.938 327.504C346.143 327.658 346.412 327.735 346.748 327.735ZM354.321 332.753C353.647 332.753 353.069 332.659 352.587 332.47L353.211 330.418C353.62 330.568 353.971 330.616 354.264 330.562C354.56 330.508 354.782 330.329 354.929 330.024L355.038 329.758L351.882 320.554H354.842L356.478 326.891H356.57L358.23 320.554L361.207 320.56L357.86 330.285C357.297 331.93 356.118 332.753 354.321 332.753ZM370.044 323.266L367.448 323.335C367.406 323.05 367.263 322.819 367.021 322.641C366.778 322.464 366.471 322.376 366.101 322.376C365.766 322.376 365.485 322.443 365.257 322.578C365.034 322.709 364.924 322.884 364.928 323.104C364.924 323.285 364.997 323.439 365.147 323.567C365.301 323.69 365.558 323.788 365.916 323.861L367.628 324.185C368.514 324.355 369.173 324.636 369.605 325.029C370.04 325.422 370.26 325.943 370.264 326.59C370.26 327.188 370.081 327.718 369.726 328.18C369.372 328.639 368.884 328.991 368.264 329.238C367.643 329.481 366.938 329.602 366.148 329.602C364.895 329.602 363.899 329.346 363.158 328.833C362.422 328.317 362.002 327.612 361.898 326.717L364.691 326.648C364.752 326.968 364.91 327.215 365.165 327.388C365.423 327.558 365.754 327.642 366.159 327.642C366.521 327.642 366.816 327.575 367.044 327.44C367.271 327.305 367.387 327.126 367.391 326.902C367.387 326.706 367.298 326.548 367.125 326.428C366.951 326.305 366.679 326.207 366.309 326.133L364.76 325.839C363.877 325.673 363.214 325.374 362.771 324.943C362.332 324.511 362.116 323.952 362.124 323.266C362.12 322.383 362.47 321.691 363.176 321.19C363.881 320.689 364.839 320.439 366.049 320.439C367.244 320.439 368.188 320.689 368.882 321.19C369.58 321.688 369.967 322.379 370.044 323.266Z" fill="#0085FF"/>
<path d="M307.145 276.319L307.175 273.931C304.923 273.722 303.162 273.024 301.894 271.837C300.633 270.643 299.989 268.974 299.962 266.829H304.757C304.805 267.598 305.041 268.228 305.466 268.721C305.891 269.206 306.477 269.537 307.226 269.712L307.287 265.129L306.275 264.896C304.413 264.471 302.983 263.79 301.985 262.852C300.987 261.915 300.491 260.684 300.498 259.16C300.484 257.413 301.115 255.962 302.39 254.809C303.671 253.656 305.354 252.978 307.439 252.775L307.469 250.418H310.099L310.069 252.806C312.052 253.048 313.624 253.743 314.784 254.89C315.944 256.037 316.534 257.48 316.555 259.22H311.759C311.664 258.128 311.084 257.406 310.019 257.055L309.958 261.365L310.494 261.487C314.703 262.411 316.818 264.488 316.838 267.719C316.831 269.527 316.211 270.974 314.976 272.059C313.749 273.145 312.025 273.776 309.806 273.951L309.776 276.319H307.145ZM309.857 269.702C310.457 269.554 310.919 269.307 311.243 268.963C311.573 268.613 311.745 268.195 311.759 267.709C311.752 267.277 311.6 266.913 311.303 266.616C311.007 266.313 310.541 266.046 309.907 265.817L309.857 269.702ZM307.337 260.697L307.388 256.994C306.835 257.129 306.413 257.355 306.123 257.672C305.833 257.989 305.685 258.37 305.678 258.816C305.651 259.638 306.204 260.266 307.337 260.697ZM333.249 252.654C333.91 252.654 334.544 252.711 335.151 252.826C335.764 252.941 336.361 253.126 336.941 253.382C337.522 253.632 338.054 253.946 338.54 254.323C339.032 254.701 339.484 255.17 339.896 255.73C340.314 256.283 340.665 256.907 340.948 257.601C341.238 258.289 341.464 259.089 341.626 259.999C341.788 260.903 341.869 261.885 341.869 262.944C341.862 266.377 341.069 269.082 339.491 271.058C337.92 273.027 335.805 274.012 333.147 274.012C332.075 274.012 331.077 273.85 330.153 273.527C329.235 273.196 328.449 272.747 327.795 272.181C327.141 271.614 326.608 270.943 326.197 270.167C325.792 269.392 325.542 268.559 325.448 267.668H330.375C330.524 268.343 330.844 268.859 331.336 269.216C331.829 269.567 332.432 269.743 333.147 269.743C334.388 269.743 335.326 269.203 335.96 268.124C336.601 267.045 336.925 265.54 336.931 263.611H336.81C336.385 264.529 335.694 265.254 334.736 265.787C333.785 266.319 332.722 266.586 331.549 266.586C330.328 266.586 329.235 266.303 328.271 265.736C327.306 265.169 326.554 264.384 326.014 263.379C325.482 262.374 325.219 261.237 325.225 259.969C325.219 258.539 325.549 257.271 326.217 256.165C326.891 255.052 327.839 254.188 329.06 253.575C330.281 252.961 331.677 252.654 333.249 252.654ZM333.279 256.499C332.355 256.499 331.586 256.816 330.972 257.45C330.365 258.077 330.068 258.863 330.082 259.807C330.068 260.751 330.362 261.537 330.962 262.164C331.569 262.792 332.335 263.105 333.259 263.105C334.163 263.105 334.921 262.788 335.535 262.154C336.149 261.514 336.463 260.728 336.476 259.797C336.463 258.866 336.152 258.084 335.545 257.45C334.945 256.816 334.19 256.499 333.279 256.499ZM346.551 274.022C345.822 274.022 345.198 273.766 344.679 273.253C344.166 272.741 343.913 272.12 343.92 271.392C343.913 270.677 344.166 270.066 344.679 269.56C345.198 269.048 345.822 268.791 346.551 268.791C347.252 268.791 347.863 269.048 348.382 269.56C348.908 270.066 349.175 270.677 349.181 271.392C349.175 272.113 348.908 272.734 348.382 273.253C347.863 273.766 347.252 274.022 346.551 274.022ZM359.764 252.654C360.425 252.654 361.059 252.711 361.666 252.826C362.28 252.941 362.877 253.126 363.457 253.382C364.037 253.632 364.57 253.946 365.056 254.323C365.548 254.701 366 255.17 366.412 255.73C366.83 256.283 367.18 256.907 367.464 257.601C367.754 258.289 367.98 259.089 368.142 259.999C368.304 260.903 368.384 261.885 368.384 262.944C368.378 266.377 367.585 269.082 366.007 271.058C364.435 273.027 362.321 274.012 359.663 274.012C358.591 274.012 357.592 273.85 356.668 273.527C355.751 273.196 354.965 272.747 354.311 272.181C353.657 271.614 353.124 270.943 352.712 270.167C352.308 269.392 352.058 268.559 351.964 267.668H356.891C357.039 268.343 357.36 268.859 357.852 269.216C358.344 269.567 358.948 269.743 359.663 269.743C360.904 269.743 361.842 269.203 362.476 268.124C363.117 267.045 363.44 265.54 363.447 263.611H363.326C362.901 264.529 362.209 265.254 361.252 265.787C360.301 266.319 359.238 266.586 358.065 266.586C356.844 266.586 355.751 266.303 354.786 265.736C353.822 265.169 353.07 264.384 352.53 263.379C351.997 262.374 351.734 261.237 351.741 259.969C351.734 258.539 352.065 257.271 352.733 256.165C353.407 255.052 354.355 254.188 355.576 253.575C356.796 252.961 358.193 252.654 359.764 252.654ZM359.795 256.499C358.871 256.499 358.102 256.816 357.488 257.45C356.881 258.077 356.584 258.863 356.597 259.807C356.584 260.751 356.877 261.537 357.478 262.164C358.085 262.792 358.85 263.105 359.774 263.105C360.678 263.105 361.437 262.788 362.051 262.154C362.665 261.514 362.978 260.728 362.992 259.797C362.978 258.866 362.668 258.084 362.061 257.45C361.461 256.816 360.705 256.499 359.795 256.499ZM378.935 252.654C379.596 252.654 380.23 252.711 380.837 252.826C381.451 252.941 382.047 253.126 382.628 253.382C383.208 253.632 383.74 253.946 384.226 254.323C384.718 254.701 385.17 255.17 385.582 255.73C386 256.283 386.351 256.907 386.634 257.601C386.924 258.289 387.15 259.089 387.312 259.999C387.474 260.903 387.555 261.885 387.555 262.944C387.548 266.377 386.756 269.082 385.177 271.058C383.606 273.027 381.491 274.012 378.833 274.012C377.761 274.012 376.763 273.85 375.839 273.527C374.921 273.196 374.135 272.747 373.481 272.181C372.827 271.614 372.294 270.943 371.883 270.167C371.478 269.392 371.228 268.559 371.134 267.668H376.061C376.21 268.343 376.53 268.859 377.022 269.216C377.515 269.567 378.118 269.743 378.833 269.743C380.075 269.743 381.012 269.203 381.646 268.124C382.287 267.045 382.611 265.54 382.617 263.611H382.496C382.071 264.529 381.38 265.254 380.422 265.787C379.471 266.319 378.408 266.586 377.235 266.586C376.014 266.586 374.921 266.303 373.957 265.736C372.992 265.169 372.24 264.384 371.701 263.379C371.168 262.374 370.905 261.237 370.911 259.969C370.905 258.539 371.235 257.271 371.903 256.165C372.577 255.052 373.525 254.188 374.746 253.575C375.967 252.961 377.363 252.654 378.935 252.654ZM378.965 256.499C378.041 256.499 377.272 256.816 376.658 257.45C376.051 258.077 375.754 258.863 375.768 259.807C375.754 260.751 376.048 261.537 376.648 262.164C377.255 262.792 378.021 263.105 378.945 263.105C379.849 263.105 380.607 262.788 381.221 262.154C381.835 261.514 382.149 260.728 382.162 259.797C382.149 258.866 381.838 258.084 381.231 257.45C380.631 256.816 379.876 256.499 378.965 256.499Z" fill="#0085FF"/>
<rect x="15.2383" y="148.24" width="148.487" height="231.499" rx="8.14033" fill="#0085FF" fill-opacity="0.17"/>
<path d="M74.0739 180.056V177.808H85.8826V180.056H81.308V192.609H78.6485V180.056H74.0739ZM86.8908 192.609V181.508H89.4274V183.358H89.543C89.7406 182.722 90.085 182.229 90.5765 181.877C91.0679 181.525 91.6364 181.349 92.282 181.349C92.6434 181.349 92.9565 181.373 93.2215 181.422V183.828C92.9083 183.727 92.5036 183.676 92.0074 183.676C91.2847 183.676 90.6873 183.903 90.2151 184.356C89.743 184.804 89.5069 185.379 89.5069 186.083V192.609H86.8908ZM96.9235 196.75C96.2249 196.75 95.6564 196.656 95.2179 196.468L95.825 194.437C96.2104 194.543 96.5501 194.596 96.844 194.596C97.1379 194.596 97.398 194.502 97.6245 194.314C97.8557 194.131 98.0533 193.84 98.2171 193.44L98.4411 192.84L94.4157 181.508H97.1909L99.7492 189.891H99.8648L102.43 181.508L105.227 181.523L100.768 193.953C100.094 195.817 98.8121 196.75 96.9235 196.75ZM82.5962 206.508V208.532H80.2908V217.609H77.6747V208.532H76.0342V206.508H77.6747V205.46C77.6747 204.386 77.9999 203.56 78.6504 202.982C79.3008 202.403 80.1319 202.114 81.1436 202.114C81.8759 202.114 82.5384 202.215 83.131 202.418L82.6034 204.441C82.2517 204.335 81.9265 204.282 81.6278 204.282C81.1557 204.282 80.8136 204.396 80.6016 204.622C80.3944 204.848 80.2908 205.186 80.2908 205.634V206.508H82.5962ZM91.8809 217.117C91.0763 217.589 90.1393 217.826 89.0697 217.826C88.0001 217.826 87.0606 217.589 86.2512 217.117C85.4466 216.64 84.8275 215.971 84.3939 215.108C83.9651 214.241 83.7507 213.239 83.7507 212.102C83.7507 210.965 83.9651 209.963 84.3939 209.095C84.8275 208.228 85.4466 207.556 86.2512 207.079C87.0606 206.602 88.0001 206.364 89.0697 206.364C90.1393 206.364 91.0763 206.602 91.8809 207.079C92.6903 207.556 93.3094 208.228 93.7382 209.095C94.1718 209.963 94.3886 210.965 94.3886 212.102C94.3886 213.239 94.1718 214.241 93.7382 215.108C93.3094 215.971 92.6903 216.64 91.8809 217.117ZM89.0841 215.73C89.6575 215.73 90.1465 215.566 90.5512 215.238C90.9559 214.911 91.2546 214.479 91.4473 213.945C91.64 213.405 91.7364 212.788 91.7364 212.095C91.7364 211.401 91.64 210.784 91.4473 210.245C91.2594 209.705 90.9607 209.269 90.5512 208.936C90.1465 208.604 89.6575 208.438 89.0841 208.438C88.6457 208.438 88.253 208.534 87.9062 208.727C87.5641 208.915 87.2846 209.175 87.0678 209.507C86.851 209.84 86.6848 210.225 86.5692 210.664C86.4584 211.102 86.403 211.579 86.403 212.095C86.403 212.788 86.4993 213.405 86.692 213.945C86.8848 214.479 87.1859 214.911 87.5954 215.238C88.0049 215.566 88.5012 215.73 89.0841 215.73ZM96.6091 217.609V206.508H99.1457V208.358H99.2614C99.4589 207.722 99.8034 207.229 100.295 206.877C100.786 206.525 101.355 206.349 102 206.349C102.362 206.349 102.675 206.373 102.94 206.422V208.828C102.627 208.727 102.222 208.676 101.726 208.676C101.003 208.676 100.406 208.903 99.9335 209.356C99.4613 209.804 99.2252 210.379 99.2252 211.083V217.609H96.6091ZM60.5794 251.609L60.5794 230.888H74.2989V234.5H64.9603V239.437H73.3883V243.049H64.9603V251.609H60.5794ZM76.9143 251.609V236.068H81.0928V238.78H81.2547C81.5313 237.835 82.0001 237.11 82.6611 236.604C83.3221 236.098 84.0978 235.845 84.9881 235.845C85.467 235.845 85.9189 235.896 86.3439 235.997V239.822C85.865 239.667 85.2579 239.589 84.5227 239.589C83.5649 239.589 82.7757 239.889 82.1552 240.489C81.5346 241.09 81.2244 241.865 81.2244 242.817V251.609H76.9143ZM94.9312 251.912C92.5434 251.912 90.6616 251.197 89.2856 249.767C87.9096 248.331 87.2216 246.378 87.2216 243.909C87.2216 242.324 87.5285 240.925 88.1423 239.71C88.7628 238.49 89.6431 237.545 90.783 236.877C91.9296 236.203 93.2551 235.866 94.7592 235.866C95.7979 235.866 96.7557 236.034 97.6326 236.372C98.5162 236.702 99.2885 237.188 99.9495 237.829C100.611 238.463 101.127 239.289 101.498 240.307C101.875 241.319 102.064 242.469 102.064 243.757V244.941H91.4811V244.951C91.4811 246.105 91.7981 247.019 92.4322 247.693C93.0662 248.361 93.9228 248.695 95.002 248.695C95.7305 248.695 96.3544 248.543 96.8738 248.24C97.3999 247.929 97.7709 247.481 97.9867 246.894L101.973 247.157C101.663 248.614 100.887 249.771 99.646 250.627C98.4049 251.484 96.8333 251.912 94.9312 251.912ZM91.4811 242.27H98.007C98.0002 241.339 97.7001 240.577 97.1065 239.984C96.5197 239.383 95.7608 239.083 94.83 239.083C93.8925 239.083 93.11 239.39 92.4827 240.004C91.8622 240.611 91.5283 241.366 91.4811 242.27ZM111.959 251.912C109.571 251.912 107.69 251.197 106.314 249.767C104.938 248.331 104.25 246.378 104.25 243.909C104.25 242.324 104.556 240.925 105.17 239.71C105.791 238.49 106.671 237.545 107.811 236.877C108.958 236.203 110.283 235.866 111.787 235.866C112.826 235.866 113.784 236.034 114.661 236.372C115.544 236.702 116.316 237.188 116.977 237.829C117.638 238.463 118.154 239.289 118.525 240.307C118.903 241.319 119.092 242.469 119.092 243.757V244.941H108.509V244.951C108.509 246.105 108.826 247.019 109.46 247.693C110.094 248.361 110.951 248.695 112.03 248.695C112.758 248.695 113.382 248.543 113.902 248.24C114.428 247.929 114.799 247.481 115.015 246.894L119.001 247.157C118.691 248.614 117.915 249.771 116.674 250.627C115.433 251.484 113.861 251.912 111.959 251.912ZM108.509 242.27H115.035C115.028 241.339 114.728 240.577 114.134 239.984C113.548 239.383 112.789 239.083 111.858 239.083C110.92 239.083 110.138 239.39 109.511 240.004C108.89 240.611 108.556 241.366 108.509 242.27Z" fill="#0085FF"/>
<path d="M54.9211 327.086L54.9515 324.699C52.6986 324.489 50.9382 323.791 49.6701 322.604C48.4088 321.41 47.7646 319.741 47.7376 317.596H52.5334C52.5806 318.365 52.8167 318.996 53.2416 319.488C53.6666 319.974 54.2534 320.304 55.0021 320.479L55.0628 315.896L54.051 315.664C52.1894 315.239 50.7594 314.557 49.7612 313.62C48.7629 312.682 48.2671 311.451 48.2739 309.927C48.2604 308.18 48.8911 306.73 50.1659 305.576C51.4474 304.423 53.1303 303.745 55.2146 303.543L55.2449 301.185H57.8755L57.8451 303.573C59.8282 303.816 61.3998 304.511 62.5599 305.657C63.7201 306.804 64.3103 308.247 64.3305 309.988H59.5348C59.4403 308.895 58.8603 308.173 57.7945 307.822L57.7338 312.132L58.2701 312.254C62.479 313.178 64.5936 315.255 64.6138 318.486C64.6071 320.294 63.9865 321.741 62.7522 322.827C61.5246 323.913 59.8012 324.543 57.5821 324.719L57.5517 327.086H54.9211ZM57.6327 320.469C58.233 320.321 58.695 320.075 59.0188 319.731C59.3493 319.38 59.5213 318.962 59.5348 318.476C59.528 318.045 59.3763 317.68 59.0795 317.384C58.7827 317.08 58.3173 316.814 57.6833 316.584L57.6327 320.469ZM55.1134 311.465L55.164 307.762C54.6109 307.897 54.1893 308.123 53.8993 308.44C53.6092 308.757 53.4608 309.138 53.4541 309.583C53.4271 310.406 53.9802 311.033 55.1134 311.465ZM74.1041 324.496L82.4613 307.944V307.812H72.6877V303.775H87.6415V307.843L79.254 324.496H74.1041ZM89.6524 324.79C88.9239 324.79 88.3 324.533 87.7806 324.021C87.268 323.508 87.015 322.887 87.0218 322.159C87.015 321.444 87.268 320.834 87.7806 320.328C88.3 319.815 88.9239 319.559 89.6524 319.559C90.3538 319.559 90.9643 319.815 91.4836 320.328C92.0098 320.834 92.2762 321.444 92.2829 322.159C92.2762 322.881 92.0098 323.501 91.4836 324.021C90.9643 324.533 90.3538 324.79 89.6524 324.79ZM102.866 303.421C103.527 303.421 104.161 303.479 104.768 303.593C105.382 303.708 105.979 303.893 106.559 304.15C107.139 304.399 107.672 304.713 108.157 305.091C108.65 305.468 109.102 305.937 109.513 306.497C109.931 307.05 110.282 307.674 110.565 308.369C110.855 309.057 111.081 309.856 111.243 310.767C111.405 311.67 111.486 312.652 111.486 313.711C111.479 317.144 110.687 319.849 109.109 321.825C107.537 323.795 105.422 324.779 102.765 324.779C101.692 324.779 100.694 324.618 99.77 324.294C98.8526 323.963 98.0668 323.515 97.4126 322.948C96.7583 322.382 96.2254 321.71 95.814 320.935C95.4093 320.159 95.1597 319.326 95.0653 318.436H99.9925C100.141 319.11 100.461 319.626 100.954 319.984C101.446 320.334 102.05 320.51 102.765 320.51C104.006 320.51 104.943 319.97 105.577 318.891C106.218 317.812 106.542 316.308 106.549 314.379H106.427C106.002 315.296 105.311 316.021 104.353 316.554C103.402 317.087 102.34 317.353 101.166 317.353C99.9453 317.353 98.8526 317.07 97.8881 316.503C96.9235 315.937 96.1715 315.151 95.6319 314.146C95.099 313.141 94.8359 312.004 94.8427 310.736C94.8359 309.306 95.1664 308.038 95.8342 306.932C96.5087 305.819 97.4564 304.956 98.6773 304.342C99.8981 303.728 101.294 303.421 102.866 303.421ZM102.896 307.266C101.972 307.266 101.203 307.583 100.589 308.217C99.9824 308.844 99.6856 309.63 99.6991 310.574C99.6856 311.519 99.9791 312.304 100.579 312.932C101.186 313.559 101.952 313.873 102.876 313.873C103.78 313.873 104.539 313.556 105.153 312.922C105.766 312.281 106.08 311.495 106.093 310.564C106.08 309.633 105.77 308.851 105.163 308.217C104.562 307.583 103.807 307.266 102.896 307.266ZM122.036 303.421C122.697 303.421 123.331 303.479 123.938 303.593C124.552 303.708 125.149 303.893 125.729 304.15C126.309 304.399 126.842 304.713 127.328 305.091C127.82 305.468 128.272 305.937 128.684 306.497C129.102 307.05 129.452 307.674 129.736 308.369C130.026 309.057 130.252 309.856 130.414 310.767C130.576 311.67 130.656 312.652 130.656 313.711C130.65 317.144 129.857 319.849 128.279 321.825C126.707 323.795 124.593 324.779 121.935 324.779C120.863 324.779 119.864 324.618 118.94 324.294C118.023 323.963 117.237 323.515 116.583 322.948C115.929 322.382 115.396 321.71 114.984 320.935C114.58 320.159 114.33 319.326 114.236 318.436H119.163C119.311 319.11 119.632 319.626 120.124 319.984C120.616 320.334 121.22 320.51 121.935 320.51C123.176 320.51 124.114 319.97 124.748 318.891C125.389 317.812 125.712 316.308 125.719 314.379H125.598C125.173 315.296 124.481 316.021 123.524 316.554C122.573 317.087 121.51 317.353 120.337 317.353C119.116 317.353 118.023 317.07 117.058 316.503C116.094 315.937 115.342 315.151 114.802 314.146C114.269 313.141 114.006 312.004 114.013 310.736C114.006 309.306 114.337 308.038 115.005 306.932C115.679 305.819 116.627 304.956 117.848 304.342C119.068 303.728 120.465 303.421 122.036 303.421ZM122.067 307.266C121.143 307.266 120.374 307.583 119.76 308.217C119.153 308.844 118.856 309.63 118.869 310.574C118.856 311.519 119.149 312.304 119.75 312.932C120.357 313.559 121.122 313.873 122.046 313.873C122.95 313.873 123.709 313.556 124.323 312.922C124.937 312.281 125.25 311.495 125.264 310.564C125.25 309.633 124.94 308.851 124.333 308.217C123.733 307.583 122.977 307.266 122.067 307.266Z" fill="#0085FF"/>
<rect x="141.35" y="127.934" width="148.487" height="269.066" rx="8.14033" fill="#0085FF"/>
<rect x="157.623" y="250.79" width="115.942" height="35.5371" rx="2.03508" fill="white"/>
<path d="M187.408 275.075C186.518 275.075 185.72 274.921 185.015 274.612C184.31 274.304 183.758 273.874 183.361 273.323C182.964 272.768 182.762 272.138 182.754 271.433H185.633C185.649 271.822 185.822 272.14 186.154 272.387C186.489 272.629 186.911 272.751 187.42 272.751C187.929 272.751 188.343 272.62 188.663 272.358C188.987 272.092 189.147 271.749 189.143 271.329C189.151 270.908 188.973 270.567 188.611 270.305C188.249 270.039 187.771 269.906 187.177 269.906H186.027V267.871H187.177C187.705 267.871 188.133 267.742 188.461 267.484C188.792 267.226 188.956 266.892 188.952 266.484C188.956 266.087 188.817 265.765 188.536 265.518C188.254 265.268 187.886 265.142 187.432 265.142C186.95 265.142 186.547 265.268 186.223 265.518C185.903 265.769 185.738 266.094 185.726 266.495H182.991C182.999 265.805 183.194 265.187 183.575 264.639C183.957 264.092 184.483 263.668 185.154 263.367C185.828 263.063 186.587 262.911 187.432 262.911C188.264 262.911 189.006 263.059 189.657 263.356C190.313 263.649 190.818 264.053 191.172 264.57C191.531 265.083 191.71 265.659 191.71 266.299C191.714 266.954 191.5 267.501 191.068 267.941C190.636 268.376 190.072 268.644 189.374 268.744V268.837C190.272 268.941 190.96 269.234 191.438 269.715C191.916 270.197 192.153 270.808 192.149 271.548C192.149 272.227 191.949 272.834 191.548 273.369C191.147 273.905 190.584 274.323 189.86 274.624C189.139 274.925 188.322 275.075 187.408 275.075ZM197.285 274.913L197.285 266.033H199.973V267.663H200.071C200.256 267.12 200.569 266.694 201.008 266.385C201.451 266.073 201.975 265.917 202.58 265.917C203.197 265.917 203.725 266.075 204.165 266.391C204.604 266.707 204.883 267.131 205.003 267.663H205.095C205.261 267.131 205.585 266.707 206.067 266.391C206.548 266.075 207.117 265.917 207.772 265.917C208.62 265.917 209.304 266.189 209.825 266.732C210.345 267.272 210.605 268.006 210.605 268.935V274.913H207.778V269.582C207.778 269.151 207.664 268.815 207.437 268.577C207.213 268.338 206.919 268.218 206.552 268.218C206.163 268.218 205.857 268.343 205.633 268.594C205.413 268.844 205.304 269.184 205.304 269.611V274.913H202.586V269.554C202.586 269.145 202.474 268.821 202.251 268.582C202.031 268.339 201.736 268.218 201.366 268.218C200.992 268.218 200.69 268.349 200.459 268.611C200.227 268.873 200.112 269.222 200.112 269.658V274.913H197.285ZM218.896 274.508C218.217 274.89 217.42 275.081 216.502 275.081C215.585 275.081 214.785 274.89 214.103 274.508C213.425 274.123 212.906 273.587 212.548 272.901C212.193 272.211 212.016 271.411 212.016 270.502C212.016 269.592 212.193 268.792 212.548 268.102C212.906 267.413 213.425 266.877 214.103 266.495C214.785 266.11 215.585 265.917 216.502 265.917C217.42 265.917 218.217 266.11 218.896 266.495C219.578 266.877 220.096 267.413 220.451 268.102C220.809 268.792 220.989 269.592 220.989 270.502C220.989 271.411 220.809 272.211 220.451 272.901C220.096 273.587 219.578 274.123 218.896 274.508ZM216.52 272.947C217.017 272.947 217.406 272.724 217.687 272.277C217.969 271.83 218.11 271.232 218.11 270.484C218.11 269.737 217.969 269.137 217.687 268.686C217.406 268.235 217.017 268.01 216.52 268.01C216.007 268.01 215.608 268.235 215.323 268.686C215.038 269.133 214.895 269.733 214.895 270.484C214.895 271.232 215.038 271.83 215.323 272.277C215.608 272.724 216.007 272.947 216.52 272.947ZM225.264 269.848V274.913H222.437V266.033H225.125V267.663H225.224C225.42 267.12 225.756 266.694 226.23 266.385C226.708 266.073 227.272 265.917 227.924 265.917C228.856 265.917 229.604 266.223 230.167 266.836C230.73 267.445 231.009 268.251 231.005 269.253V274.913H228.178V269.808C228.182 269.315 228.057 268.929 227.802 268.652C227.552 268.374 227.203 268.235 226.756 268.235C226.305 268.235 225.944 268.38 225.675 268.669C225.405 268.954 225.268 269.347 225.264 269.848ZM237.768 266.033V268.114H236.167V272.121C236.167 272.375 236.226 272.558 236.346 272.67C236.465 272.778 236.645 272.832 236.883 272.832C237.053 272.832 237.259 272.803 237.502 272.745L237.93 274.786C237.44 274.932 236.959 275.017 236.485 275.04C235.479 275.086 234.7 274.886 234.149 274.439C233.602 273.992 233.332 273.323 233.339 272.433V268.114H232.166V266.033H233.339V263.905H236.167V266.033H237.768ZM242.228 269.848V274.913H239.401V263.073H242.136V267.663H242.234C242.435 267.112 242.764 266.684 243.223 266.38C243.682 266.071 244.24 265.917 244.9 265.917C245.832 265.917 246.58 266.222 247.143 266.831C247.709 267.439 247.991 268.247 247.987 269.253V274.913H245.16V269.808C245.164 269.315 245.04 268.929 244.79 268.652C244.539 268.374 244.186 268.235 243.732 268.235C243.277 268.235 242.913 268.38 242.639 268.669C242.369 268.954 242.232 269.347 242.228 269.848Z" fill="#0085FF"/>
<rect x="157.623" y="199.008" width="115.942" height="35.5371" rx="2.03508" fill="white"/>
<path d="M189.397 211.29V223.13H186.541V213.961H186.471L183.823 215.58V213.105L186.743 211.29H189.397ZM195.535 223.13L195.535 214.25H198.224V215.88H198.322C198.507 215.337 198.819 214.911 199.258 214.603C199.702 214.291 200.226 214.134 200.831 214.134C201.448 214.134 201.976 214.292 202.415 214.609C202.855 214.925 203.134 215.349 203.253 215.88H203.346C203.512 215.349 203.835 214.925 204.317 214.609C204.799 214.292 205.368 214.134 206.023 214.134C206.871 214.134 207.555 214.406 208.075 214.95C208.596 215.489 208.856 216.223 208.856 217.152V223.13H206.029V217.8C206.029 217.368 205.915 217.033 205.687 216.794C205.464 216.555 205.169 216.435 204.803 216.435C204.414 216.435 204.107 216.561 203.884 216.811C203.664 217.062 203.554 217.401 203.554 217.829V223.13H200.837V217.771C200.837 217.362 200.725 217.039 200.501 216.8C200.282 216.557 199.987 216.435 199.617 216.435C199.243 216.435 198.94 216.567 198.709 216.829C198.478 217.091 198.362 217.44 198.362 217.875V223.13H195.535ZM217.146 222.726C216.468 223.107 215.67 223.298 214.753 223.298C213.835 223.298 213.036 223.107 212.353 222.726C211.675 222.34 211.157 221.805 210.798 221.118C210.444 220.429 210.266 219.629 210.266 218.719C210.266 217.81 210.444 217.01 210.798 216.32C211.157 215.63 211.675 215.094 212.353 214.713C213.036 214.327 213.835 214.134 214.753 214.134C215.67 214.134 216.468 214.327 217.146 214.713C217.829 215.094 218.347 215.63 218.702 216.32C219.06 217.01 219.239 217.81 219.239 218.719C219.239 219.629 219.06 220.429 218.702 221.118C218.347 221.805 217.829 222.34 217.146 222.726ZM214.77 221.165C215.267 221.165 215.657 220.941 215.938 220.494C216.219 220.047 216.36 219.45 216.36 218.702C216.36 217.954 216.219 217.355 215.938 216.904C215.657 216.453 215.267 216.227 214.77 216.227C214.258 216.227 213.859 216.453 213.573 216.904C213.288 217.351 213.146 217.95 213.146 218.702C213.146 219.45 213.288 220.047 213.573 220.494C213.859 220.941 214.258 221.165 214.77 221.165ZM223.515 218.066V223.13H220.688V214.25H223.376V215.88H223.474C223.671 215.337 224.006 214.911 224.48 214.603C224.958 214.291 225.523 214.134 226.174 214.134C227.107 214.134 227.855 214.441 228.417 215.054C228.98 215.663 229.26 216.468 229.256 217.47V223.13H226.429V218.025C226.432 217.532 226.307 217.147 226.053 216.869C225.802 216.592 225.453 216.453 225.006 216.453C224.555 216.453 224.195 216.597 223.925 216.886C223.655 217.172 223.519 217.565 223.515 218.066ZM236.019 214.25V216.331H234.417V220.338C234.417 220.592 234.477 220.775 234.596 220.887C234.716 220.995 234.895 221.049 235.134 221.049C235.304 221.049 235.51 221.02 235.753 220.962L236.18 223.003C235.691 223.15 235.209 223.234 234.735 223.258C233.729 223.304 232.951 223.103 232.399 222.656C231.852 222.209 231.582 221.541 231.59 220.65V216.331H230.416V214.25H231.59V212.122H234.417V214.25H236.019ZM240.479 218.066V223.13H237.652V211.29H240.386V215.88H240.485C240.685 215.329 241.015 214.901 241.473 214.597C241.932 214.289 242.491 214.134 243.15 214.134C244.083 214.134 244.831 214.439 245.393 215.048C245.96 215.657 246.241 216.464 246.237 217.47V223.13H243.41V218.025C243.414 217.532 243.291 217.147 243.04 216.869C242.79 216.592 242.437 216.453 241.982 216.453C241.527 216.453 241.163 216.597 240.889 216.886C240.62 217.172 240.483 217.565 240.479 218.066Z" fill="#0085FF"/>
<path d="M277.633 160.425L269.496 168.547" stroke="white" stroke-width="2.03508" stroke-linecap="round" stroke-linejoin="round"/>
<path d="M269.496 160.425L277.633 168.547" stroke="white" stroke-width="2.03508" stroke-linecap="round" stroke-linejoin="round"/>
<path d="M53.0193 136.826V124.986H57.4595C58.1263 124.986 58.7256 125.084 59.2575 125.28C59.7894 125.477 60.2269 125.751 60.5699 126.101C60.9168 126.448 61.1808 126.861 61.362 127.339C61.5431 127.817 61.6337 128.339 61.6337 128.905C61.6337 129.476 61.5412 130 61.3562 130.478C61.1751 130.956 60.9091 131.37 60.5584 131.721C60.2115 132.068 59.7702 132.34 59.2344 132.536C58.7025 132.729 58.1012 132.825 57.4306 132.825H55.1642V136.826H53.0193ZM55.1642 131.062H57.1415C57.9085 131.062 58.4847 130.867 58.8702 130.478C59.2556 130.089 59.4483 129.565 59.4483 128.905C59.4483 128.246 59.2556 127.728 58.8702 127.35C58.4847 126.969 57.9047 126.778 57.1299 126.778H55.1642V131.062ZM65.8007 137.005C65.2264 137.005 64.7177 136.907 64.2744 136.71C63.835 136.51 63.4843 136.206 63.2222 135.797C62.9601 135.388 62.829 134.901 62.829 134.334C62.829 133.949 62.8926 133.606 63.0198 133.305C63.147 133.005 63.3108 132.76 63.5113 132.571C63.7155 132.382 63.9699 132.222 64.2744 132.091C64.5789 131.956 64.8815 131.858 65.1821 131.796C65.4827 131.731 65.8219 131.677 66.1996 131.634C67.0553 131.542 67.5814 131.472 67.778 131.426C68.1056 131.349 68.3022 131.22 68.3677 131.039C68.387 130.981 68.3966 130.914 68.3966 130.836V130.802C68.3966 130.362 68.2675 130.025 68.0093 129.79C67.751 129.551 67.3791 129.432 66.8934 129.432C66.4116 129.432 66.0146 129.538 65.7024 129.75C65.3941 129.962 65.184 130.231 65.0723 130.559L63.1181 130.281C63.3455 129.487 63.7907 128.88 64.4536 128.46C65.1204 128.04 65.9298 127.83 66.8819 127.83C67.2403 127.83 67.5833 127.861 67.911 127.923C68.2386 127.98 68.5623 128.085 68.8823 128.235C69.2022 128.381 69.4777 128.568 69.709 128.796C69.9441 129.019 70.133 129.31 70.2756 129.669C70.4182 130.027 70.4895 130.432 70.4895 130.883V136.826H68.4776V135.606H68.4082C68.2 136.015 67.8763 136.35 67.4369 136.612C66.9975 136.874 66.4521 137.005 65.8007 137.005ZM66.3442 135.467C66.957 135.467 67.4523 135.29 67.83 134.936C68.2116 134.581 68.4024 134.149 68.4024 133.641V132.594C68.2328 132.733 67.593 132.877 66.4829 133.028C65.3922 133.182 64.8468 133.606 64.8468 134.3C64.8468 134.673 64.9836 134.963 65.2573 135.167C65.5309 135.367 65.8932 135.467 66.3442 135.467ZM73.5768 140.139C73.0179 140.139 72.5631 140.064 72.2124 139.913L72.698 138.289C73.0064 138.374 73.2781 138.416 73.5132 138.416C73.7483 138.416 73.9565 138.341 74.1376 138.191C74.3226 138.044 74.4807 137.811 74.6117 137.491L74.7909 137.011L71.5706 127.946H73.7907L75.8374 134.652H75.9299L77.9823 127.946L80.2198 127.957L76.6526 137.901C76.113 139.393 75.0877 140.139 73.5768 140.139ZM83.5051 136.826L80.9959 127.946H83.1293L84.6903 134.19H84.7712L86.3669 127.946H88.4772L90.0729 134.155H90.1596L91.6975 127.946H93.8366L91.3217 136.826H89.142L87.477 130.825H87.3556L85.6905 136.826H83.5051ZM97.8533 137.005C97.279 137.005 96.7702 136.907 96.327 136.71C95.8876 136.51 95.5368 136.206 95.2747 135.797C95.0127 135.388 94.8816 134.901 94.8816 134.334C94.8816 133.949 94.9452 133.606 95.0724 133.305C95.1996 133.005 95.3634 132.76 95.5638 132.571C95.7681 132.382 96.0225 132.222 96.327 132.091C96.6315 131.956 96.934 131.858 97.2347 131.796C97.5353 131.731 97.8745 131.677 98.2522 131.634C99.1079 131.542 99.634 131.472 99.8306 131.426C100.158 131.349 100.355 131.22 100.42 131.039C100.44 130.981 100.449 130.914 100.449 130.836V130.802C100.449 130.362 100.32 130.025 100.062 129.79C99.8036 129.551 99.4316 129.432 98.946 129.432C98.4642 129.432 98.0672 129.538 97.755 129.75C97.4467 129.962 97.2366 130.231 97.1248 130.559L95.1707 130.281C95.3981 129.487 95.8433 128.88 96.5062 128.46C97.173 128.04 97.9824 127.83 98.9344 127.83C99.2929 127.83 99.6359 127.861 99.9635 127.923C100.291 127.98 100.615 128.085 100.935 128.235C101.255 128.381 101.53 128.568 101.762 128.796C101.997 129.019 102.186 129.31 102.328 129.669C102.471 130.027 102.542 130.432 102.542 130.883V136.826H100.53V135.606H100.461C100.253 136.015 99.9288 136.35 99.4895 136.612C99.0501 136.874 98.5047 137.005 97.8533 137.005ZM98.3967 135.467C99.0096 135.467 99.5049 135.29 99.8826 134.936C100.264 134.581 100.455 134.149 100.455 133.641V132.594C100.285 132.733 99.6456 132.877 98.5355 133.028C97.4447 133.182 96.8993 133.606 96.8993 134.3C96.8993 134.673 97.0362 134.963 97.3098 135.167C97.5835 135.367 97.9458 135.467 98.3967 135.467ZM106.739 124.986V136.826H104.647V124.986H106.739ZM110.984 124.986V136.826H108.892V124.986H110.984ZM121.968 124.986V136.826H119.823V127.073H119.754L116.984 128.842V126.876L119.927 124.986H121.968Z" fill="#0085FF"/>
<path d="M308.294 136.826V124.986H312.735C313.401 124.986 314.001 125.084 314.533 125.28C315.065 125.477 315.502 125.751 315.845 126.101C316.192 126.448 316.456 126.861 316.637 127.339C316.818 127.817 316.909 128.339 316.909 128.905C316.909 129.476 316.816 130 316.631 130.478C316.45 130.956 316.184 131.37 315.834 131.721C315.487 132.068 315.045 132.34 314.51 132.536C313.978 132.729 313.376 132.825 312.706 132.825H310.439V136.826H308.294ZM310.439 131.062H312.417C313.184 131.062 313.76 130.867 314.145 130.478C314.531 130.089 314.723 129.565 314.723 128.905C314.723 128.246 314.531 127.728 314.145 127.35C313.76 126.969 313.18 126.778 312.405 126.778H310.439V131.062ZM321.076 137.005C320.502 137.005 319.993 136.907 319.55 136.71C319.11 136.51 318.759 136.206 318.497 135.797C318.235 135.388 318.104 134.901 318.104 134.334C318.104 133.949 318.168 133.606 318.295 133.305C318.422 133.005 318.586 132.76 318.786 132.571C318.991 132.382 319.245 132.222 319.55 132.091C319.854 131.956 320.157 131.858 320.457 131.796C320.758 131.731 321.097 131.677 321.475 131.634C322.33 131.542 322.857 131.472 323.053 131.426C323.381 131.349 323.577 131.22 323.643 131.039C323.662 130.981 323.672 130.914 323.672 130.836V130.802C323.672 130.362 323.543 130.025 323.284 129.79C323.026 129.551 322.654 129.432 322.169 129.432C321.687 129.432 321.29 129.538 320.978 129.75C320.669 129.962 320.459 130.231 320.347 130.559L318.393 130.281C318.621 129.487 319.066 128.88 319.729 128.46C320.396 128.04 321.205 127.83 322.157 127.83C322.515 127.83 322.858 127.861 323.186 127.923C323.514 127.98 323.837 128.085 324.157 128.235C324.477 128.381 324.753 128.568 324.984 128.796C325.219 129.019 325.408 129.31 325.551 129.669C325.693 130.027 325.765 130.432 325.765 130.883V136.826H323.753V135.606H323.683C323.475 136.015 323.151 136.35 322.712 136.612C322.273 136.874 321.727 137.005 321.076 137.005ZM321.619 135.467C322.232 135.467 322.727 135.29 323.105 134.936C323.487 134.581 323.678 134.149 323.678 133.641V132.594C323.508 132.733 322.868 132.877 321.758 133.028C320.667 133.182 320.122 133.606 320.122 134.3C320.122 134.673 320.259 134.963 320.532 135.167C320.806 135.367 321.168 135.467 321.619 135.467ZM328.852 140.139C328.293 140.139 327.838 140.064 327.488 139.913L327.973 138.289C328.282 138.374 328.553 138.416 328.788 138.416C329.023 138.416 329.232 138.341 329.413 138.191C329.598 138.044 329.756 137.811 329.887 137.491L330.066 137.011L326.846 127.946H329.066L331.113 134.652H331.205L333.257 127.946L335.495 127.957L331.928 137.901C331.388 139.393 330.363 140.139 328.852 140.139ZM338.78 136.826L336.271 127.946H338.404L339.965 134.19H340.046L341.642 127.946H343.752L345.348 134.155H345.435L346.973 127.946H349.112L346.597 136.826H344.417L342.752 130.825H342.631L340.966 136.826H338.78ZM353.128 137.005C352.554 137.005 352.045 136.907 351.602 136.71C351.163 136.51 350.812 136.206 350.55 135.797C350.288 135.388 350.157 134.901 350.157 134.334C350.157 133.949 350.22 133.606 350.348 133.305C350.475 133.005 350.639 132.76 350.839 132.571C351.043 132.382 351.298 132.222 351.602 132.091C351.907 131.956 352.209 131.858 352.51 131.796C352.81 131.731 353.15 131.677 353.527 131.634C354.383 131.542 354.909 131.472 355.106 131.426C355.433 131.349 355.63 131.22 355.695 131.039C355.715 130.981 355.724 130.914 355.724 130.836V130.802C355.724 130.362 355.595 130.025 355.337 129.79C355.079 129.551 354.707 129.432 354.221 129.432C353.739 129.432 353.342 129.538 353.03 129.75C352.722 129.962 352.512 130.231 352.4 130.559L350.446 130.281C350.673 129.487 351.118 128.88 351.781 128.46C352.448 128.04 353.258 127.83 354.21 127.83C354.568 127.83 354.911 127.861 355.239 127.923C355.566 127.98 355.89 128.085 356.21 128.235C356.53 128.381 356.805 128.568 357.037 128.796C357.272 129.019 357.461 129.31 357.603 129.669C357.746 130.027 357.817 130.432 357.817 130.883V136.826H355.805V135.606H355.736C355.528 136.015 355.204 136.35 354.765 136.612C354.325 136.874 353.78 137.005 353.128 137.005ZM353.672 135.467C354.285 135.467 354.78 135.29 355.158 134.936C355.539 134.581 355.73 134.149 355.73 133.641V132.594C355.561 132.733 354.921 132.877 353.811 133.028C352.72 133.182 352.174 133.606 352.174 134.3C352.174 134.673 352.311 134.963 352.585 135.167C352.859 135.367 353.221 135.467 353.672 135.467ZM362.015 124.986V136.826H359.922V124.986H362.015ZM366.26 124.986V136.826H364.167V124.986H366.26ZM376.676 136.988C375.852 136.988 375.114 136.847 374.462 136.566C373.811 136.281 373.298 135.882 372.924 135.369C372.55 134.853 372.354 134.265 372.335 133.606H374.508C374.535 134.084 374.751 134.467 375.156 134.756C375.561 135.045 376.066 135.19 376.671 135.19C377.307 135.19 377.827 135.026 378.232 134.699C378.64 134.371 378.843 133.947 378.839 133.427C378.843 132.883 378.631 132.444 378.203 132.108C377.775 131.773 377.193 131.605 376.457 131.605H375.41V129.952H376.457C377.073 129.952 377.574 129.794 377.96 129.478C378.345 129.162 378.536 128.746 378.532 128.229C378.536 127.732 378.368 127.331 378.029 127.026C377.694 126.718 377.251 126.564 376.7 126.564C376.333 126.564 375.998 126.629 375.694 126.761C375.389 126.888 375.14 127.075 374.948 127.321C374.759 127.568 374.659 127.853 374.647 128.177H372.583C372.599 127.529 372.789 126.949 373.156 126.437C373.522 125.924 374.015 125.527 374.636 125.246C375.256 124.964 375.948 124.824 376.711 124.824C377.289 124.824 377.823 124.91 378.313 125.084C378.806 125.257 379.218 125.492 379.55 125.789C379.885 126.082 380.145 126.429 380.33 126.83C380.515 127.231 380.608 127.655 380.608 128.102C380.612 128.757 380.419 129.312 380.03 129.767C379.64 130.222 379.12 130.52 378.469 130.663V130.756C379.29 130.871 379.926 131.178 380.377 131.675C380.828 132.168 381.051 132.789 381.047 133.536C381.047 134.196 380.86 134.789 380.486 135.317C380.113 135.841 379.592 136.252 378.925 136.549C378.259 136.842 377.509 136.988 376.676 136.988Z" fill="#0085FF"/>
<path d="M179.131 116.519V104.679H183.572C184.238 104.679 184.838 104.777 185.37 104.974C185.901 105.17 186.339 105.444 186.682 105.795C187.029 106.141 187.293 106.554 187.474 107.032C187.655 107.51 187.746 108.032 187.746 108.599C187.746 109.169 187.653 109.693 187.468 110.171C187.287 110.649 187.021 111.063 186.67 111.414C186.324 111.761 185.882 112.033 185.346 112.229C184.815 112.422 184.213 112.518 183.543 112.518H181.276V116.519H179.131ZM181.276 110.755H183.254C184.021 110.755 184.597 110.56 184.982 110.171C185.368 109.782 185.56 109.258 185.56 108.599C185.56 107.939 185.368 107.421 184.982 107.043C184.597 106.662 184.017 106.471 183.242 106.471H181.276V110.755ZM191.913 116.698C191.338 116.698 190.83 116.6 190.386 116.404C189.947 116.203 189.596 115.899 189.334 115.49C189.072 115.082 188.941 114.594 188.941 114.027C188.941 113.642 189.005 113.299 189.132 112.998C189.259 112.698 189.423 112.453 189.623 112.264C189.828 112.075 190.082 111.915 190.386 111.784C190.691 111.649 190.994 111.551 191.294 111.489C191.595 111.424 191.934 111.37 192.312 111.327C193.167 111.235 193.693 111.166 193.89 111.119C194.218 111.042 194.414 110.913 194.48 110.732C194.499 110.674 194.509 110.607 194.509 110.53V110.495C194.509 110.056 194.38 109.718 194.121 109.483C193.863 109.244 193.491 109.125 193.005 109.125C192.524 109.125 192.127 109.231 191.814 109.443C191.506 109.655 191.296 109.924 191.184 110.252L189.23 109.975C189.458 109.181 189.903 108.574 190.566 108.153C191.232 107.733 192.042 107.523 192.994 107.523C193.352 107.523 193.695 107.554 194.023 107.616C194.351 107.674 194.674 107.778 194.994 107.928C195.314 108.074 195.59 108.261 195.821 108.489C196.056 108.712 196.245 109.003 196.388 109.362C196.53 109.72 196.602 110.125 196.602 110.576V116.519H194.59V115.299H194.52C194.312 115.708 193.988 116.043 193.549 116.305C193.11 116.567 192.564 116.698 191.913 116.698ZM192.456 115.161C193.069 115.161 193.564 114.983 193.942 114.629C194.324 114.274 194.514 113.842 194.514 113.334V112.287C194.345 112.426 193.705 112.57 192.595 112.721C191.504 112.875 190.959 113.299 190.959 113.993C190.959 114.367 191.096 114.656 191.369 114.86C191.643 115.06 192.005 115.161 192.456 115.161ZM199.689 119.832C199.13 119.832 198.675 119.757 198.324 119.607L198.81 117.982C199.118 118.067 199.39 118.109 199.625 118.109C199.86 118.109 200.069 118.034 200.25 117.884C200.435 117.737 200.593 117.504 200.724 117.184L200.903 116.704L197.683 107.639H199.903L201.949 114.345H202.042L204.094 107.639L206.332 107.65L202.765 117.595C202.225 119.086 201.2 119.832 199.689 119.832ZM209.617 116.519L207.108 107.639H209.241L210.802 113.883H210.883L212.479 107.639H214.589L216.185 113.848H216.272L217.81 107.639H219.949L217.434 116.519H215.254L213.589 110.518H213.468L211.803 116.519H209.617ZM223.965 116.698C223.391 116.698 222.882 116.6 222.439 116.404C222 116.203 221.649 115.899 221.387 115.49C221.125 115.082 220.994 114.594 220.994 114.027C220.994 113.642 221.057 113.299 221.184 112.998C221.312 112.698 221.475 112.453 221.676 112.264C221.88 112.075 222.135 111.915 222.439 111.784C222.744 111.649 223.046 111.551 223.347 111.489C223.647 111.424 223.987 111.37 224.364 111.327C225.22 111.235 225.746 111.166 225.943 111.119C226.27 111.042 226.467 110.913 226.532 110.732C226.552 110.674 226.561 110.607 226.561 110.53V110.495C226.561 110.056 226.432 109.718 226.174 109.483C225.916 109.244 225.544 109.125 225.058 109.125C224.576 109.125 224.179 109.231 223.867 109.443C223.559 109.655 223.349 109.924 223.237 110.252L221.283 109.975C221.51 109.181 221.955 108.574 222.618 108.153C223.285 107.733 224.094 107.523 225.046 107.523C225.405 107.523 225.748 107.554 226.076 107.616C226.403 107.674 226.727 107.778 227.047 107.928C227.367 108.074 227.642 108.261 227.874 108.489C228.109 108.712 228.298 109.003 228.44 109.362C228.583 109.72 228.654 110.125 228.654 110.576V116.519H226.642V115.299H226.573C226.365 115.708 226.041 116.043 225.602 116.305C225.162 116.567 224.617 116.698 223.965 116.698ZM224.509 115.161C225.122 115.161 225.617 114.983 225.995 114.629C226.376 114.274 226.567 113.842 226.567 113.334V112.287C226.397 112.426 225.758 112.57 224.648 112.721C223.557 112.875 223.011 113.299 223.011 113.993C223.011 114.367 223.148 114.656 223.422 114.86C223.696 115.06 224.058 115.161 224.509 115.161ZM232.851 104.679V116.519H230.759V104.679H232.851ZM237.097 104.679V116.519H235.004V104.679H237.097ZM243.264 116.519V114.97L247.375 110.94C247.706 110.605 247.966 110.331 248.155 110.119C248.344 109.907 248.521 109.682 248.687 109.443C248.853 109.2 248.97 108.971 249.04 108.755C249.109 108.535 249.144 108.304 249.144 108.061C249.144 107.514 248.959 107.076 248.589 106.749C248.223 106.421 247.752 106.257 247.178 106.257C246.588 106.257 246.116 106.434 245.762 106.789C245.411 107.144 245.235 107.622 245.235 108.223H243.195C243.195 107.487 243.364 106.837 243.703 106.274C244.046 105.708 244.52 105.274 245.126 104.974C245.735 104.669 246.428 104.517 247.207 104.517C247.793 104.517 248.334 104.604 248.832 104.777C249.333 104.95 249.755 105.189 250.098 105.494C250.445 105.795 250.714 106.157 250.907 106.581C251.104 107.005 251.202 107.462 251.202 107.951C251.202 108.41 251.115 108.847 250.942 109.263C250.772 109.68 250.475 110.15 250.051 110.674C249.631 111.198 249.036 111.83 248.265 112.57L246.224 114.646V114.727H251.381V116.519H243.264Z" fill="#0085FF"/>
<path d="M357.978 91.3811C322.506 66.9507 302.453 67.075 266.445 91.3811" stroke="#0085FF" stroke-opacity="0.62" stroke-width="0.976677" stroke-dasharray="0.98 1.95"/>
<path d="M266.445 64.9821C228.608 40.5517 207.219 40.676 168.81 64.9821" stroke="#0085FF" stroke-opacity="0.62" stroke-width="0.976677" stroke-dasharray="0.98 1.95"/>
<path d="M171.861 93.4118C136.389 68.9814 116.336 69.1057 80.3285 93.4118" stroke="#0085FF" stroke-opacity="0.62" stroke-width="0.976677" stroke-dasharray="0.98 1.95"/>
<path d="M155.043 14.4909C157.82 14.4909 160.07 12.2401 160.07 9.46349C160.07 6.68692 157.82 4.43607 155.043 4.43607C152.266 4.43607 150.016 6.68692 150.016 9.46349C150.016 12.2401 152.266 14.4909 155.043 14.4909Z" fill="#2D2D2D"/>
<path opacity="0.2" d="M155.043 14.4909C157.82 14.4909 160.07 12.2401 160.07 9.46349C160.07 6.68692 157.82 4.43607 155.043 4.43607C152.266 4.43607 150.016 6.68692 150.016 9.46349C150.016 12.2401 152.266 14.4909 155.043 14.4909Z" fill="#050505"/>
<path d="M176.109 46.6854C175.454 47.4674 174.756 48.2118 174.018 48.9148C168.914 53.773 162.137 56.4824 155.091 56.482C149.245 56.482 144.363 54.4429 140.792 52.2543C139.195 51.2728 137.686 50.1555 136.281 48.9148C135.561 48.2855 134.88 47.6121 134.242 46.8984C134.188 46.8395 134.124 46.7647 134.057 46.6718C135.743 44.9849 137.661 43.5462 139.752 42.3989C141.726 41.3076 143.818 40.4456 145.987 39.8297C149.008 42.4971 152.024 45.1629 155.034 47.8273C158.083 45.1614 161.128 42.4955 164.169 39.8297C164.235 39.8478 164.298 39.8636 164.362 39.884C164.383 39.8927 164.405 39.8988 164.427 39.9022C166.5 40.5167 168.501 41.3522 170.395 42.3943C172.49 43.5513 174.414 44.9956 176.109 46.6854V46.6854Z" fill="#AA392D"/>
<path d="M164.176 39.8387C161.132 42.5061 158.087 45.172 155.041 47.8364C152.02 45.1705 149.004 42.5046 145.994 39.8387C146.45 39.6572 146.926 39.5325 147.412 39.4672C149.951 41.6467 152.493 43.827 155.036 46.008C157.604 43.824 160.178 41.6437 162.758 39.4672C163.243 39.5358 163.719 39.6605 164.176 39.8387V39.8387Z" fill="#7C211A"/>
<path d="M162.757 39.4672C160.19 41.6467 157.616 43.827 155.036 46.008C152.497 43.824 149.956 41.6437 147.412 39.4672C147.739 39.3879 148.078 39.3131 148.425 39.2406C148.772 39.1681 149.057 39.116 149.363 39.0662C149.516 38.6875 149.642 38.2983 149.739 37.9016C149.789 37.6751 149.828 37.4757 149.864 37.2786C150.174 37.5312 150.5 37.7636 150.84 37.9741C151.166 38.1771 151.503 38.3624 151.848 38.5292C152.809 38.965 153.844 39.2127 154.898 39.2587C156.074 39.235 157.232 38.9641 158.296 38.4635C158.678 38.2733 159.048 38.0623 159.407 37.8314C159.753 37.6048 160.041 37.3783 160.258 37.2084C160.322 37.5006 160.401 37.8065 160.499 38.1282C160.596 38.4499 160.703 38.7762 160.816 39.0662C161.083 39.1115 161.355 39.1613 161.636 39.2202C162.023 39.295 162.393 39.3788 162.757 39.4672Z" fill="#843F2C"/>
<path opacity="0.2" d="M164.434 39.9112C164.246 40.1242 164.053 40.3326 163.854 40.5297C163.414 40.9738 162.943 41.385 162.443 41.76C161.783 42.2529 161.064 42.6594 160.302 42.9698C159.822 43.1663 159.324 43.3136 158.815 43.4093C158.367 43.4955 157.912 43.5358 157.456 43.5294C156.559 43.5114 155.673 43.327 154.844 42.9857L154.694 42.9245C154.033 42.6416 153.407 42.2835 152.827 41.8574C151.734 41.0438 150.769 40.0699 149.966 38.9687C149.839 38.7943 149.714 38.6176 149.592 38.434C149.617 38.3547 149.639 38.2754 149.66 38.1916C149.746 37.8938 149.814 37.5912 149.864 37.2854C149.995 37.3941 150.129 37.4983 150.267 37.5958C150.634 37.8637 151.019 38.1053 151.42 38.3185C151.459 38.3366 151.497 38.3615 151.538 38.3819C151.579 38.4023 151.631 38.4318 151.681 38.4567L151.848 38.536L151.948 38.579L152.032 38.6198L152.136 38.6629L152.234 38.7037C152.249 38.7116 152.266 38.7177 152.283 38.7218C152.322 38.7412 152.362 38.7579 152.404 38.7716C152.451 38.792 152.501 38.8079 152.555 38.826C152.614 38.8464 152.664 38.8668 152.718 38.8804L152.755 38.8962C152.793 38.8962 152.832 38.9212 152.873 38.9302C152.929 38.9521 152.986 38.9702 153.045 38.9846L153.124 39.005L153.283 39.0503C153.618 39.1355 153.96 39.1946 154.304 39.227C154.341 39.2293 154.377 39.2293 154.413 39.227C154.436 39.2304 154.46 39.2304 154.483 39.227C154.533 39.227 154.576 39.227 154.626 39.227H154.751H155.016C155.76 39.2236 156.499 39.102 157.204 38.8668H157.22L157.304 38.8373C157.451 38.792 157.596 38.7331 157.744 38.6787L157.784 38.6583C157.848 38.6357 157.907 38.604 157.97 38.5813C157.986 38.5728 158.003 38.5659 158.02 38.5609C158.677 38.2637 159.3 37.896 159.878 37.4644C160.002 37.3692 160.125 37.2763 160.245 37.1812C160.313 37.4893 160.397 37.8201 160.501 38.1644C160.605 38.5088 160.698 38.7671 160.802 39.039L161.049 39.0843L161.296 39.1296L161.539 39.1726C161.597 39.1885 161.656 39.1976 161.722 39.2134C161.762 39.2187 161.801 39.227 161.84 39.2383C162.146 39.3018 162.452 39.3652 162.746 39.44C163.226 39.5533 163.695 39.6779 164.164 39.8115L164.434 39.9112Z" fill="black"/>
<path d="M168.161 27.2441C168.127 28.4132 167.379 29.5981 166.546 30.0331C166.432 30.0915 166.313 30.1371 166.19 30.169H166.165C166.016 30.205 165.862 30.2097 165.712 30.1826C165.548 30.1502 165.394 30.083 165.259 29.9855L165.195 29.938C165.103 29.8643 165.018 29.7807 164.944 29.6887C164.341 28.9637 164.094 27.5998 164.491 26.5169C164.653 26.0936 164.901 25.7081 165.218 25.384C165.486 25.0965 165.833 24.8941 166.215 24.8018C166.39 24.7655 166.572 24.7655 166.747 24.8018C167.735 24.9921 168.193 26.2676 168.161 27.2441Z" fill="#843F2C"/>
<path opacity="0.3" d="M168.163 27.2441C168.125 28.4154 167.377 29.5958 166.543 30.0353C166.431 30.0914 166.313 30.1362 166.192 30.169H166.163C166.014 30.2017 165.86 30.2071 165.71 30.1849C165.546 30.1506 165.392 30.0827 165.256 29.9855L165.193 29.9379C165.101 29.8636 165.017 29.7801 164.942 29.6887C164.339 28.9637 164.092 27.5998 164.488 26.5168C164.65 26.0933 164.898 25.7077 165.216 25.384C165.417 25.1753 165.657 25.0075 165.923 24.8901C166.016 24.85 166.113 24.8197 166.213 24.7995C166.389 24.7632 166.571 24.7632 166.747 24.7995C166.774 24.8041 166.801 24.811 166.826 24.8199C167.758 25.06 168.193 26.2948 168.163 27.2441Z" fill="black"/>
<path d="M145.231 29.6932C145.138 29.8054 145.031 29.9051 144.913 29.99C144.779 30.0883 144.624 30.1556 144.46 30.1872C144.31 30.2144 144.156 30.2098 144.007 30.1736H143.98C143.857 30.1418 143.738 30.0954 143.626 30.0354C142.79 29.6026 142.041 28.4177 142.009 27.2486C141.979 26.2722 142.437 24.9966 143.429 24.7972C143.994 24.6839 144.535 24.9581 144.959 25.3863C145.278 25.7086 145.526 26.0946 145.686 26.5191C146.078 27.6043 145.831 28.9682 145.231 29.6932Z" fill="#843F2C"/>
<path d="M166.206 24.7973L166.192 25.0737C166.083 26.7359 165.742 28.3748 165.179 29.9425C164.133 32.8878 162.368 35.5046 160.249 37.2084C160.129 37.3035 160.007 37.3964 159.882 37.4916C159.305 37.9232 158.682 38.2909 158.025 38.5881C158.007 38.5931 157.991 38.6 157.975 38.6085C157.911 38.6312 157.852 38.6629 157.789 38.6856L157.748 38.7059C157.601 38.7603 157.456 38.8192 157.309 38.8645L157.225 38.894H157.209C156.503 39.1292 155.764 39.2508 155.02 39.2542H154.755H154.631C154.581 39.2542 154.538 39.2542 154.488 39.2542C154.465 39.2576 154.441 39.2576 154.418 39.2542C154.381 39.2566 154.345 39.2566 154.309 39.2542C153.964 39.2218 153.623 39.1627 153.287 39.0775L153.129 39.0322L153.049 39.0118C152.991 38.9974 152.933 38.9793 152.877 38.9574C152.836 38.9574 152.798 38.9325 152.759 38.9235L152.723 38.9076C152.669 38.894 152.619 38.8736 152.56 38.8532C152.505 38.8351 152.456 38.8192 152.408 38.7988C152.367 38.7851 152.327 38.7685 152.288 38.749C152.271 38.7449 152.254 38.7388 152.238 38.7309L152.141 38.6901L152.037 38.647L151.953 38.6063L151.853 38.5632L151.685 38.4839C151.635 38.459 151.586 38.4341 151.543 38.4092C151.5 38.3842 151.463 38.3638 151.425 38.3457C151.024 38.1325 150.638 37.8909 150.272 37.623C150.133 37.5256 150 37.4213 149.868 37.3126C149.517 37.0357 149.183 36.7368 148.869 36.4177C148.539 36.0966 148.227 35.7569 147.936 35.4004V35.4004C146.575 33.7233 145.533 31.8103 144.864 29.7567C144.413 28.4104 144.123 27.0158 143.998 25.6016C143.978 25.375 143.964 25.1485 143.953 24.906C143.912 24.0882 143.937 23.2684 144.028 22.4546C144.062 22.1238 144.111 21.7976 144.17 21.4713C144.243 21.0666 144.336 20.6658 144.449 20.2706C144.71 19.2987 145.061 18.353 145.496 17.4453C146.449 15.4448 147.827 13.562 149.547 12.2231C151.112 11.0042 152.965 10.2316 155.05 10.227C158.405 10.2135 161.183 12.1845 163.124 14.8376C163.914 15.915 164.566 17.0862 165.066 18.3244C165.193 18.637 165.313 18.9474 165.422 19.2646C165.668 19.9891 165.861 20.7304 166 21.4827C166.054 21.7976 166.104 22.1193 166.138 22.441C166.22 23.2236 166.243 24.0113 166.206 24.7973V24.7973Z" fill="#843F2C"/>
<path opacity="0.2" d="M162.703 25.52C161.586 25.4905 159.819 24.5457 158.836 23.8796C155.949 21.9221 153.711 18.1975 152.095 18.125C151.923 18.1174 151.751 18.1428 151.588 18.1997C150.856 18.4716 150.609 19.4254 150.346 20.3498C150.027 21.4826 149.814 22.2257 149.667 22.7015C149.651 21.4011 149.626 19.9828 150.412 17.9777C150.639 17.3796 150.94 16.7656 151.534 16.5503C151.821 16.4416 152.759 16.2128 155.145 18.4172C155.773 18.9835 156.348 19.6053 156.865 20.275C158.806 22.8103 158.827 23.0074 159.81 23.8819C161.226 25.1348 162.087 25.0691 162.703 25.52Z" fill="black"/>
<path d="M169.953 38.7421C169.851 39.0208 167.878 38.946 166.165 37.8676C164.169 36.6124 162.676 34.0885 162.592 31.4559C162.508 28.6828 164.035 27.5771 163.174 26.066C163.061 25.8561 162.907 25.6711 162.721 25.5222C162.105 25.0691 161.244 25.1371 159.837 23.8819C158.854 23.0074 158.833 22.8103 156.892 20.275C156.376 19.6053 155.8 18.9835 155.172 18.4172C152.768 16.2105 151.828 16.4393 151.543 16.539C150.949 16.7542 150.659 17.3682 150.421 17.9664C149.635 19.976 149.66 21.3897 149.676 22.6902C149.676 23.7958 149.689 24.8176 149.182 26.0546C148.099 28.6805 146.164 28.7553 146.057 31.0775C145.994 32.3825 146.592 32.6635 146.558 34.3672C146.558 34.9404 146.504 37.0656 145.169 38.4997C142.94 40.8809 138.459 39.9067 138.4 39.406C138.341 38.9053 142.541 38.9528 143.357 36.7824C144.018 35.0152 141.544 33.6807 141.898 30.6652C142.077 29.1223 142.777 28.9999 143.357 27.0968C144.206 24.2807 143.069 23.2226 143.262 20.6194C143.597 16.0746 147.551 12.2003 151.078 10.7028C152.166 10.233 153.321 9.93781 154.501 9.82823C159.205 9.42948 162.744 12.3046 164.042 13.5439C164.991 14.4501 167.368 16.7157 167.758 20.0258C167.916 21.511 167.84 23.0119 167.531 24.4732C166.903 27.8921 165.798 28.2727 165.565 31.03C165.472 32.1265 165.293 34.2607 166.514 36.0551C167.841 37.9899 170.055 38.4385 169.953 38.7421Z" fill="#2D2D2D"/>
<rect width="52" height="25" rx="4" transform="matrix(0.990268 -0.139173 0.139763 0.990185 0.997192 84)" fill="#27AF3A"/>
<path d="M12.2663 98.9473L11.9151 96.4567L9.41954 96.8074L9.1484 94.8845L11.644 94.5338L11.2921 92.0384L13.2151 91.7681L13.567 94.2635L16.0578 93.9135L16.3289 95.8363L13.8381 96.1864L14.1893 98.6771L12.2663 98.9473ZM22.4702 99.0898C21.7354 99.1931 21.059 99.1584 20.4409 98.9857C19.8229 98.8131 19.318 98.5223 18.9262 98.1135C18.534 97.7015 18.2936 97.2049 18.2052 96.6237L20.5815 96.2897C20.6395 96.6092 20.8196 96.8515 21.1219 97.0166C21.4269 97.1781 21.7894 97.2294 22.2093 97.1704C22.6292 97.1114 22.9559 96.9551 23.1895 96.7017C23.4257 96.4447 23.5178 96.143 23.4658 95.7968C23.4232 95.4492 23.2372 95.1882 22.9077 95.0139C22.5777 94.8365 22.1678 94.7822 21.6779 94.851L20.7283 94.9845L20.4915 93.305L21.4411 93.1715C21.8769 93.1103 22.2149 92.9541 22.4553 92.7029C22.6988 92.4514 22.7952 92.1572 22.7445 91.8205C22.7015 91.4924 22.5495 91.2429 22.2886 91.072C22.0272 90.8978 21.7088 90.8372 21.3334 90.8899C20.9358 90.9458 20.618 91.0959 20.3799 91.3402C20.145 91.5841 20.0461 91.8721 20.0832 92.2042L17.8262 92.5214C17.7523 91.9512 17.841 91.4181 18.0922 90.9221C18.3434 90.4262 18.7283 90.0152 19.2469 89.6893C19.7681 89.3598 20.3771 89.1461 21.0737 89.0482C21.7609 88.9516 22.3905 88.988 22.9626 89.1574C23.5375 89.3231 24.0013 89.5985 24.3541 89.9837C24.7096 90.3651 24.9246 90.8199 24.999 91.3479C25.0785 91.8882 24.9656 92.3647 24.6605 92.7774C24.3549 93.187 23.92 93.4735 23.3559 93.6371L23.3666 93.7135C24.12 93.6952 24.7219 93.8572 25.1724 94.1993C25.6229 94.5415 25.8897 95.0182 25.9726 95.6294C26.0515 96.1892 25.9568 96.7134 25.6883 97.2021C25.4198 97.6907 25.004 98.1011 24.4409 98.4333C23.8811 98.765 23.2242 98.9838 22.4702 99.0898ZM31.7719 97.8896C30.4867 98.0702 29.413 97.7605 28.5508 96.9604C27.6886 96.1603 27.1463 94.96 26.9238 93.3595C26.7023 91.7655 26.8937 90.4767 27.4979 89.4932C28.1053 88.5092 29.0532 87.9267 30.3415 87.7457C31.6299 87.5646 32.7038 87.8646 33.5634 88.6456C34.4224 89.4234 34.9625 90.6078 35.1836 92.1987C35.4069 93.8055 35.2149 95.1122 34.6074 96.1189C34.0027 97.1219 33.0575 97.7122 31.7719 97.8896ZM30.1362 95.3313C30.5169 95.8228 30.9714 96.0314 31.4994 95.9572C32.0275 95.883 32.4065 95.5572 32.6366 94.9799C32.8662 94.3994 32.9056 93.5861 32.7548 92.54C32.6068 91.5131 32.343 90.7586 31.9636 90.2767C31.5874 89.7943 31.1369 89.59 30.612 89.6638C30.0903 89.7371 29.7138 90.0576 29.4824 90.6254C29.2542 91.1927 29.2109 91.9903 29.3526 93.0182C29.497 94.0652 29.7582 94.8362 30.1362 95.3313ZM42.4381 94.2787L42.3654 93.7634C42.3107 93.3527 42.3441 92.9684 42.4656 92.6107C42.5871 92.253 42.8035 91.9469 43.1147 91.6923C43.4287 91.4341 43.8163 91.2725 44.2775 91.2077C44.7484 91.1416 45.1701 91.1877 45.5428 91.3462C45.9183 91.501 46.2125 91.7354 46.4254 92.0493C46.6411 92.3596 46.7766 92.7218 46.8317 93.1357L46.9043 93.6511C46.9649 94.0578 46.9347 94.4416 46.8136 94.8024C46.6921 95.1601 46.4726 95.4667 46.155 95.7222C45.8379 95.9809 45.4471 96.1428 44.9826 96.2081C44.5182 96.2734 44.0994 96.2252 43.7262 96.0635C43.3535 95.9051 43.0609 95.6705 42.8484 95.3597C42.6359 95.049 42.4991 94.6886 42.4381 94.2787ZM36.582 89.3989L36.5094 88.8836C36.4542 88.4696 36.489 88.0836 36.6137 87.7254C36.7379 87.3641 36.9559 87.0578 37.2676 86.8063C37.582 86.5513 37.9666 86.3918 38.4215 86.3279C38.8955 86.2613 39.3188 86.3072 39.6916 86.4657C40.0675 86.6237 40.3617 86.8581 40.5742 87.1688C40.7899 87.4791 40.9253 87.8413 40.9804 88.2552L41.0531 88.7705C41.0966 89.0791 41.0879 89.3739 41.0269 89.6549C40.966 89.936 40.856 90.1915 40.6971 90.4215C40.5413 90.651 40.3285 90.8447 40.0588 91.0026C39.7886 91.1574 39.477 91.2596 39.1239 91.3092C38.4304 91.4066 37.8566 91.2716 37.4025 90.9039C36.9511 90.5327 36.6776 90.031 36.582 89.3989ZM38.1251 96.7534L43.4658 86.0374L44.7684 85.8543L39.4278 96.5703L38.1251 96.7534ZM43.8876 93.5495L43.9602 94.0648C43.9975 94.3061 44.0821 94.5035 44.214 94.6569C44.3491 94.8098 44.5407 94.8688 44.7889 94.834C45.0434 94.7982 45.213 94.69 45.2979 94.5094C45.3854 94.3252 45.4088 94.111 45.3679 93.867L45.2952 93.3517C45.2822 93.2367 45.2577 93.1315 45.2215 93.036C45.1885 92.9401 45.1403 92.8512 45.0768 92.7693C45.0165 92.6869 44.9335 92.6272 44.8277 92.5902C44.7251 92.5527 44.6054 92.5436 44.4686 92.5628C44.3382 92.5811 44.2289 92.6224 44.1406 92.6867C44.0555 92.7506 43.9938 92.8306 43.9555 92.9269C43.9171 93.0231 43.8922 93.1223 43.8807 93.2245C43.8691 93.3267 43.8714 93.435 43.8876 93.5495ZM38.0458 88.6677L38.1185 89.183C38.1437 89.3384 38.1841 89.4754 38.2397 89.5941C38.2981 89.7092 38.3861 89.8039 38.5036 89.8782C38.6244 89.9521 38.7674 89.9774 38.9328 89.9541C39.1873 89.9183 39.357 89.8102 39.4418 89.6296C39.5294 89.4453 39.5527 89.2312 39.5118 88.9871L39.4392 88.4718C39.4262 88.3569 39.4016 88.2517 39.3655 88.1562C39.3325 88.0603 39.2842 87.9713 39.2208 87.8894C39.1605 87.8071 39.0775 87.7474 38.9717 87.7103C38.8691 87.6728 38.7494 87.6637 38.6126 87.6829C38.444 87.7066 38.3123 87.7738 38.2176 87.8844C38.1229 87.9951 38.0652 88.1151 38.0446 88.2445C38.0266 88.3703 38.027 88.5113 38.0458 88.6677Z" fill="white"/>
<rect width="50" height="24" rx="4" transform="matrix(0.970296 0.241922 -0.242678 0.970107 362 56)" fill="#D00066"/>
<path d="M366.649 72.1345L367.241 69.7685L364.87 69.1774L365.327 67.3509L367.698 67.942L368.291 65.5716L370.117 66.0271L369.524 68.3975L371.891 68.9875L371.434 70.8141L369.068 70.224L368.476 72.59L366.649 72.1345ZM372.094 74.9174L372.498 73.3039L376.626 71.184C377.151 70.9073 377.538 70.6605 377.789 70.4435C378.039 70.2266 378.204 69.9565 378.285 69.6332C378.38 69.2555 378.332 68.9258 378.142 68.6442C377.957 68.3604 377.672 68.1706 377.288 68.0749C376.898 67.9777 376.556 68.0175 376.261 68.1944C375.97 68.3691 375.773 68.6634 375.669 69.0773L373.543 68.5472C373.699 67.9248 373.977 67.4163 374.378 67.0218C374.778 66.6273 375.268 66.3706 375.846 66.2517C376.425 66.1328 377.055 66.1581 377.735 66.3276C378.783 66.5891 379.559 67.0569 380.061 67.7311C380.567 68.403 380.715 69.159 380.505 69.999C380.413 70.3676 380.254 70.7019 380.028 71.0019C379.803 71.2989 379.451 71.6155 378.972 71.9519C378.496 72.286 377.852 72.6614 377.038 73.078L375.671 73.8254L375.656 73.8844L379.419 74.8225L378.967 76.6309L372.094 74.9174ZM383.735 77.9545C383.036 77.7804 382.441 77.5036 381.948 77.124C381.456 76.7444 381.108 76.2997 380.905 75.79C380.702 75.2773 380.667 74.7437 380.8 74.1892L383.057 74.7521C382.993 75.0603 383.066 75.3435 383.278 75.6017C383.493 75.8576 383.8 76.0353 384.199 76.1347C384.598 76.2342 384.949 76.2125 385.251 76.0695C385.557 75.9244 385.75 75.6867 385.829 75.3566C385.918 75.0287 385.846 74.7267 385.613 74.4504C385.381 74.1711 385.032 73.9734 384.567 73.8573L383.665 73.6324L384.064 72.037L384.966 72.2619C385.38 72.3652 385.741 72.3476 386.048 72.2092C386.359 72.0715 386.553 71.8422 386.63 71.5212C386.711 71.2107 386.665 70.9312 386.493 70.6829C386.321 70.4314 386.057 70.2613 385.701 70.1724C385.323 70.0782 384.982 70.0976 384.679 70.2308C384.379 70.3646 384.186 70.5875 384.098 70.8995L381.954 70.3649C382.095 69.8255 382.369 69.3786 382.775 69.0242C383.182 68.6697 383.678 68.4402 384.262 68.3356C384.851 68.2288 385.476 68.2578 386.138 68.4229C386.791 68.5856 387.344 68.847 387.796 69.207C388.253 69.5648 388.569 69.9807 388.746 70.455C388.926 70.9269 388.954 71.4137 388.828 71.9153C388.703 72.4297 388.428 72.8169 388.003 73.077C387.579 73.334 387.084 73.4337 386.517 73.3758L386.499 73.4483C387.183 73.7055 387.665 74.0696 387.945 74.5408C388.226 75.0119 388.292 75.5372 388.143 76.1166C388.01 76.6484 387.734 77.0851 387.315 77.4267C386.895 77.7684 386.372 77.9862 385.745 78.0802C385.121 78.175 384.451 78.1331 383.735 77.9545ZM394.385 78.626L394.507 78.1365C394.607 77.7475 394.778 77.4143 395.017 77.137C395.257 76.8597 395.563 76.6631 395.935 76.5473C396.311 76.4293 396.719 76.4249 397.157 76.5341C397.604 76.6457 397.966 76.8403 398.244 77.1181C398.525 77.3936 398.704 77.7111 398.781 78.0706C398.862 78.4278 398.851 78.8024 398.75 79.1945L398.628 79.684C398.534 80.0715 398.367 80.4054 398.127 80.6858C397.887 80.9631 397.578 81.1589 397.199 81.2732C396.82 81.3905 396.41 81.3941 395.969 81.2841C395.527 81.1741 395.169 80.9787 394.892 80.6979C394.615 80.4201 394.437 80.103 394.359 79.7465C394.282 79.3901 394.29 79.0166 394.385 78.626ZM390.899 72.1137L391.021 71.6242C391.123 71.2322 391.295 70.8978 391.537 70.6213C391.781 70.3417 392.088 70.1455 392.46 70.0327C392.835 69.9177 393.239 69.9141 393.671 70.0218C394.122 70.1341 394.485 70.3291 394.763 70.6069C395.043 70.8855 395.222 71.2029 395.3 71.5594C395.381 71.9166 395.37 72.2912 395.269 72.6833L395.147 73.1728C395.073 73.4659 394.958 73.7277 394.801 73.9581C394.644 74.1886 394.452 74.3783 394.225 74.5272C394.001 74.6769 393.74 74.7737 393.44 74.8177C393.14 74.8586 392.823 74.8373 392.488 74.7537C391.829 74.5894 391.362 74.2596 391.088 73.7643C390.818 73.2667 390.755 72.7165 390.899 72.1137ZM389.606 79.2837L398.311 71.5928L399.549 71.9013L390.844 79.5922L389.606 79.2837ZM395.953 78.4971L395.831 78.9866C395.776 79.217 395.78 79.4251 395.843 79.6108C395.909 79.7973 396.059 79.92 396.295 79.9788C396.537 80.039 396.729 80.0034 396.871 79.8719C397.017 79.7382 397.116 79.5542 397.168 79.32L397.29 78.8305C397.321 78.7225 397.337 78.619 397.339 78.5201C397.344 78.4219 397.334 78.3245 397.306 78.2278C397.282 78.1319 397.229 78.0481 397.148 77.9764C397.069 77.9054 396.965 77.8537 396.835 77.8213C396.711 77.7905 396.598 77.7879 396.495 77.8136C396.395 77.8401 396.311 77.8896 396.241 77.9622C396.171 78.0347 396.113 78.1148 396.065 78.2025C396.018 78.2901 395.98 78.3883 395.953 78.4971ZM392.481 71.9882L392.359 72.4777C392.325 72.6265 392.311 72.7643 392.318 72.8912C392.328 73.0158 392.373 73.1329 392.452 73.2423C392.533 73.3526 392.653 73.4273 392.81 73.4665C393.051 73.5267 393.243 73.4911 393.385 73.3596C393.531 73.2258 393.63 73.0419 393.682 72.8077L393.805 72.3182C393.835 72.2102 393.851 72.1067 393.854 72.0078C393.859 71.9096 393.848 71.8121 393.821 71.7155C393.797 71.6196 393.744 71.5358 393.662 71.4641C393.584 71.3931 393.479 71.3414 393.349 71.309C393.189 71.2691 393.046 71.2816 392.921 71.3467C392.796 71.4117 392.7 71.4986 392.634 71.6074C392.572 71.7139 392.521 71.8409 392.481 71.9882Z" fill="white"/>
<rect opacity="0.32" x="222.717" y="66.1142" width="11.7133" height="11.6906" stroke="#D00066" stroke-width="1.95335"/>
<path opacity="0.32" d="M324.269 32.6501C324.269 35.8768 321.648 38.4954 318.412 38.4954C315.176 38.4954 312.555 35.8768 312.555 32.6501C312.555 29.4233 315.176 26.8048 318.412 26.8048C321.648 26.8048 324.269 29.4233 324.269 32.6501Z" stroke="#27AF3A" stroke-width="1.95335"/>
<path opacity="0.32" d="M59.7222 59.4079L67.3308 68.179H52.1136L59.7222 59.4079Z" fill="#E8A100"/>
</svg>
