<svg fill="none" height="397" viewBox="0 0 419 397" width="419" xmlns="http://www.w3.org/2000/svg"><g fill="#0085ff"><rect fill-opacity=".17" height="231.499" rx="8.14033" width="148.487" x="270.513" y="148.24"/><path d="m323.842 199.716v-14.801h9.482v2.248h-6.801v4.018h6.15v2.248h-6.15v6.287zm11.65 0v-11.1h2.536v1.85h.116c.197-.636.542-1.13 1.033-1.482.492-.352 1.06-.527 1.706-.527.361 0 .674.024.939.072v2.406c-.313-.101-.718-.151-1.214-.151-.722 0-1.32.226-1.792.679-.472.448-.708 1.024-.708 1.727v6.526zm12.526.217c-1.667 0-2.983-.513-3.946-1.539-.964-1.027-1.446-2.414-1.446-4.163 0-1.132.215-2.134.644-3.006.433-.873 1.047-1.549 1.842-2.031.8-.482 1.723-.723 2.768-.723.699 0 1.347.113 1.944.34.603.221 1.14.554 1.612.997s.843 1.031 1.113 1.763c.27.728.405 1.564.405 2.508v.802h-7.733c.009.94.27 1.677.78 2.212.516.535 1.2.802 2.053.802.573 0 1.064-.123 1.474-.369.409-.245.701-.6.874-1.062l2.443.275c-.236.978-.78 1.756-1.633 2.334-.853.573-1.918.86-3.194.86zm-2.79-6.815h5.218c-.01-.761-.248-1.385-.716-1.872-.462-.491-1.067-.737-1.814-.737-.761 0-1.39.253-1.886.759-.491.501-.759 1.118-.802 1.85zm14.853 6.815c-1.667 0-2.982-.513-3.946-1.539-.963-1.027-1.445-2.414-1.445-4.163 0-1.132.214-2.134.643-3.006.434-.873 1.048-1.549 1.843-2.031.8-.482 1.722-.723 2.768-.723.698 0 1.346.113 1.944.34.602.221 1.139.554 1.611.997s.843 1.031 1.113 1.763c.27.728.405 1.564.405 2.508v.802h-7.733c.01.94.27 1.677.781 2.212.515.535 1.199.802 2.052.802.573 0 1.065-.123 1.474-.369.41-.245.701-.6.875-1.062l2.443.275c-.237.978-.781 1.756-1.634 2.334-.853.573-1.917.86-3.194.86zm-2.79-6.815h5.218c-.009-.761-.248-1.385-.715-1.872-.463-.491-1.067-.737-1.814-.737-.761 0-1.39.253-1.886.759-.492.501-.759 1.118-.803 1.85z"/><path d="m327.395 299.918v-2.324h10.008v2.324h-3.591v9.517h-2.821v-9.517zm10.483 9.517v-8.881h2.746v1.619h.093c.158-.574.418-1.008.78-1.301.363-.293.792-.439 1.29-.439.27 0 .534.035.792.104v2.457c-.293-.1-.663-.15-1.11-.15-.513 0-.935.164-1.266.491-.332.328-.498.754-.498 1.278v4.822zm6.853 0v-8.881h2.827v8.881zm2.44-10.309c-.282.262-.623.393-1.024.393s-.744-.131-1.029-.393c-.281-.266-.422-.586-.422-.959 0-.374.141-.692.422-.954.285-.262.628-.393 1.029-.393s.742.131 1.024.393c.285.262.427.58.427.954 0 .373-.142.693-.427.959zm4.69 10.459c-.883 0-1.59-.222-2.122-.665-.532-.447-.798-1.096-.798-1.948 0-1.669 1.101-2.596 3.301-2.781.814-.073 1.367-.158 1.66-.254.296-.101.445-.28.445-.538v-.029c0-.293-.102-.52-.307-.682-.2-.166-.476-.249-.826-.249-.37 0-.671.081-.902.243-.228.158-.372.382-.434.671l-2.607-.093c.057-.408.185-.782.381-1.122.201-.343.463-.641.786-.896.328-.254.731-.451 1.209-.589.478-.143 1.008-.214 1.59-.214.759 0 1.432.115 2.017.347.59.227 1.057.566 1.4 1.017s.514.983.514 1.596v6.036h-2.659v-1.238h-.07c-.493.926-1.353 1.388-2.578 1.388zm.873-1.85c.458 0 .844-.135 1.156-.405.316-.273.474-.624.474-1.052v-.844c-.25.131-.748.25-1.491.358-.837.128-1.255.474-1.255 1.041 0 .289.102.513.306.671.205.154.474.231.81.231zm8.99-10.141v11.841h-2.827v-11.841zm-41.594 31.841 4.775-9.459v-.075h-5.585v-2.307h8.545v2.324l-4.792 9.517zm16.071.127c-.497 0-.96-.096-1.388-.289-.424-.197-.798-.48-1.121-.85-.324-.374-.578-.854-.763-1.44-.185-.585-.278-1.247-.278-1.983 0-.609.064-1.166.191-1.671.127-.508.3-.938.52-1.289.22-.354.48-.653.781-.896.3-.243.622-.42.965-.532.343-.115.704-.173 1.081-.173.336 0 .646.046.931.138.285.093.528.22.729.382.2.158.37.33.508.515.139.185.253.385.341.601h.058v-4.481h2.827v11.841h-2.798v-1.44h-.087c-.2.455-.51.831-.93 1.128-.417.292-.939.439-1.567.439zm.983-2.203c.508 0 .907-.212 1.196-.636.293-.428.44-1.004.44-1.728 0-.729-.145-1.301-.434-1.718-.285-.42-.686-.63-1.202-.63-.521 0-.923.21-1.209.63-.281.421-.422.993-.422 1.718 0 .728.143 1.304.428 1.728s.686.636 1.203.636zm8.691 2.226c-.883 0-1.59-.222-2.122-.665-.532-.447-.798-1.096-.798-1.948 0-1.669 1.1-2.596 3.301-2.781.814-.073 1.367-.158 1.66-.254.296-.101.445-.28.445-.538v-.029c0-.293-.102-.52-.307-.682-.2-.166-.476-.249-.826-.249-.37 0-.671.081-.902.243-.228.158-.372.382-.434.671l-2.607-.093c.057-.408.185-.782.381-1.122.201-.343.463-.641.786-.896.328-.254.731-.451 1.209-.589.478-.143 1.008-.214 1.59-.214.759 0 1.432.115 2.017.347.59.227 1.057.566 1.4 1.017s.514.983.514 1.596v6.036h-2.659v-1.238h-.07c-.493.926-1.353 1.388-2.578 1.388zm.873-1.85c.458 0 .844-.135 1.156-.405.316-.273.474-.624.474-1.052v-.844c-.25.131-.748.25-1.492.358-.836.128-1.254.474-1.254 1.041 0 .289.102.513.306.671.205.154.474.231.81.231zm7.573 5.018c-.674 0-1.252-.094-1.734-.283l.624-2.052c.409.15.76.198 1.053.144.296-.054.518-.233.665-.538l.109-.266-3.156-9.204h2.96l1.636 6.337h.092l1.66-6.337 2.977.006-3.347 9.725c-.563 1.645-1.742 2.468-3.539 2.468zm15.723-9.487-2.596.069c-.042-.285-.185-.516-.427-.694-.243-.177-.55-.265-.92-.265-.335 0-.616.067-.844.202-.223.131-.333.306-.329.526-.004.181.069.335.219.463.154.123.411.221.769.294l1.712.324c.886.17 1.545.451 1.977.844.435.393.655.914.659 1.561-.004.598-.183 1.128-.538 1.59-.354.459-.842.811-1.462 1.058-.621.243-1.326.364-2.116.364-1.253 0-2.249-.256-2.99-.769-.736-.516-1.156-1.221-1.26-2.116l2.793-.069c.061.32.219.567.474.74.258.17.589.254.994.254.362 0 .657-.067.885-.202.227-.135.343-.314.347-.538-.004-.196-.093-.354-.266-.474-.174-.123-.446-.221-.816-.295l-1.549-.294c-.883-.166-1.546-.465-1.989-.896-.439-.432-.655-.991-.647-1.677-.004-.883.346-1.575 1.052-2.076.705-.501 1.663-.751 2.873-.751 1.195 0 2.139.25 2.833.751.698.498 1.085 1.189 1.162 2.076z"/><path d="m307.145 276.319.03-2.388c-2.252-.209-4.013-.907-5.281-2.094-1.261-1.194-1.905-2.863-1.932-5.008h4.795c.048.769.284 1.399.709 1.892.425.485 1.011.816 1.76.991l.061-4.583-1.012-.233c-1.862-.425-3.292-1.106-4.29-2.044-.998-.937-1.494-2.168-1.487-3.692-.014-1.747.617-3.198 1.892-4.351 1.281-1.153 2.964-1.831 5.049-2.034l.03-2.357h2.63l-.03 2.388c1.983.242 3.555.937 4.715 2.084s1.75 2.59 1.771 4.33h-4.796c-.095-1.092-.675-1.814-1.74-2.165l-.061 4.31.536.122c4.209.924 6.324 3.001 6.344 6.232-.007 1.808-.627 3.255-1.862 4.34-1.227 1.086-2.951 1.717-5.17 1.892l-.03 2.368zm2.712-6.617c.6-.148 1.062-.395 1.386-.739.33-.35.502-.768.516-1.254-.007-.432-.159-.796-.456-1.093-.296-.303-.762-.57-1.396-.799zm-2.52-9.005.051-3.703c-.553.135-.975.361-1.265.678s-.438.698-.445 1.144c-.027.822.526 1.45 1.659 1.881zm25.912-8.043c.661 0 1.295.057 1.902.172.613.115 1.21.3 1.79.556.581.25 1.113.564 1.599.941.492.378.944.847 1.356 1.407.418.553.769 1.177 1.052 1.871.29.688.516 1.488.678 2.398.162.904.243 1.886.243 2.945-.007 3.433-.8 6.138-2.378 8.114-1.571 1.969-3.686 2.954-6.344 2.954-1.072 0-2.07-.162-2.994-.485-.918-.331-1.704-.78-2.358-1.346-.654-.567-1.187-1.238-1.598-2.014-.405-.775-.655-1.608-.749-2.499h4.927c.149.675.469 1.191.961 1.548.493.351 1.096.527 1.811.527 1.241 0 2.179-.54 2.813-1.619.641-1.079.965-2.584.971-4.513h-.121c-.425.918-1.116 1.643-2.074 2.176-.951.532-2.014.799-3.187.799-1.221 0-2.314-.283-3.278-.85-.965-.567-1.717-1.352-2.257-2.357-.532-1.005-.795-2.142-.789-3.41-.006-1.43.324-2.698.992-3.804.674-1.113 1.622-1.977 2.843-2.59 1.221-.614 2.617-.921 4.189-.921zm.03 3.845c-.924 0-1.693.317-2.307.951-.607.627-.904 1.413-.89 2.357-.014.944.28 1.73.88 2.357.607.628 1.373.941 2.297.941.904 0 1.662-.317 2.276-.951.614-.64.928-1.426.941-2.357-.013-.931-.324-1.713-.931-2.347-.6-.634-1.355-.951-2.266-.951zm13.272 17.523c-.729 0-1.353-.256-1.872-.769-.513-.512-.766-1.133-.759-1.861-.007-.715.246-1.326.759-1.832.519-.512 1.143-.769 1.872-.769.701 0 1.312.257 1.831.769.526.506.793 1.117.799 1.832-.006.721-.273 1.342-.799 1.861-.519.513-1.13.769-1.831.769zm13.213-21.368c.661 0 1.295.057 1.902.172.614.115 1.211.3 1.791.556.58.25 1.113.564 1.599.941.492.378.944.847 1.356 1.407.418.553.768 1.177 1.052 1.871.29.688.516 1.488.678 2.398.162.904.242 1.886.242 2.945-.006 3.433-.799 6.138-2.377 8.114-1.572 1.969-3.686 2.954-6.344 2.954-1.072 0-2.071-.162-2.995-.485-.917-.331-1.703-.78-2.357-1.346-.654-.567-1.187-1.238-1.599-2.014-.404-.775-.654-1.608-.748-2.499h4.927c.148.675.469 1.191.961 1.548.492.351 1.096.527 1.811.527 1.241 0 2.179-.54 2.813-1.619.641-1.079.964-2.584.971-4.513h-.121c-.425.918-1.117 1.643-2.074 2.176-.951.532-2.014.799-3.187.799-1.221 0-2.314-.283-3.279-.85-.964-.567-1.716-1.352-2.256-2.357-.533-1.005-.796-2.142-.789-3.41-.007-1.43.324-2.698.992-3.804.674-1.113 1.622-1.977 2.843-2.59 1.22-.614 2.617-.921 4.188-.921zm.031 3.845c-.924 0-1.693.317-2.307.951-.607.627-.904 1.413-.891 2.357-.013.944.28 1.73.881 2.357.607.628 1.372.941 2.296.941.904 0 1.663-.317 2.277-.951.614-.64.927-1.426.941-2.357-.014-.931-.324-1.713-.931-2.347-.6-.634-1.356-.951-2.266-.951zm19.14-3.845c.661 0 1.295.057 1.902.172.614.115 1.21.3 1.791.556.58.25 1.112.564 1.598.941.492.378.944.847 1.356 1.407.418.553.769 1.177 1.052 1.871.29.688.516 1.488.678 2.398.162.904.243 1.886.243 2.945-.007 3.433-.799 6.138-2.378 8.114-1.571 1.969-3.686 2.954-6.344 2.954-1.072 0-2.07-.162-2.994-.485-.918-.331-1.704-.78-2.358-1.346-.654-.567-1.187-1.238-1.598-2.014-.405-.775-.655-1.608-.749-2.499h4.927c.149.675.469 1.191.961 1.548.493.351 1.096.527 1.811.527 1.242 0 2.179-.54 2.813-1.619.641-1.079.965-2.584.971-4.513h-.121c-.425.918-1.116 1.643-2.074 2.176-.951.532-2.014.799-3.187.799-1.221 0-2.314-.283-3.278-.85-.965-.567-1.717-1.352-2.256-2.357-.533-1.005-.796-2.142-.79-3.41-.006-1.43.324-2.698.992-3.804.674-1.113 1.622-1.977 2.843-2.59 1.221-.614 2.617-.921 4.189-.921zm.03 3.845c-.924 0-1.693.317-2.307.951-.607.627-.904 1.413-.89 2.357-.014.944.28 1.73.88 2.357.607.628 1.373.941 2.297.941.904 0 1.662-.317 2.276-.951.614-.64.928-1.426.941-2.357-.013-.931-.324-1.713-.931-2.347-.6-.634-1.355-.951-2.266-.951z"/><rect fill-opacity=".17" height="231.499" rx="8.14033" width="148.487" x="15.2383" y="148.24"/><path d="m74.0739 180.056v-2.248h11.8087v2.248h-4.5746v12.553h-2.6595v-12.553zm12.8169 12.553v-11.101h2.5366v1.85h.1156c.1976-.636.542-1.129 1.0335-1.481.4914-.352 1.0599-.528 1.7055-.528.3614 0 .6745.024.9395.073v2.406c-.3132-.101-.7179-.152-1.2141-.152-.7227 0-1.3201.227-1.7923.68-.4721.448-.7082 1.023-.7082 1.727v6.526zm10.0327 4.141c-.6986 0-1.2671-.094-1.7056-.282l.6071-2.031c.3854.106.7251.159 1.019.159s.554-.094.7805-.282c.2312-.183.4288-.474.5926-.874l.224-.6-4.0254-11.332h2.7752l2.5583 8.383h.1156l2.5652-8.383 2.797.015-4.459 12.43c-.674 1.864-1.9559 2.797-3.8445 2.797zm-14.3273 9.758v2.024h-2.3054v9.077h-2.6161v-9.077h-1.6405v-2.024h1.6405v-1.048c0-1.074.3252-1.9.9757-2.478.6504-.579 1.4815-.868 2.4932-.868.7323 0 1.3948.101 1.9874.304l-.5276 2.023c-.3517-.106-.6769-.159-.9756-.159-.4721 0-.8142.114-1.0262.34-.2072.226-.3108.564-.3108 1.012v.874zm9.2847 10.609c-.8046.472-1.7416.709-2.8112.709s-2.0091-.237-2.8185-.709c-.8046-.477-1.4237-1.146-1.8573-2.009-.4288-.867-.6432-1.869-.6432-3.006s.2144-2.139.6432-3.007c.4336-.867 1.0527-1.539 1.8573-2.016.8094-.477 1.7489-.715 2.8185-.715s2.0066.238 2.8112.715c.8094.477 1.4285 1.149 1.8573 2.016.4336.868.6504 1.87.6504 3.007s-.2168 2.139-.6504 3.006c-.4288.863-1.0479 1.532-1.8573 2.009zm-2.7968-1.387c.5734 0 1.0624-.164 1.4671-.492.4047-.327.7034-.759.8961-1.293.1927-.54.2891-1.157.2891-1.85 0-.694-.0964-1.311-.2891-1.85-.1879-.54-.4866-.976-.8961-1.309-.4047-.332-.8937-.498-1.4671-.498-.4384 0-.8311.096-1.1779.289-.3421.188-.6216.448-.8384.78-.2168.333-.383.718-.4986 1.157-.1108.438-.1662.915-.1662 1.431 0 .693.0963 1.31.289 1.85.1928.534.4939.966.9034 1.293.4095.328.9058.492 1.4887.492zm7.525 1.879v-11.101h2.5366v1.85h.1157c.1975-.636.542-1.129 1.0336-1.481.491-.352 1.06-.528 1.705-.528.362 0 .675.024.94.073v2.406c-.313-.101-.718-.152-1.214-.152-.723 0-1.32.227-1.7925.68-.4722.448-.7083 1.023-.7083 1.727v6.526zm-36.0297 34v-20.721h13.7195v3.612h-9.3386v4.937h8.428v3.612h-8.428v8.56zm16.3349 0v-15.541h4.1785v2.712h.1619c.2766-.945.7454-1.67 1.4064-2.176s1.4367-.759 2.327-.759c.4789 0 .9308.051 1.3558.152v3.825c-.4789-.155-1.086-.233-1.8212-.233-.9578 0-1.747.3-2.3675.9-.6206.601-.9308 1.376-.9308 2.328v8.792zm18.0169.303c-2.3878 0-4.2696-.715-5.6456-2.145-1.376-1.436-2.064-3.389-2.064-5.858 0-1.585.3069-2.984.9207-4.199.6205-1.22 1.5008-2.165 2.6407-2.833 1.1466-.674 2.4721-1.011 3.9762-1.011 1.0387 0 1.9965.168 2.8734.506.8836.33 1.6559.816 2.3169 1.457.6615.634 1.1775 1.46 1.5485 2.478.377 1.012.566 2.162.566 3.45v1.184h-10.5829v.01c0 1.154.317 2.068.9511 2.742.634.668 1.4906 1.002 2.5698 1.002.7285 0 1.3524-.152 1.8718-.455.5261-.311.8971-.759 1.1129-1.346l3.9863.263c-.31 1.457-1.086 2.614-2.327 3.47-1.2411.857-2.8127 1.285-4.7148 1.285zm-3.4501-9.642h6.5259c-.0068-.931-.3069-1.693-.9005-2.286-.5868-.601-1.3457-.901-2.2765-.901-.9375 0-1.72.307-2.3473.921-.6205.607-.9544 1.362-1.0016 2.266zm20.4779 9.642c-2.388 0-4.269-.715-5.645-2.145-1.376-1.436-2.064-3.389-2.064-5.858 0-1.585.306-2.984.92-4.199.621-1.22 1.501-2.165 2.641-2.833 1.147-.674 2.472-1.011 3.976-1.011 1.039 0 1.997.168 2.874.506.883.33 1.655.816 2.316 1.457.661.634 1.177 1.46 1.548 2.478.378 1.012.567 2.162.567 3.45v1.184h-10.583v.01c0 1.154.317 2.068.951 2.742.634.668 1.491 1.002 2.57 1.002.728 0 1.352-.152 1.872-.455.526-.311.897-.759 1.113-1.346l3.986.263c-.31 1.457-1.086 2.614-2.327 3.47-1.241.857-2.813 1.285-4.715 1.285zm-3.45-9.642h6.526c-.007-.931-.307-1.693-.901-2.286-.586-.601-1.345-.901-2.276-.901-.938 0-1.72.307-2.347.921-.621.607-.955 1.362-1.002 2.266z"/><path d="m54.9211 327.086.0304-2.387c-2.2529-.21-4.0133-.908-5.2814-2.095-1.2613-1.194-1.9055-2.863-1.9325-5.008h4.7958c.0472.769.2833 1.4.7082 1.892.425.486 1.0118.816 1.7605.991l.0607-4.583-1.0118-.232c-1.8616-.425-3.2916-1.107-4.2898-2.044-.9983-.938-1.4941-2.169-1.4873-3.693-.0135-1.747.6172-3.197 1.892-4.351 1.2815-1.153 2.9644-1.831 5.0487-2.033l.0303-2.358h2.6306l-.0304 2.388c1.9831.243 3.5547.938 4.7148 2.084 1.1602 1.147 1.7504 2.59 1.7706 4.331h-4.7957c-.0945-1.093-.6745-1.815-1.7403-2.166l-.0607 4.31.5363.122c4.2089.924 6.3235 3.001 6.3437 6.232-.0067 1.808-.6273 3.255-1.8616 4.341-1.2276 1.086-2.951 1.716-5.1701 1.892l-.0304 2.367zm2.7116-6.617c.6003-.148 1.0623-.394 1.3861-.738.3305-.351.5025-.769.516-1.255-.0068-.431-.1585-.796-.4553-1.092-.2968-.304-.7622-.57-1.3962-.8zm-2.5193-9.004.0506-3.703c-.5531.135-.9747.361-1.2647.678-.2901.317-.4385.698-.4452 1.143-.027.823.5261 1.45 1.6593 1.882zm18.9907 13.031 8.3572-16.552v-.132h-9.7736v-4.037h14.9538v4.068l-8.3875 16.653zm15.5483.294c-.7285 0-1.3524-.257-1.8718-.769-.5126-.513-.7656-1.134-.7588-1.862-.0068-.715.2462-1.325.7588-1.831.5194-.513 1.1433-.769 1.8718-.769.7014 0 1.3119.256 1.8312.769.5262.506.7926 1.116.7993 1.831-.0067.722-.2731 1.342-.7993 1.862-.5193.512-1.1298.769-1.8312.769zm13.2136-21.369c.661 0 1.295.058 1.902.172.614.115 1.211.3 1.791.557.58.249 1.113.563 1.598.941.493.377.945.846 1.356 1.406.418.553.769 1.177 1.052 1.872.29.688.516 1.487.678 2.398.162.903.243 1.885.243 2.944-.007 3.433-.799 6.138-2.377 8.114-1.572 1.97-3.687 2.954-6.344 2.954-1.073 0-2.071-.161-2.995-.485-.9174-.331-1.7032-.779-2.3574-1.346-.6543-.566-1.1872-1.238-1.5986-2.013-.4047-.776-.6543-1.609-.7487-2.499h4.9272c.1485.674.4685 1.19.9615 1.548.492.35 1.096.526 1.811.526 1.241 0 2.178-.54 2.812-1.619.641-1.079.965-2.583.972-4.512h-.122c-.425.917-1.116 1.642-2.074 2.175-.951.533-2.013.799-3.187.799-1.2207 0-2.3134-.283-3.2779-.85-.9646-.566-1.7166-1.352-2.2562-2.357-.5329-1.005-.796-2.142-.7892-3.41-.0068-1.43.3237-2.698.9915-3.804.6745-1.113 1.6222-1.976 2.8431-2.59 1.2208-.614 2.6167-.921 4.1887-.921zm.03 3.845c-.924 0-1.693.317-2.307.951-.6066.627-.9034 1.413-.8899 2.357-.0135.945.28 1.73.8799 2.358.607.627 1.373.941 2.297.941.904 0 1.663-.317 2.277-.951.613-.641.927-1.427.94-2.358-.013-.931-.323-1.713-.93-2.347-.601-.634-1.356-.951-2.267-.951zm19.14-3.845c.661 0 1.295.058 1.902.172.614.115 1.211.3 1.791.557.58.249 1.113.563 1.599.941.492.377.944.846 1.356 1.406.418.553.768 1.177 1.052 1.872.29.688.516 1.487.678 2.398.162.903.242 1.885.242 2.944-.006 3.433-.799 6.138-2.377 8.114-1.572 1.97-3.686 2.954-6.344 2.954-1.072 0-2.071-.161-2.995-.485-.917-.331-1.703-.779-2.357-1.346-.654-.566-1.187-1.238-1.599-2.013-.404-.776-.654-1.609-.748-2.499h4.927c.148.674.469 1.19.961 1.548.492.35 1.096.526 1.811.526 1.241 0 2.179-.54 2.813-1.619.641-1.079.964-2.583.971-4.512h-.121c-.425.917-1.117 1.642-2.074 2.175-.951.533-2.014.799-3.187.799-1.221 0-2.314-.283-3.279-.85-.964-.566-1.716-1.352-2.256-2.357-.533-1.005-.796-2.142-.789-3.41-.007-1.43.324-2.698.992-3.804.674-1.113 1.622-1.976 2.843-2.59 1.22-.614 2.617-.921 4.188-.921zm.031 3.845c-.924 0-1.693.317-2.307.951-.607.627-.904 1.413-.891 2.357-.013.945.28 1.73.881 2.358.607.627 1.372.941 2.296.941.904 0 1.663-.317 2.277-.951.614-.641.927-1.427.941-2.358-.014-.931-.324-1.713-.931-2.347-.6-.634-1.356-.951-2.266-.951z"/><rect height="269.066" rx="8.14033" width="148.487" x="141.35" y="127.934"/></g><rect fill="#fff" height="35.5371" rx="2.03508" width="115.942" x="157.623" y="250.79"/><path d="m187.408 275.075c-.89 0-1.688-.154-2.393-.463-.705-.308-1.257-.738-1.654-1.289-.397-.555-.599-1.185-.607-1.89h2.879c.016.389.189.707.521.954.335.242.757.364 1.266.364s.923-.131 1.243-.393c.324-.266.484-.609.48-1.029.008-.421-.17-.762-.532-1.024-.362-.266-.84-.399-1.434-.399h-1.15v-2.035h1.15c.528 0 .956-.129 1.284-.387.331-.258.495-.592.491-1 .004-.397-.135-.719-.416-.966-.282-.25-.65-.376-1.104-.376-.482 0-.885.126-1.209.376-.32.251-.485.576-.497.977h-2.735c.008-.69.203-1.308.584-1.856.382-.547.908-.971 1.579-1.272.674-.304 1.433-.456 2.278-.456.832 0 1.574.148 2.225.445.656.293 1.161.697 1.515 1.214.359.513.538 1.089.538 1.729.004.655-.21 1.202-.642 1.642-.432.435-.996.703-1.694.803v.093c.898.104 1.586.397 2.064.878.478.482.715 1.093.711 1.833 0 .679-.2 1.286-.601 1.821-.401.536-.964.954-1.688 1.255-.721.301-1.538.451-2.452.451zm9.877-.162v-8.88h2.688v1.63h.098c.185-.543.498-.969.937-1.278.443-.312.967-.468 1.572-.468.617 0 1.145.158 1.585.474.439.316.718.74.838 1.272h.092c.166-.532.49-.956.972-1.272.481-.316 1.05-.474 1.705-.474.848 0 1.532.272 2.053.815.52.54.78 1.274.78 2.203v5.978h-2.827v-5.331c0-.431-.114-.767-.341-1.005-.224-.239-.518-.359-.885-.359-.389 0-.695.125-.919.376-.22.25-.329.59-.329 1.017v5.302h-2.718v-5.359c0-.409-.112-.733-.335-.972-.22-.243-.515-.364-.885-.364-.374 0-.676.131-.907.393-.232.262-.347.611-.347 1.047v5.255zm21.611-.405c-.679.382-1.476.573-2.394.573-.917 0-1.717-.191-2.399-.573-.678-.385-1.197-.921-1.555-1.607-.355-.69-.532-1.49-.532-2.399 0-.91.177-1.71.532-2.4.358-.689.877-1.225 1.555-1.607.682-.385 1.482-.578 2.399-.578.918 0 1.715.193 2.394.578.682.382 1.2.918 1.555 1.607.358.69.538 1.49.538 2.4 0 .909-.18 1.709-.538 2.399-.355.686-.873 1.222-1.555 1.607zm-2.376-1.561c.497 0 .886-.223 1.167-.67.282-.447.423-1.045.423-1.793 0-.747-.141-1.347-.423-1.798-.281-.451-.67-.676-1.167-.676-.513 0-.912.225-1.197.676-.285.447-.428 1.047-.428 1.798 0 .748.143 1.346.428 1.793s.684.67 1.197.67zm8.744-3.099v5.065h-2.827v-8.88h2.688v1.63h.099c.196-.543.532-.969 1.006-1.278.478-.312 1.042-.468 1.694-.468.932 0 1.68.306 2.243.919.563.609.842 1.415.838 2.417v5.66h-2.827v-5.105c.004-.493-.121-.879-.376-1.156-.25-.278-.599-.417-1.046-.417-.451 0-.812.145-1.081.434-.27.285-.407.678-.411 1.179zm12.504-3.815v2.081h-1.601v4.007c0 .254.059.437.179.549.119.108.299.162.537.162.17 0 .376-.029.619-.087l.428 2.041c-.49.146-.971.231-1.445.254-1.006.046-1.785-.154-2.336-.601-.547-.447-.817-1.116-.81-2.006v-4.319h-1.173v-2.081h1.173v-2.128h2.828v2.128zm4.46 3.815v5.065h-2.827v-11.84h2.735v4.59h.098c.201-.551.53-.979.989-1.283.459-.309 1.017-.463 1.677-.463.932 0 1.68.305 2.243.914.566.608.848 1.416.844 2.422v5.66h-2.827v-5.105c.004-.493-.12-.879-.37-1.156-.251-.278-.604-.417-1.058-.417-.455 0-.819.145-1.093.434-.27.285-.407.678-.411 1.179z" fill="#0085ff"/><rect fill="#fff" height="35.5371" rx="2.03508" width="115.942" x="157.623" y="199.008"/><path d="m189.397 211.29v11.84h-2.856v-9.169h-.07l-2.648 1.619v-2.475l2.92-1.815zm6.138 11.84v-8.88h2.689v1.63h.098c.185-.543.497-.969.936-1.277.444-.312.968-.469 1.573-.469.617 0 1.145.158 1.584.475.44.316.719.74.838 1.271h.093c.166-.531.489-.955.971-1.271.482-.317 1.051-.475 1.706-.475.848 0 1.532.272 2.052.816.521.539.781 1.273.781 2.202v5.978h-2.827v-5.33c0-.432-.114-.767-.342-1.006-.223-.239-.518-.359-.884-.359-.389 0-.696.126-.919.376-.22.251-.33.59-.33 1.018v5.301h-2.717v-5.359c0-.409-.112-.732-.336-.971-.219-.243-.514-.365-.884-.365-.374 0-.677.132-.908.394s-.347.611-.347 1.046v5.255zm21.611-.404c-.678.381-1.476.572-2.393.572-.918 0-1.717-.191-2.4-.572-.678-.386-1.196-.921-1.555-1.608-.354-.689-.532-1.489-.532-2.399 0-.909.178-1.709.532-2.399.359-.69.877-1.226 1.555-1.607.683-.386 1.482-.579 2.4-.579.917 0 1.715.193 2.393.579.683.381 1.201.917 1.556 1.607.358.69.537 1.49.537 2.399 0 .91-.179 1.71-.537 2.399-.355.687-.873 1.222-1.556 1.608zm-2.376-1.561c.497 0 .887-.224 1.168-.671s.422-1.044.422-1.792-.141-1.347-.422-1.798-.671-.677-1.168-.677c-.512 0-.911.226-1.197.677-.285.447-.427 1.046-.427 1.798 0 .748.142 1.345.427 1.792.286.447.685.671 1.197.671zm8.745-3.099v5.064h-2.827v-8.88h2.688v1.63h.098c.197-.543.532-.969 1.006-1.277.478-.312 1.043-.469 1.694-.469.933 0 1.681.307 2.243.92.563.609.843 1.414.839 2.416v5.66h-2.827v-5.105c.003-.493-.122-.878-.376-1.156-.251-.277-.6-.416-1.047-.416-.451 0-.811.144-1.081.433-.27.286-.406.679-.41 1.18zm12.504-3.816v2.081h-1.602v4.007c0 .254.06.437.179.549.12.108.299.162.538.162.17 0 .376-.029.619-.087l.427 2.041c-.489.147-.971.231-1.445.255-1.006.046-1.784-.155-2.336-.602-.547-.447-.817-1.115-.809-2.006v-4.319h-1.174v-2.081h1.174v-2.128h2.827v2.128zm4.46 3.816v5.064h-2.827v-11.84h2.734v4.59h.099c.2-.551.53-.979.988-1.283.459-.308 1.018-.463 1.677-.463.933 0 1.681.305 2.243.914.567.609.848 1.416.844 2.422v5.66h-2.827v-5.105c.004-.493-.119-.878-.37-1.156-.25-.277-.603-.416-1.058-.416s-.819.144-1.093.433c-.269.286-.406.679-.41 1.18z" fill="#0085ff"/><path d="m277.633 160.425-8.137 8.122" stroke="#fff" stroke-linecap="round" stroke-linejoin="round" stroke-width="2.03508"/><path d="m269.496 160.425 8.137 8.122" stroke="#fff" stroke-linecap="round" stroke-linejoin="round" stroke-width="2.03508"/><path d="m53.0193 136.826v-11.84h4.4402c.6668 0 1.2661.098 1.798.294.5319.197.9694.471 1.3124.821.3469.347.6109.76.7921 1.238.1811.478.2717 1 .2717 1.566 0 .571-.0925 1.095-.2775 1.573-.1811.478-.4471.892-.7978 1.243-.3469.347-.7882.619-1.324.815-.5319.193-1.1332.289-1.8038.289h-2.2664v4.001zm2.1449-5.764h1.9773c.767 0 1.3432-.195 1.7287-.584.3854-.389.5781-.913.5781-1.573 0-.659-.1927-1.177-.5781-1.555-.3855-.381-.9655-.572-1.7403-.572h-1.9657zm10.6365 5.943c-.5743 0-1.083-.098-1.5263-.295-.4394-.2-.7901-.504-1.0522-.913s-.3932-.896-.3932-1.463c0-.385.0636-.728.1908-1.029.1272-.3.291-.545.4915-.734.2042-.189.4586-.349.7631-.48.3045-.135.6071-.233.9077-.295.3006-.065.6398-.119 1.0175-.162.8557-.092 1.3818-.162 1.5784-.208.3276-.077.5242-.206.5897-.387.0193-.058.0289-.125.0289-.203v-.034c0-.44-.1291-.777-.3873-1.012-.2583-.239-.6302-.358-1.1159-.358-.4818 0-.8788.106-1.191.318-.3083.212-.5184.481-.6301.809l-1.9542-.278c.2274-.794.6726-1.401 1.3355-1.821.6668-.42 1.4762-.63 2.4283-.63.3584 0 .7014.031 1.0291.093.3276.057.6513.162.9713.312.3199.146.5954.333.8267.561.2351.223.424.514.5666.873.1426.358.2139.763.2139 1.214v5.943h-2.0119v-1.22h-.0694c-.2082.409-.5319.744-.9713 1.006s-.9848.393-1.6362.393zm.5435-1.538c.6128 0 1.1081-.177 1.4858-.531.3816-.355.5724-.787.5724-1.295v-1.047c-.1696.139-.8094.283-1.9195.434-1.0907.154-1.6361.578-1.6361 1.272 0 .373.1368.663.4105.867.2736.2.6359.3 1.0869.3zm7.2326 4.672c-.5589 0-1.0137-.075-1.3644-.226l.4856-1.624c.3084.085.5801.127.8152.127s.4433-.075.6244-.225c.185-.147.3431-.38.4741-.7l.1792-.48-3.2203-9.065h2.2201l2.0467 6.706h.0925l2.0524-6.706 2.2375.011-3.5672 9.944c-.5396 1.492-1.5649 2.238-3.0758 2.238zm9.9283-3.313-2.5092-8.88h2.1334l1.561 6.244h.0809l1.5957-6.244h2.1103l1.5957 6.209h.0867l1.5379-6.209h2.1391l-2.5149 8.88h-2.1797l-1.665-6.001h-.1214l-1.6651 6.001zm14.3482.179c-.5743 0-1.0831-.098-1.5263-.295-.4394-.2-.7902-.504-1.0523-.913-.262-.409-.3931-.896-.3931-1.463 0-.385.0636-.728.1908-1.029.1272-.3.291-.545.4914-.734.2043-.189.4587-.349.7632-.48.3045-.135.607-.233.9077-.295.3006-.065.6398-.119 1.0175-.162.8557-.092 1.3818-.162 1.5784-.208.3274-.077.5244-.206.5894-.387.02-.058.029-.125.029-.203v-.034c0-.44-.129-.777-.387-1.012-.2584-.239-.6304-.358-1.116-.358-.4818 0-.8788.106-1.191.318-.3083.212-.5184.481-.6302.809l-1.9541-.278c.2274-.794.6726-1.401 1.3355-1.821.6668-.42 1.4762-.63 2.4282-.63.3585 0 .7015.031 1.0291.093.3275.057.6515.162.9715.312.32.146.595.333.827.561.235.223.424.514.566.873.143.358.214.763.214 1.214v5.943h-2.012v-1.22h-.069c-.208.409-.5322.744-.9715 1.006-.4394.262-.9848.393-1.6362.393zm.5434-1.538c.6129 0 1.1082-.177 1.4859-.531.3814-.355.5724-.787.5724-1.295v-1.047c-.17.139-.8094.283-1.9195.434-1.0908.154-1.6362.578-1.6362 1.272 0 .373.1369.663.4105.867.2737.2.636.3 1.0869.3zm8.3423-10.481v11.84h-2.092v-11.84zm4.245 0v11.84h-2.092v-11.84zm10.984 0v11.84h-2.145v-9.753h-.069l-2.77 1.769v-1.966l2.943-1.89z" fill="#0085ff"/><path d="m308.294 136.826v-11.84h4.441c.666 0 1.266.098 1.798.294.532.197.969.471 1.312.821.347.347.611.76.792 1.238s.272 1 .272 1.566c0 .571-.093 1.095-.278 1.573-.181.478-.447.892-.797 1.243-.347.347-.789.619-1.324.815-.532.193-1.134.289-1.804.289h-2.267v4.001zm2.145-5.764h1.978c.767 0 1.343-.195 1.728-.584.386-.389.578-.913.578-1.573 0-.659-.192-1.177-.578-1.555-.385-.381-.965-.572-1.74-.572h-1.966zm10.637 5.943c-.574 0-1.083-.098-1.526-.295-.44-.2-.791-.504-1.053-.913s-.393-.896-.393-1.463c0-.385.064-.728.191-1.029.127-.3.291-.545.491-.734.205-.189.459-.349.764-.48.304-.135.607-.233.907-.295.301-.065.64-.119 1.018-.162.855-.092 1.382-.162 1.578-.208.328-.077.524-.206.59-.387.019-.058.029-.125.029-.203v-.034c0-.44-.129-.777-.388-1.012-.258-.239-.63-.358-1.115-.358-.482 0-.879.106-1.191.318-.309.212-.519.481-.631.809l-1.954-.278c.228-.794.673-1.401 1.336-1.821.667-.42 1.476-.63 2.428-.63.358 0 .701.031 1.029.093.328.057.651.162.971.312.32.146.596.333.827.561.235.223.424.514.567.873.142.358.214.763.214 1.214v5.943h-2.012v-1.22h-.07c-.208.409-.532.744-.971 1.006s-.985.393-1.636.393zm.543-1.538c.613 0 1.108-.177 1.486-.531.382-.355.573-.787.573-1.295v-1.047c-.17.139-.81.283-1.92.434-1.091.154-1.636.578-1.636 1.272 0 .373.137.663.41.867.274.2.636.3 1.087.3zm7.233 4.672c-.559 0-1.014-.075-1.364-.226l.485-1.624c.309.085.58.127.815.127s.444-.075.625-.225c.185-.147.343-.38.474-.7l.179-.48-3.22-9.065h2.22l2.047 6.706h.092l2.052-6.706 2.238.011-3.567 9.944c-.54 1.492-1.565 2.238-3.076 2.238zm9.928-3.313-2.509-8.88h2.133l1.561 6.244h.081l1.596-6.244h2.11l1.596 6.209h.087l1.538-6.209h2.139l-2.515 8.88h-2.18l-1.665-6.001h-.121l-1.665 6.001zm14.348.179c-.574 0-1.083-.098-1.526-.295-.439-.2-.79-.504-1.052-.913s-.393-.896-.393-1.463c0-.385.063-.728.191-1.029.127-.3.291-.545.491-.734.204-.189.459-.349.763-.48.305-.135.607-.233.908-.295.3-.065.64-.119 1.017-.162.856-.092 1.382-.162 1.579-.208.327-.077.524-.206.589-.387.02-.058.029-.125.029-.203v-.034c0-.44-.129-.777-.387-1.012-.258-.239-.63-.358-1.116-.358-.482 0-.879.106-1.191.318-.308.212-.518.481-.63.809l-1.954-.278c.227-.794.672-1.401 1.335-1.821.667-.42 1.477-.63 2.429-.63.358 0 .701.031 1.029.093.327.057.651.162.971.312.32.146.595.333.827.561.235.223.424.514.566.873.143.358.214.763.214 1.214v5.943h-2.012v-1.22h-.069c-.208.409-.532.744-.971 1.006-.44.262-.985.393-1.637.393zm.544-1.538c.613 0 1.108-.177 1.486-.531.381-.355.572-.787.572-1.295v-1.047c-.169.139-.809.283-1.919.434-1.091.154-1.637.578-1.637 1.272 0 .373.137.663.411.867.274.2.636.3 1.087.3zm8.343-10.481v11.84h-2.093v-11.84zm4.245 0v11.84h-2.093v-11.84zm10.416 12.002c-.824 0-1.562-.141-2.214-.422-.651-.285-1.164-.684-1.538-1.197-.374-.516-.57-1.104-.589-1.763h2.173c.027.478.243.861.648 1.15s.91.434 1.515.434c.636 0 1.156-.164 1.561-.491.408-.328.611-.752.607-1.272.004-.544-.208-.983-.636-1.319-.428-.335-1.01-.503-1.746-.503h-1.047v-1.653h1.047c.616 0 1.117-.158 1.503-.474.385-.316.576-.732.572-1.249.004-.497-.164-.898-.503-1.203-.335-.308-.778-.462-1.329-.462-.367 0-.702.065-1.006.197-.305.127-.554.314-.746.56-.189.247-.289.532-.301.856h-2.064c.016-.648.206-1.228.573-1.74.366-.513.859-.91 1.48-1.191.62-.282 1.312-.422 2.075-.422.578 0 1.112.086 1.602.26.493.173.905.408 1.237.705.335.293.595.64.78 1.041s.278.825.278 1.272c.004.655-.189 1.21-.578 1.665-.39.455-.91.753-1.561.896v.093c.821.115 1.457.422 1.908.919.451.493.674 1.114.67 1.861 0 .66-.187 1.253-.561 1.781-.373.524-.894.935-1.561 1.232-.666.293-1.416.439-2.249.439z" fill="#0085ff"/><path d="m179.131 116.519v-11.84h4.441c.666 0 1.266.098 1.798.295.531.196.969.47 1.312.821.347.346.611.759.792 1.237s.272 1 .272 1.567c0 .57-.093 1.094-.278 1.572-.181.478-.447.892-.798 1.243-.346.347-.788.619-1.324.815-.531.193-1.133.289-1.803.289h-2.267v4.001zm2.145-5.764h1.978c.767 0 1.343-.195 1.728-.584.386-.389.578-.913.578-1.572 0-.66-.192-1.178-.578-1.556-.385-.381-.965-.572-1.74-.572h-1.966zm10.637 5.943c-.575 0-1.083-.098-1.527-.294-.439-.201-.79-.505-1.052-.914-.262-.408-.393-.896-.393-1.463 0-.385.064-.728.191-1.029.127-.3.291-.545.491-.734.205-.189.459-.349.763-.48.305-.135.608-.233.908-.295.301-.065.64-.119 1.018-.162.855-.092 1.381-.161 1.578-.208.328-.077.524-.206.59-.387.019-.058.029-.125.029-.202v-.035c0-.439-.129-.777-.388-1.012-.258-.239-.63-.358-1.116-.358-.481 0-.878.106-1.191.318-.308.212-.518.481-.63.809l-1.954-.277c.228-.794.673-1.401 1.336-1.822.666-.42 1.476-.63 2.428-.63.358 0 .701.031 1.029.093.328.058.651.162.971.312.32.146.596.333.827.561.235.223.424.514.567.873.142.358.214.763.214 1.214v5.943h-2.012v-1.22h-.07c-.208.409-.532.744-.971 1.006s-.985.393-1.636.393zm.543-1.537c.613 0 1.108-.178 1.486-.532.382-.355.572-.787.572-1.295v-1.047c-.169.139-.809.283-1.919.434-1.091.154-1.636.578-1.636 1.272 0 .374.137.663.41.867.274.2.636.301 1.087.301zm7.233 4.671c-.559 0-1.014-.075-1.365-.225l.486-1.625c.308.085.58.127.815.127s.444-.075.625-.225c.185-.147.343-.38.474-.7l.179-.48-3.22-9.065h2.22l2.046 6.706h.093l2.052-6.706 2.238.011-3.567 9.945c-.54 1.491-1.565 2.237-3.076 2.237zm9.928-3.313-2.509-8.88h2.133l1.561 6.244h.081l1.596-6.244h2.11l1.596 6.209h.087l1.538-6.209h2.139l-2.515 8.88h-2.18l-1.665-6.001h-.121l-1.665 6.001zm14.348.179c-.574 0-1.083-.098-1.526-.294-.439-.201-.79-.505-1.052-.914-.262-.408-.393-.896-.393-1.463 0-.385.063-.728.19-1.029.128-.3.291-.545.492-.734.204-.189.459-.349.763-.48.305-.135.607-.233.908-.295.3-.065.64-.119 1.017-.162.856-.092 1.382-.161 1.579-.208.327-.077.524-.206.589-.387.02-.058.029-.125.029-.202v-.035c0-.439-.129-.777-.387-1.012-.258-.239-.63-.358-1.116-.358-.482 0-.879.106-1.191.318-.308.212-.518.481-.63.809l-1.954-.277c.227-.794.672-1.401 1.335-1.822.667-.42 1.476-.63 2.428-.63.359 0 .702.031 1.03.093.327.058.651.162.971.312.32.146.595.333.827.561.235.223.424.514.566.873.143.358.214.763.214 1.214v5.943h-2.012v-1.22h-.069c-.208.409-.532.744-.971 1.006-.44.262-.985.393-1.637.393zm.544-1.537c.613 0 1.108-.178 1.486-.532.381-.355.572-.787.572-1.295v-1.047c-.17.139-.809.283-1.919.434-1.091.154-1.637.578-1.637 1.272 0 .374.137.663.411.867.274.2.636.301 1.087.301zm8.342-10.482v11.84h-2.092v-11.84zm4.246 0v11.84h-2.093v-11.84zm6.167 11.84v-1.549l4.111-4.03c.331-.335.591-.609.78-.821s.366-.437.532-.676c.166-.243.283-.472.353-.688.069-.22.104-.451.104-.694 0-.547-.185-.985-.555-1.312-.366-.328-.837-.492-1.411-.492-.59 0-1.062.177-1.416.532-.351.355-.527.833-.527 1.434h-2.04c0-.736.169-1.386.508-1.949.343-.566.817-1 1.423-1.3.609-.305 1.302-.457 2.081-.457.586 0 1.127.087 1.625.26.501.173.923.412 1.266.717.347.301.616.663.809 1.087.197.424.295.881.295 1.37 0 .459-.087.896-.26 1.312-.17.417-.467.887-.891 1.411-.42.524-1.015 1.156-1.786 1.896l-2.041 2.076v.081h5.157v1.792z" fill="#0085ff"/><path d="m357.978 91.3811c-35.472-24.4304-55.525-24.3061-91.533 0" stroke="#0085ff" stroke-dasharray=".98 1.95" stroke-opacity=".62" stroke-width=".976677"/><path d="m266.445 64.9821c-37.837-24.4304-59.226-24.3061-97.635 0" stroke="#0085ff" stroke-dasharray=".98 1.95" stroke-opacity=".62" stroke-width=".976677"/><path d="m171.861 93.4118c-35.472-24.4304-55.525-24.3061-91.5325 0" stroke="#0085ff" stroke-dasharray=".98 1.95" stroke-opacity=".62" stroke-width=".976677"/><path d="m155.043 14.4909c2.777 0 5.027-2.2508 5.027-5.02741 0-2.77657-2.25-5.02742-5.027-5.02742s-5.027 2.25085-5.027 5.02742c0 2.77661 2.25 5.02741 5.027 5.02741z" fill="#2d2d2d"/><path d="m155.043 14.4909c2.777 0 5.027-2.2508 5.027-5.02741 0-2.77657-2.25-5.02742-5.027-5.02742s-5.027 2.25085-5.027 5.02742c0 2.77661 2.25 5.02741 5.027 5.02741z" fill="#050505" opacity=".2"/><path d="m176.109 46.6854c-.655.782-1.353 1.5264-2.091 2.2294-5.104 4.8582-11.881 7.5676-18.927 7.5672-5.846 0-10.728-2.0391-14.299-4.2277-1.597-.9815-3.106-2.0988-4.511-3.3395-.72-.6293-1.401-1.3027-2.039-2.0164-.054-.0589-.118-.1337-.185-.2266 1.686-1.6869 3.604-3.1256 5.695-4.2729 1.974-1.0913 4.066-1.9533 6.235-2.5692 3.021 2.6674 6.037 5.3332 9.047 7.9976 3.049-2.6659 6.094-5.3318 9.135-7.9976.066.0181.129.0339.193.0543.021.0087.043.0148.065.0182 2.073.6145 4.074 1.45 5.968 2.4921 2.095 1.157 4.019 2.6013 5.714 4.2911z" fill="#aa392d"/><path d="m164.176 39.8387c-3.044 2.6674-6.089 5.3333-9.135 7.9977-3.021-2.6659-6.037-5.3318-9.047-7.9977.456-.1815.932-.3062 1.418-.3715 2.539 2.1795 5.081 4.3598 7.624 6.5408 2.568-2.184 5.142-4.3643 7.722-6.5408.485.0686.961.1933 1.418.3715z" fill="#7c211a"/><path d="m162.757 39.4672c-2.567 2.1795-5.141 4.3598-7.721 6.5408-2.539-2.184-5.08-4.3643-7.624-6.5408.327-.0793.666-.1541 1.013-.2266s.632-.1246.938-.1744c.153-.3787.279-.7679.376-1.1646.05-.2265.089-.4259.125-.623.31.2526.636.485.976.6955.326.203.663.3883 1.008.5551.961.4358 1.996.6835 3.05.7295 1.176-.0237 2.334-.2946 3.398-.7952.382-.1902.752-.4012 1.111-.6321.346-.2266.634-.4531.851-.623.064.2922.143.5981.241.9198.097.3217.204.648.317.938.267.0453.539.0951.82.154.387.0748.757.1586 1.121.247z" fill="#843f2c"/><path d="m164.434 39.9112c-.188.213-.381.4214-.58.6185-.44.4441-.911.8553-1.411 1.2303-.66.4929-1.379.8994-2.141 1.2098-.48.1965-.978.3438-1.487.4395-.448.0862-.903.1265-1.359.1201-.897-.018-1.783-.2024-2.612-.5437l-.15-.0612c-.661-.2829-1.287-.641-1.867-1.0671-1.093-.8136-2.058-1.7875-2.861-2.8887-.127-.1744-.252-.3511-.374-.5347.025-.0793.047-.1586.068-.2424.086-.2978.154-.6004.204-.9062.131.1087.265.2129.403.3104.367.2679.752.5095 1.153.7227.039.0181.077.043.118.0634s.093.0499.143.0748l.167.0793.1.043.084.0408.104.0431.098.0408c.015.0079.032.014.049.0181.039.0194.079.0361.121.0498.047.0204.097.0363.151.0544.059.0204.109.0408.163.0544l.037.0158c.038 0 .077.025.118.034.056.0219.113.04.172.0544l.079.0204.159.0453c.335.0852.677.1443 1.021.1767.037.0023.073.0023.109 0 .023.0034.047.0034.07 0h.143.125.265c.744-.0034 1.483-.125 2.188-.3602h.016l.084-.0295c.147-.0453.292-.1042.44-.1586l.04-.0204c.064-.0226.123-.0543.186-.077.016-.0085.033-.0154.05-.0204.657-.2972 1.28-.6649 1.858-1.0965.124-.0952.247-.1881.367-.2832.068.3081.152.6389.256.9832.104.3444.197.6027.301.8746l.247.0453.247.0453.243.043c.058.0159.117.025.183.0408.04.0053.079.0136.118.0249.306.0635.612.1269.906.2017.48.1133.949.2379 1.418.3715z" fill="#000" opacity=".2"/><path d="m168.161 27.2441c-.034 1.1691-.782 2.354-1.615 2.789-.114.0584-.233.104-.356.1359h-.025c-.149.036-.303.0407-.453.0136-.164-.0324-.318-.0996-.453-.1971l-.064-.0475c-.092-.0737-.177-.1573-.251-.2493-.603-.725-.85-2.0889-.453-3.1718.162-.4233.41-.8088.727-1.1329.268-.2875.615-.4899.997-.5822.175-.0363.357-.0363.532 0 .988.1903 1.446 1.4658 1.414 2.4423z" fill="#843f2c"/><path d="m168.163 27.2441c-.038 1.1713-.786 2.3517-1.62 2.7912-.112.0561-.23.1009-.351.1337h-.029c-.149.0327-.303.0381-.453.0159-.164-.0343-.318-.1022-.454-.1994l-.063-.0476c-.092-.0743-.176-.1578-.251-.2492-.603-.725-.85-2.0889-.454-3.1719.162-.4235.41-.8091.728-1.1328.201-.2087.441-.3765.707-.4939.093-.0401.19-.0704.29-.0906.176-.0363.358-.0363.534 0 .027.0046.054.0115.079.0204.932.2401 1.367 1.4749 1.337 2.4242z" fill="#000" opacity=".3"/><path d="m145.231 29.6932c-.093.1122-.2.2119-.318.2968-.134.0983-.289.1656-.453.1972-.15.0272-.304.0226-.453-.0136h-.027c-.123-.0318-.242-.0782-.354-.1382-.836-.4328-1.585-1.6177-1.617-2.7868-.03-.9764.428-2.252 1.42-2.4514.565-.1133 1.106.1609 1.53.5891.319.3223.567.7083.727 1.1328.392 1.0852.145 2.4491-.455 3.1741z" fill="#843f2c"/><path d="m166.206 24.7973-.014.2764c-.109 1.6622-.45 3.3011-1.013 4.8688-1.046 2.9453-2.811 5.5621-4.93 7.2659-.12.0951-.242.188-.367.2832-.577.4316-1.2.7993-1.857 1.0965-.018.005-.034.0119-.05.0204-.064.0227-.123.0544-.186.0771l-.041.0203c-.147.0544-.292.1133-.439.1586l-.084.0295h-.016c-.706.2352-1.445.3568-2.189.3602h-.265-.124c-.05 0-.093 0-.143 0-.023.0034-.047.0034-.07 0-.037.0024-.073.0024-.109 0-.345-.0324-.686-.0915-1.022-.1767l-.158-.0453-.08-.0204c-.058-.0144-.116-.0325-.172-.0544-.041 0-.079-.0249-.118-.0339l-.036-.0159c-.054-.0136-.104-.034-.163-.0544-.055-.0181-.104-.034-.152-.0544-.041-.0137-.081-.0303-.12-.0498-.017-.0041-.034-.0102-.05-.0181l-.097-.0408-.104-.0431-.084-.0407-.1-.0431-.168-.0793c-.05-.0249-.099-.0498-.142-.0747-.043-.025-.08-.0454-.118-.0635-.401-.2132-.787-.4548-1.153-.7227-.139-.0974-.272-.2017-.404-.3104-.351-.2769-.685-.5758-.999-.8949-.33-.3211-.642-.6608-.933-1.0173-1.361-1.6771-2.403-3.5901-3.072-5.6437-.451-1.3463-.741-2.7409-.866-4.1551-.02-.2266-.034-.4531-.045-.6956-.041-.8178-.016-1.6376.075-2.4514.034-.3308.083-.657.142-.9833.073-.4047.166-.8055.279-1.2007.261-.9719.612-1.9176 1.047-2.8253.953-2.0005 2.331-3.8833 4.051-5.2222 1.565-1.2189 3.418-1.9915 5.503-1.9961 3.355-.0135 6.133 1.9575 8.074 4.6106.79 1.0774 1.442 2.2486 1.942 3.4868.127.3126.247.623.356.9402.246.7245.439 1.4658.578 2.2181.054.3149.104.6366.138.9583.082.7826.105 1.5703.068 2.3563z" fill="#843f2c"/><path d="m162.703 25.52c-1.117-.0295-2.884-.9743-3.867-1.6404-2.887-1.9575-5.125-5.6821-6.741-5.7546-.172-.0076-.344.0178-.507.0747-.732.2719-.979 1.2257-1.242 2.1501-.319 1.1328-.532 1.8759-.679 2.3517-.016-1.3004-.041-2.7187.745-4.7238.227-.5981.528-1.2121 1.122-1.4274.287-.1087 1.225-.3375 3.611 1.8669.628.5663 1.203 1.1881 1.72 1.8578 1.941 2.5353 1.962 2.7324 2.945 3.6069 1.416 1.2529 2.277 1.1872 2.893 1.6381z" fill="#000" opacity=".2"/><path d="m169.953 38.7421c-.102.2787-2.075.2039-3.788-.8745-1.996-1.2552-3.489-3.7791-3.573-6.4117-.084-2.7731 1.443-3.8788.582-5.3899-.113-.2099-.267-.3949-.453-.5438-.616-.4531-1.477-.3851-2.884-1.6403-.983-.8745-1.004-1.0716-2.945-3.6069-.516-.6697-1.092-1.2915-1.72-1.8578-2.404-2.2067-3.344-1.9779-3.629-1.8782-.594.2152-.884.8292-1.122 1.4274-.786 2.0096-.761 3.4233-.745 4.7238 0 1.1056.013 2.1274-.494 3.3644-1.083 2.6259-3.018 2.7007-3.125 5.0229-.063 1.305.535 1.586.501 3.2897 0 .5732-.054 2.6984-1.389 4.1325-2.229 2.3812-6.71 1.407-6.769.9063s4.141-.4532 4.957-2.6236c.661-1.7672-1.813-3.1017-1.459-6.1172.179-1.5429.879-1.6653 1.459-3.5684.849-2.8161-.288-3.8742-.095-6.4774.335-4.5448 4.289-8.4191 7.816-9.9166 1.088-.4698 2.243-.76499 3.423-.87457 4.704-.39875 8.243 2.47637 9.541 3.71567.949.9062 3.326 3.1718 3.716 6.4819.158 1.4852.082 2.9861-.227 4.4474-.628 3.4189-1.733 3.7995-1.966 6.5568-.093 1.0965-.272 3.2307.949 5.0251 1.327 1.9348 3.541 2.3834 3.439 2.687z" fill="#2d2d2d"/><rect fill="#27af3a" height="25" rx="4" transform="matrix(.990268 -.139173 .139763 .990185 .997192 84)" width="52"/><path d="m12.2663 98.9473-.3512-2.4906-2.49556.3507-.27114-1.9229 2.4956-.3507-.3519-2.4954 1.923-.2703.3519 2.4954 2.4908-.35.2711 1.9228-2.4908.3501.3512 2.4907zm10.2039.1425c-.7348.1033-1.4112.0686-2.0293-.1041-.618-.1726-1.1229-.4634-1.5147-.8722-.3922-.412-.6326-.9086-.721-1.4898l2.3763-.334c.058.3195.2381.5618.5404.7269.305.1615.6675.2128 1.0874.1538s.7466-.2153.9802-.4687c.2362-.257.3283-.5587.2763-.9049-.0426-.3476-.2286-.6086-.5581-.7829-.33-.1774-.7399-.2317-1.2298-.1629l-.9496.1335-.2368-1.6795.9496-.1335c.4358-.0612.7738-.2174 1.0142-.4686.2435-.2515.3399-.5457.2892-.8824-.043-.3281-.195-.5776-.4559-.7485-.2614-.1742-.5798-.2348-.9552-.1821-.3976.0559-.7154.206-.9535.4503-.2349.2439-.3338.5319-.2967.864l-2.257.3172c-.0739-.5702.0148-1.1033.266-1.5993.2512-.4959.6361-.9069 1.1547-1.2328.5212-.3295 1.1302-.5432 1.8268-.6411.6872-.0966 1.3168-.0602 1.8889.1092.5749.1657 1.0387.4411 1.3915.8263.3555.3814.5705.8362.6449 1.3642.0795.5403-.0334 1.0168-.3385 1.4295-.3056.4096-.7405.6961-1.3046.8597l.0107.0764c.7534-.0183 1.3553.1437 1.8058.4858.4505.3422.7173.8189.8002 1.4301.0789.5598-.0158 1.084-.2843 1.5727-.2685.4886-.6843.899-1.2474 1.2312-.5598.3317-1.2167.5505-1.9707.6565zm9.3017-1.2002c-1.2852.1806-2.3589-.1291-3.2211-.9292s-1.4045-2.0004-1.627-3.6009c-.2215-1.594-.0301-2.8828.5741-3.8663.6074-.984 1.5553-1.5665 2.8436-1.7475 1.2884-.1811 2.3623.1189 3.2219.8999.859.7778 1.3991 1.9622 1.6202 3.5531.2233 1.6068.0313 2.9135-.5762 3.9202-.6047 1.003-1.5499 1.5933-2.8355 1.7707zm-1.6357-2.5583c.3807.4915.8352.7001 1.3632.6259.5281-.0742.9071-.4 1.1372-.9773.2296-.5805.269-1.3938.1182-2.4399-.148-1.0269-.4118-1.7814-.7912-2.2633-.3762-.4824-.8267-.6867-1.3516-.6129-.5217.0733-.8982.3938-1.1296.9616-.2282.5673-.2715 1.3649-.1298 2.3928.1444 1.047.4056 1.818.7836 2.3131zm12.3019-1.0526-.0727-.5153c-.0547-.4107-.0213-.795.1002-1.1527s.3379-.6638.6491-.9184c.314-.2582.7016-.4198 1.1628-.4846.4709-.0661.8926-.02 1.2653.1385.3755.1548.6697.3892.8826.7031.2157.3103.3512.6725.4063 1.0864l.0726.5154c.0606.4067.0304.7905-.0907 1.1513-.1215.3577-.341.6643-.6586.9198-.3171.2587-.7079.4206-1.1724.4859-.4644.0653-.8832.0171-1.2564-.1446-.3727-.1584-.6653-.393-.8778-.7038-.2125-.3107-.3493-.6711-.4103-1.081zm-5.8561-4.8798-.0726-.5153c-.0552-.414-.0204-.8.1043-1.1582.1242-.3613.3422-.6676.6539-.9191.3144-.255.699-.4145 1.1539-.4784.474-.0666.8973-.0207 1.2701.1378.3759.158.6701.3924.8826.7031.2157.3103.3511.6725.4062 1.0864l.0727.5153c.0435.3086.0348.6034-.0262.8844-.0609.2811-.1709.5366-.3298.7666-.1558.2295-.3686.4232-.6383.5811-.2702.1548-.5818.257-.9349.3066-.6935.0974-1.2673-.0376-1.7214-.4053-.4514-.3712-.7249-.8729-.8205-1.505zm1.5431 7.3545 5.3407-10.716 1.3026-.1831-5.3406 10.716zm5.7625-3.2039.0726.5153c.0373.2413.1219.4387.2538.5921.1351.1529.3267.2119.5749.1771.2545-.0358.4241-.144.509-.3246.0875-.1842.1109-.3984.07-.6424l-.0727-.5153c-.013-.115-.0375-.2202-.0737-.3157-.033-.0959-.0812-.1848-.1447-.2667-.0603-.0824-.1433-.1421-.2491-.1791-.1026-.0375-.2223-.0466-.3591-.0274-.1304.0183-.2397.0596-.328.1239-.0851.0639-.1468.1439-.1851.2402-.0384.0962-.0633.1954-.0748.2976-.0116.1022-.0093.2105.0069.325zm-5.8418-4.8818.0727.5153c.0252.1554.0656.2924.1212.4111.0584.1151.1464.2098.2639.2841.1208.0739.2638.0992.4292.0759.2545-.0358.4242-.1439.509-.3245.0876-.1843.1109-.3984.07-.6425l-.0726-.5153c-.013-.1149-.0376-.2201-.0737-.3156-.033-.0959-.0813-.1849-.1447-.2668-.0603-.0823-.1433-.142-.2491-.1791-.1026-.0375-.2223-.0466-.3591-.0274-.1686.0237-.3003.0909-.395.2015-.0947.1107-.1524.2307-.173.3601-.018.1258-.0176.2668.0012.4232z" fill="#fff"/><rect fill="#d00066" height="24" rx="4" transform="matrix(.970296 .241922 -.242678 .970107 362 56)" width="50"/><path d="m366.649 72.1345.592-2.366-2.371-.5911.457-1.8265 2.371.5911.593-2.3704 1.826.4555-.593 2.3704 2.367.59-.457 1.8266-2.366-.5901-.592 2.366zm5.445 2.7829.404-1.6135 4.128-2.1199c.525-.2767.912-.5235 1.163-.7405.25-.2169.415-.487.496-.8103.095-.3777.047-.7074-.143-.989-.185-.2838-.47-.4736-.854-.5693-.39-.0972-.732-.0574-1.027.1195-.291.1747-.488.469-.592.8829l-2.126-.5301c.156-.6224.434-1.1309.835-1.5254.4-.3945.89-.6512 1.468-.7701.579-.1189 1.209-.0936 1.889.0759 1.048.2615 1.824.7293 2.326 1.4035.506.6719.654 1.4279.444 2.2679-.092.3686-.251.7029-.477 1.0029-.225.297-.577.6136-1.056.95-.476.3341-1.12.7095-1.934 1.1261l-1.367.7474-.015.059 3.763.9381-.452 1.8084zm11.641 3.0371c-.699-.1741-1.294-.4509-1.787-.8305-.492-.3796-.84-.8243-1.043-1.334-.203-.5127-.238-1.0463-.105-1.6008l2.257.5629c-.064.3082.009.5914.221.8496.215.2559.522.4336.921.533.399.0995.75.0778 1.052-.0652.306-.1451.499-.3828.578-.7129.089-.3279.017-.6299-.216-.9062-.232-.2793-.581-.477-1.046-.5931l-.902-.2249.399-1.5954.902.2249c.414.1033.775.0857 1.082-.0527.311-.1377.505-.367.582-.688.081-.3105.035-.59-.137-.8383-.172-.2515-.436-.4216-.792-.5105-.378-.0942-.719-.0748-1.022.0584-.3.1338-.493.3567-.581.6687l-2.144-.5346c.141-.5394.415-.9863.821-1.3407.407-.3545.903-.584 1.487-.6886.589-.1068 1.214-.0778 1.876.0873.653.1627 1.206.4241 1.658.7841.457.3578.773.7737.95 1.248.18.4719.208.9587.082 1.4603-.125.5144-.4.9016-.825 1.1617-.424.257-.919.3567-1.486.2988l-.018.0725c.684.2572 1.166.6213 1.446 1.0925.281.4711.347.9964.198 1.5758-.133.5318-.409.9685-.828 1.3101-.42.3417-.943.5595-1.57.6535-.624.0948-1.294.0529-2.01-.1257zm10.65.6715.122-.4895c.1-.389.271-.7222.51-.9995.24-.2773.546-.4739.918-.5897.376-.118.784-.1224 1.222-.0132.447.1116.809.3062 1.087.584.281.2755.46.593.537.9525.081.3572.07.7318-.031 1.1239l-.122.4895c-.094.3875-.261.7214-.501 1.0018-.24.2773-.549.4731-.928.5874-.379.1173-.789.1209-1.23.0109-.442-.11-.8-.3054-1.077-.5862-.277-.2778-.455-.5949-.533-.9514-.077-.3564-.069-.7299.026-1.1205zm-3.486-6.5123.122-.4895c.102-.392.274-.7264.516-1.0029.244-.2796.551-.4758.923-.5886.375-.115.779-.1186 1.211-.0109.451.1123.814.3073 1.092.5851.28.2786.459.596.537.9525.081.3572.07.7318-.031 1.1239l-.122.4895c-.074.2931-.189.5549-.346.7853-.157.2305-.349.4202-.576.5691-.224.1497-.485.2465-.785.2905-.3.0409-.617.0196-.952-.064-.659-.1643-1.126-.4941-1.4-.9894-.27-.4976-.333-1.0478-.189-1.6506zm-1.293 7.17 8.705-7.6909 1.238.3085-8.705 7.6909zm6.347-.7866-.122.4895c-.055.2304-.051.4385.012.6242.066.1865.216.3092.452.368.242.0602.434.0246.576-.1069.146-.1337.245-.3177.297-.5519l.122-.4895c.031-.108.047-.2115.049-.3104.005-.0982-.005-.1956-.033-.2923-.024-.0959-.077-.1797-.158-.2514-.079-.071-.183-.1227-.313-.1551-.124-.0308-.237-.0334-.34-.0077-.1.0265-.184.076-.254.1486-.07.0725-.128.1526-.176.2403-.047.0876-.085.1858-.112.2946zm-3.472-6.5089-.122.4895c-.034.1488-.048.2866-.041.4135.01.1246.055.2417.134.3511.081.1103.201.185.358.2242.241.0602.433.0246.575-.1069.146-.1338.245-.3177.297-.5519l.123-.4895c.03-.108.046-.2115.049-.3104.005-.0982-.006-.1957-.033-.2923-.024-.0959-.077-.1797-.159-.2514-.078-.071-.183-.1227-.313-.1551-.16-.0399-.303-.0274-.428.0377-.125.065-.221.1519-.287.2607-.062.1065-.113.2335-.153.3808z" fill="#fff"/><path d="m222.717 66.1142h11.7133v11.6906h-11.7133z" opacity=".32" stroke="#d00066" stroke-width="1.95335"/><path d="m324.269 32.6501c0 3.2267-2.621 5.8453-5.857 5.8453s-5.857-2.6186-5.857-5.8453c0-3.2268 2.621-5.8453 5.857-5.8453s5.857 2.6185 5.857 5.8453z" opacity=".32" stroke="#27af3a" stroke-width="1.95335"/><path d="m59.7222 59.4079 7.6086 8.7711h-15.2172z" fill="#e8a100" opacity=".32"/></svg>