<svg fill="none" height="911" viewBox="0 0 1241 911" width="1241" xmlns="http://www.w3.org/2000/svg"><path d="m120.39 853.327h11.7133v11.6906h-11.7133z" stroke="#d00066" stroke-width="1.95335" transform="matrix(.6760919 .73681731 -.73681731 .6760919 667.741398 187.694092)"/><path d="m213.705 905.526c-2.378 2.182-6.079 2.021-8.267-.363-2.187-2.384-2.03-6.086.348-8.267 2.377-2.182 6.078-2.021 8.266.363 2.188 2.385 2.031 6.086-.347 8.267z" stroke="#27af3a" stroke-width="1.95335"/><path d="m15.1318 728.695-1.3186 11.536-10.28824-11.212z" fill="#e8a100"/><path d="m.976677-.976677h11.7133v11.6906h-11.7133z" stroke="#d00066" stroke-width="1.95335" transform="matrix(1 0 0 -1 1136.8 11.6907)"/><path d="m1239.33 46.1316c0-3.2267-2.62-5.8453-5.85-5.8453-3.24 0-5.86 2.6186-5.86 5.8453 0 3.2268 2.62 5.8453 5.86 5.8453 3.23 0 5.85-2.6185 5.85-5.8453z" stroke="#27af3a" stroke-width="1.95335"/><path d="m974.786 19.374 7.608-8.7711h-15.217z" fill="#e8a100"/></svg>