<svg fill="none" height="185" viewBox="0 0 1137 185" width="1137" xmlns="http://www.w3.org/2000/svg" xmlns:xlink="http://www.w3.org/1999/xlink"><clipPath id="a"><path d="m0 0h58v58h-58z" transform="matrix(.98768834 -.15643447 .15643447 .98768834 505 52)"/></clipPath><clipPath id="b"><path d="m0 0h58v58h-58z" transform="matrix(.98768834 .15643447 -.15643447 .98768834 677.073 48)"/></clipPath><clipPath id="c"><path d="m0 0h29v29h-29z" transform="matrix(.98768834 .15643447 -.15643447 .98768834 690.544 55.6389)"/></clipPath><clipPath id="d"><path d="m591 50h58v58h-58z"/></clipPath><path d="m1 184c244.148-190.74055 901.002 49.905 1135-183" stroke="#0085ff" stroke-dasharray="1 2" stroke-opacity=".62"/><g clip-path="url(#a)" fill="#0085ff"><path d="m542.717 104.753-9.36-12.2074c-9.648-1.6614-17.127-9.2321-18.666-18.9474-1.971-12.4436 6.532-24.1676 18.952-26.1348s24.129 6.5557 26.1 18.9993c1.539 9.7153-3.235 19.2248-11.897 23.7879zm-8.79-55.4994c-11.434 1.8109-19.26 12.6057-17.445 24.0611 1.434 9.0565 8.473 16.0876 17.514 17.5l.358.0571 7.768 10.1252 4.257-12.0297.322-.1649c8.164-4.1374 12.685-12.9993 11.25-22.0559-1.812-11.4557-12.591-19.3039-24.024-17.4929z"/><path d="m526.444 65.5047c-.984.156-1.656 1.0826-1.5 2.069l1.132 7.1482c.156.9864 1.082 1.6602 2.066 1.5042.985-.1559 1.657-1.0826 1.5-2.069l-1.132-7.1482c-.155-.9885-1.081-1.6601-2.066-1.5042z"/><path d="m546.065 62.3972c-.985.1559-1.657 1.0826-1.501 2.069l1.133 7.1482c.156.9864 1.081 1.6601 2.066 1.5042.984-.156 1.656-1.0826 1.5-2.069l-1.132-7.1482c-.157-.9882-1.082-1.6602-2.066-1.5042z"/><path d="m531.385 79.3772 1.783-.2824.708 4.4683c.156.9864 1.081 1.6601 2.065 1.5042.985-.1559 1.657-1.0826 1.501-2.069l-.708-4.4683 3.568-.5651.707 4.4683c.157.9864 1.082 1.6601 2.066 1.5042.985-.1559 1.657-1.0826 1.5-2.069l-.707-4.4683 1.783-.2824-2.123-13.4031-14.268 2.2598 2.123 13.4031z"/><path d="m539.554 57.5212.665-1.7349c.089-.2344-.027-.4949-.262-.5844-.232-.0898-.493.0267-.582.2611l-.648 1.6918c-1.116-.4104-2.348-.5529-3.605-.3539-1.257.1991-2.383.7132-3.32 1.4488l-1.139-1.4106c-.157-.1934-.441-.2237-.636-.0662-.194.1573-.222.4407-.066.6363l1.168 1.4445c-1.563 1.5816-2.384 3.8569-2.009 6.2253l14.268-2.2598c-.375-2.3666-1.859-4.2767-3.834-5.298zm-6.399 4.1716c-.492.078-.955-.258-1.033-.7521s.258-.9565.75-1.0345c.492-.0779.955.258 1.033.7521s-.258.9566-.75 1.0345zm5.349-.8472c-.492.078-.955-.258-1.033-.7521s.258-.9565.75-1.0345.955.258 1.033.7521c.08.4938-.256.9563-.75 1.0345z"/></g><g clip-path="url(#b)" fill="#0085ff"><path d="m696.642 109.826-5.129-14.5021c-8.662-4.5614-13.436-14.0726-11.897-23.788 1.971-12.4435 13.68-20.9665 26.1-18.9993 12.421 1.9672 20.923 13.6913 18.952 26.1349-1.539 9.7153-9.017 17.2842-18.665 18.9473zm8.791-55.4992c-11.434-1.8109-22.212 6.0373-24.027 17.4927-1.434 9.0565 3.088 17.9187 11.25 22.0559l.323.1649 4.258 12.0297 7.766-10.1252.358-.0571c9.043-1.4122 16.08-8.4435 17.515-17.5001 1.816-11.4551-6.009-22.2498-17.443-24.0608z"/><g clip-path="url(#c)"><path d="m699.739 64.4241c1.152.1481 2.041.6903 2.941 1.1999.399.2295.799.4591 1.222.6466.332.15.675.1584 1.024.0876.604-.1166 1.201-.2341 1.806-.3563 1.054-.2115 2.118-.3011 3.17-.0656 1.966.4376 3.528 1.4763 4.562 3.2401.181.3039.16.3293-.151.4808-2.307 1.1313-3.531 2.9962-3.649 5.5523-.107 2.2712.82 4.0581 2.651 5.3861.237.1694.268.2949.132.5427-.954 1.7128-2.157 3.2254-3.624 4.5242-.44.389-.884.766-1.38 1.0717-1.111.6785-2.248.6877-3.433.1674-.606-.2679-1.148-.6463-1.736-.9516-1.135-.5812-2.327-.6955-3.573-.5029-.653.103-1.284.2841-1.944.3574-1.284.1464-2.277-.3205-3.058-1.3274-1.325-1.7008-2.202-3.6232-2.758-5.6897-.41-1.4987-.63-3.0474-.633-4.6192-.007-1.9452.269-3.834 1.144-5.5936.71-1.4417 1.727-2.6111 3.141-3.3907 1.319-.7258 2.734-1.0063 4.146-.7598z"/><path d="m704.396 64.1295c.337-1.7645 1.334-3.0632 2.831-4.0074 1.083-.6829 2.273-.9877 3.54-1.0222.195-.0034.269.037.241.2504-.316 2.1062-1.369 3.7172-3.19 4.828-.984.6011-2.032.8079-3.17.6392-.28-.0387-.385-.1356-.301-.4147.03-.0813.034-.1782.049-.2733z"/></g></g><g clip-path="url(#d)"><path d="m620 108.004-7.335-13.5216c-9.269-3.1501-15.472-11.7976-15.472-21.634 0-12.5987 10.232-22.8484 22.807-22.8484s22.807 10.2497 22.807 22.8484c0 9.8364-6.203 18.482-15.472 21.634zm0-56.1915c-11.576 0-20.994 9.4377-20.994 21.0359 0 9.1694 5.852 17.2151 14.561 20.0245l.345.1124 6.088 11.2157 6.086-11.2157.345-.1124c8.711-2.8094 14.561-10.8551 14.561-20.0245.002-11.5982-9.416-21.0359-20.992-21.0359z" fill="#0085ff"/><g stroke="#0085ff" stroke-linecap="round" stroke-linejoin="round" stroke-width="2"><path d="m619.5 84.5833c6.673 0 12.083-5.4099 12.083-12.0833 0-6.6735-5.41-12.0834-12.083-12.0834s-12.083 5.4099-12.083 12.0834c0 6.6734 5.41 12.0833 12.083 12.0833z"/><path d="m607.417 72.5h24.166"/><path d="m619.5 60.4166c3.022 3.3089 4.74 7.6029 4.833 12.0834-.093 4.4804-1.811 8.7745-4.833 12.0833-3.022-3.3088-4.74-7.6029-4.833-12.0833.093-4.4805 1.811-8.7745 4.833-12.0834z"/></g></g></svg>